<svg width="512" height="512" viewBox="0 0 512 512" fill="none" xmlns="http://www.w3.org/2000/svg">
<path d="M206.2 221.9C206.2 236.1 206.1 250.3 205.8 264.5M205.8 264.5C205.3 283.7 204.3 302.8 202.5 321.9C201.3 334.9 200.0 345.5 197.5 358.2C196.3 364.4 194.6 376.7 189.1 381.7C182.3 388.0 179.9 343.6 180.0 341.9C180.8 314.1 192.8 289.1 205.8 264.5ZM205.8 264.5C214.2 248.4 223.0 232.5 229.4 216.1M229.4 216.1C229.7 215.1 230.1 214.2 230.4 213.2M229.4 216.1C229.4 216.2 229.4 216.3 229.4 216.4C229.4 218.3 229.4 220.3 229.4 222.2M229.4 216.1C229.4 214.7 229.7 212.0 230.3 212.9C230.3 213.0 230.4 213.1 230.4 213.2M230.4 213.2C230.8 212.3 231.1 211.4 231.4 210.5C233.3 205.0 232.6 208.1 231.1 214.9M230.4 213.2C230.7 213.7 230.9 214.3 231.1 214.9M231.1 214.9C230.6 217.0 230.0 219.5 229.4 222.2M231.1 214.9C232.5 219.2 232.3 226.3 232.8 230.0C234.0 239.1 234.2 248.6 236.9 257.5C237.2 258.3 240.9 267.4 241.6 266.7C243.5 265.0 244.2 259.8 244.7 257.9C247.1 246.7 248.8 235.4 250.6 224.1C252.0 215.6 253.8 199.6 255.2 185.9M229.4 222.2C226.9 233.1 223.8 247.3 223.6 254.7C223.6 255.0 224.0 266.5 224.7 265.1C228.3 258.4 228.6 247.1 229.1 239.5C229.5 233.8 229.4 228.0 229.4 222.2ZM255.2 185.9C256.9 168.4 257.9 154.8 256.2 165.6C255.2 172.3 254.9 179.1 255.2 185.9ZM255.2 185.9C256.0 205.2 261.4 224.8 268.6 241.9C270.2 245.6 271.6 249.7 273.6 253.2C275.3 256.2 276.6 246.8 277.0 243.4C278.3 233.9 280.1 224.2 280.3 214.6C280.3 208.1 280.4 215.7 280.8 217.7L280.8 217.9C282.8 229.0 286.1 248.4 295.8 255.5C302.3 260.3 307.0 239.8 307.6 238.1C307.6 238.0 307.6 238.0 307.6 238.0M307.6 238.0C314.3 217.8 318.2 197.0 318.7 175.7C318.8 171.1 319.4 151.4 312.4 150.1C304.8 148.6 300.7 167.4 299.8 171.4C296.0 187.9 294.4 209.5 301.1 225.4C302.9 229.8 305.1 234.0 307.6 238.0ZM307.6 238.0C314.2 248.9 322.7 258.7 331.2 268.2M278.5 191.6C279.9 190.3 281.1 188.8 282.3 187.3L282.3 187.3" stroke="black" stroke-width="4" stroke-linecap="round"/>
</svg>
