<svg width="512" height="512" viewBox="0 0 512 512" fill="none" xmlns="http://www.w3.org/2000/svg">
<path d="M191.1 211.1C191.1 224.2 191.5 237.6 191.6 251.0M191.6 251.0C191.9 280.4 191.1 310.1 182.2 337.7C181.5 339.9 178.7 351.9 175.2 353.0C172.7 353.8 170.1 339.0 169.9 337.7C166.6 320.3 167.4 302.7 173.8 286.1C178.5 273.6 184.7 262.1 191.6 251.0ZM191.6 251.0C195.8 244.4 200.3 237.8 204.8 231.3C208.0 226.8 211.8 221.8 214.2 216.5M214.2 216.5C214.9 214.7 215.5 212.9 215.8 211.1C216.4 207.9 215.5 205.2 214.8 210.7C214.6 212.6 214.4 214.5 214.2 216.5ZM214.2 216.5C213.0 226.2 211.9 235.8 211.1 245.5C210.9 248.9 209.8 257.3 212.6 255.5C214.2 254.4 214.4 247.8 214.6 246.6C216.2 237.0 217.8 227.4 218.9 217.7C219.6 211.2 219.3 203.9 220.6 197.6C223.6 182.4 220.5 228.5 221.7 243.9C221.8 244.6 223.8 256.4 223.9 256.3C224.8 255.6 225.3 250.6 225.4 250.2C228.5 235.8 231.7 221.4 234.5 206.9C236.1 198.6 238.2 189.9 239.8 181.2M239.8 181.2C240.8 175.3 241.6 169.5 241.7 163.8C241.8 160.5 240.4 170.2 240.2 173.5C240.1 176.1 239.9 178.6 239.8 181.2ZM239.8 181.2C238.9 197.8 238.3 215.0 241.6 231.1C241.8 232.1 245.3 252.7 247.8 252.7C250.0 252.7 252.7 236.4 253.0 234.8C254.8 226.0 256.3 216.9 259.1 208.4C260.2 205.1 260.6 205.1 260.6 208.8C260.6 219.3 259.4 230.6 261.8 240.9C262.3 243.3 264.0 252.5 267.9 252.5C271.1 252.5 273.3 246.3 274.3 244.2C278.3 235.6 280.2 226.7 281.7 217.3C281.9 216.3 283.0 211.0 284.2 203.9M284.2 203.9C287.2 186.7 291.3 159.0 285.9 159.0C282.7 159.0 281.6 171.4 281.5 173.0C280.5 183.5 281.8 193.8 284.2 203.9ZM284.2 203.9C284.9 207.0 285.7 210.0 286.6 213.0C289.3 222.6 291.5 232.8 296.1 241.6C299.0 247.3 299.3 247.5 305.2 244.3M263.6 186.9V191.4" stroke="black" stroke-width="4" stroke-linecap="round"/>
</svg>
