<svg width="512" height="512" viewBox="0 0 512 512" fill="none" xmlns="http://www.w3.org/2000/svg">
<path d="M188.5 219.7C188.5 275.1 189.0 330.2 180.1 385.1C179.7 387.8 179.5 394.7 176.7 396.5C174.9 397.7 169.8 389.3 169.3 388.2C164.1 377.9 163.6 363.9 164.2 352.8C165.1 336.6 171.1 321.4 178.3 307.1C188.0 287.7 200.8 270.9 213.5 253.4C216.4 249.4 220.0 244.7 221.3 239.8C221.8 237.8 225.0 224.9 220.3 230.3C213.8 237.8 210.1 248.4 210.9 258.2C211.1 260.6 213.1 270.5 216.9 270.5C218.7 270.5 219.6 267.3 220.0 266.1C222.5 259.7 224.7 253.2 226.6 246.6C229.3 237.4 231.5 228.7 231.5 219.1C231.5 214.2 229.6 221.8 229.3 222.9C227.7 231.4 227.1 243.6 231.6 251.1C232.4 252.5 240.4 263.0 243.1 260.1C246.3 256.5 246.5 248.7 247.1 244.3C248.3 234.9 249.3 225.4 249.4 215.8C249.4 208.3 250.0 197.2 246.2 190.1C244.1 186.2 245.1 193.9 245.1 195.3C245.1 216.5 245.2 245.0 264.2 259.1C266.5 260.7 266.3 259.8 268.0 256.8C272.1 249.5 273.6 241.6 274.3 233.3C274.5 231.0 274.6 228.5 274.4 226.3C274.4 226.0 273.3 223.8 273.0 224.5C271.3 228.7 273.0 237.9 274.5 241.9C276.8 248.1 284.2 259.6 291.8 253.5C296.5 249.7 300.1 244.6 303.4 239.5C309.0 230.7 314.6 221.3 316.5 210.9C317.7 204.1 317.8 195.2 311.6 190.5C307.9 187.6 304.8 189.4 303.4 193.5C299.1 206.1 299.6 220.1 305.4 232.1C309.3 240.4 315.0 248.2 322.4 253.8C330.5 259.9 339.2 260.6 348.9 262.0" stroke="black" stroke-width="4" stroke-linecap="round"/>
<path d="M272.276 200.41C274.867 201.706 277.56 202.695 280.148 203.989" stroke="black" stroke-width="4" stroke-linecap="round"/>
</svg>
