<svg width="512" height="512" viewBox="0 0 512 512" fill="none" xmlns="http://www.w3.org/2000/svg">
<path d="M232.166 284.346C238.167 272.719 248.129 262.446 256.759 252.817C259.382 249.89 262.05 247 264.776 244.169C266.345 242.54 267.944 240.935 269.641 239.439C270.234 238.916 270.86 237.923 271.623 238.133C272.205 238.293 271.575 239.346 271.443 239.935C270.728 243.097 269.564 246.146 268.83 249.304C267.909 253.266 266.087 259.516 268.74 263.357C270.302 265.618 272.969 264.307 273.379 267.681C274.07 273.361 271.788 279.189 271.352 284.796C270.711 293.055 277.173 281.463 277.433 281.058C284.47 270.078 289.612 259.004 291.171 245.97C291.621 242.207 295.324 226.073 288.874 224.305C285.969 223.509 282.741 224.406 279.91 225.431C269.54 229.189 251.594 240.425 243.337 246.061C236.868 250.475 230.652 255.257 224.509 260.114C224.091 260.444 206.61 273.788 205.051 278.986C204.682 280.217 206.395 281.615 207.663 281.824C211.16 282.397 236.839 279.874 237.211 279.842C260.65 277.834 283.391 276.016 306.755 278.671" stroke="black" stroke-width="4" stroke-linecap="round"/>
</svg>
