<svg width="512" height="512" viewBox="0 0 512 512" fill="none" xmlns="http://www.w3.org/2000/svg">
<path d="M222.948 287.601C225.625 285.109 257.156 254.572 260.062 257.963C262.046 260.278 241.613 289.253 250.514 288.411C254.925 287.994 265.239 276.231 265.377 284.943C265.418 287.52 263.908 297.487 269.161 291.474C273.827 286.134 278.481 278.317 281.863 272.602C289.84 259.118 299.561 243.815 303.933 228.596C308.444 212.893 292.112 219.391 284.34 222.56C265.18 230.372 247.425 241.759 230.335 253.279C223.774 257.702 210.18 264.871 206.057 272.602C201.613 280.934 225.189 281.085 225.56 281.115C252.453 283.253 279.672 281.415 306.455 278.682" stroke="black" stroke-width="4" stroke-linecap="round"/>
</svg>
