<svg width="512" height="512" viewBox="0 0 512 512" fill="none" xmlns="http://www.w3.org/2000/svg">
<path d="M236.241 276.062C238.994 268.032 245.225 260.587 250.475 254.082C252.611 251.435 256.065 244.468 258.042 247.236C259.423 249.17 256.168 256.761 255.744 258.271C255.19 260.246 252.222 267.485 254.528 269.666C256.029 271.086 259.508 268.072 260.699 267.549C266.263 265.107 262.397 284.179 270.383 277.413C273.781 274.535 277.419 268.038 279.391 264.532C282.943 258.217 287.402 250.477 288.31 243.092C291.092 220.447 250.299 244.593 245.34 247.686C233.821 254.871 222.525 263.138 212.189 271.963C201.246 281.307 221.856 272.765 223.36 272.279C249.651 263.784 275.006 252.819 302.723 250.929" stroke="black" stroke-width="4" stroke-linecap="round"/>
</svg>
