<svg width="512" height="512" viewBox="0 0 512 512" fill="none" xmlns="http://www.w3.org/2000/svg">
<path d="M215.063 277.484C223.877 265.438 232.869 252.775 244.07 242.802C250.595 236.992 245.194 250.896 245.151 253.702C245.029 261.697 254.343 251.816 254.79 256.045C255.232 260.23 252.596 265.463 251.322 269.287C249.603 274.441 248.59 277.243 254.52 273.025C262.503 267.346 278.734 258.977 277.761 247.306C276.063 226.93 250.228 236.747 239.701 242.307C228.711 248.111 218.514 255.569 208.847 263.341C207.088 264.756 205.374 266.228 203.713 267.755C203.293 268.141 198.478 271.444 202.767 271.314C216.006 270.912 230.579 265.731 243.349 263.071C254.471 260.754 269.079 257.756 280.554 256.315C307.942 252.875 310.866 256.315 310.866 256.315" stroke="black" stroke-width="4" stroke-linecap="round"/>
</svg>
