<svg width="512" height="512" viewBox="0 0 512 512" fill="none" xmlns="http://www.w3.org/2000/svg">
<path d="M222.027 287.197C229.73 277.354 241.26 269.52 250.094 260.622C251.314 259.393 260.729 247.618 263.615 248.173C264.689 248.379 257.032 264.969 256.482 266.31C251.545 278.35 257.592 268.228 261.377 269.76C264.89 271.182 255.401 287.121 262.45 287.011C268.182 286.921 275.4 278.182 278.628 274.609C285.815 266.653 291.546 257.483 296.858 248.22C300.954 241.078 305.904 233.041 308.188 225.001C308.54 223.761 309.033 221.101 306.51 221.551C302.81 222.209 291.891 227.903 290.378 228.731C269.745 240.014 250.121 253.225 230.932 266.776C226.995 269.556 210.176 281.236 204.869 287.011C200.365 291.912 208.332 289.505 209.345 289.295C227.164 285.613 243.75 277.226 261.471 272.93" stroke="black" stroke-width="4" stroke-linecap="round"/>
</svg>
