<svg width="512" height="512" viewBox="0 0 512 512" fill="none" xmlns="http://www.w3.org/2000/svg">
<path d="M230.037 278.398C229.799 277.328 231.941 275.065 232.118 274.843C238.327 267.082 245.333 259.824 252.613 253.068C253.355 252.379 257.598 247.868 259.498 247.784C260.357 247.746 259.013 254.413 258.985 254.637C258.768 256.43 258.127 259.402 259.37 261.041C260.625 262.698 262.361 261.175 263.853 261.65C266.524 262.5 263.403 273.403 265.838 275.772C271.457 281.237 290.719 254.895 292.161 250.57C293.513 246.515 292.271 239.597 289.343 236.384C286.261 233.001 281.476 233.252 277.431 233.886C270.094 235.035 258.08 239.272 251.684 242.084C240.069 247.19 228.754 253.832 219.245 262.29C217.302 264.018 212.929 267.43 215.082 268.887C218.892 271.466 224.329 268.774 228.852 267.926C251.765 263.634 274.152 257.007 297.477 255.341" stroke="black" stroke-width="4" stroke-linecap="round"/>
</svg>
