<svg width="512" height="512" viewBox="0 0 512 512" fill="none" xmlns="http://www.w3.org/2000/svg">
<path d="M220.856 277.621C220.292 277.621 220.079 277.785 220.678 277.325C227.279 272.247 233.063 265.414 238.902 259.575C247.035 251.442 254.914 242.295 263.954 235.117C267.43 232.356 263.6 239.738 263.479 240.044C261.68 244.616 255.952 253.025 263.598 252.214C273.303 251.184 271.056 257.027 271.909 265.867C273.568 283.085 288.297 261.136 291.855 256.25C292.711 255.075 305.443 240.381 301.175 238.619C296.581 236.723 285.774 237.942 282.535 238.263C271.292 239.378 263.057 240.776 252.259 244.259C238.016 248.853 224.841 256.217 211.714 263.255C207.082 265.738 197.533 269.173 193.548 273.347C190.16 276.897 203.385 273.932 208.271 273.466C245.608 269.902 282.21 262.375 319.162 256.25" stroke="black" stroke-width="4" stroke-linecap="round"/>
</svg>
