<svg width="512" height="512" viewBox="0 0 512 512" fill="none" xmlns="http://www.w3.org/2000/svg">
<path d="M227.987 284.197C229.439 283.906 230.003 283.067 231.196 281.95C241.472 272.337 251.434 262.383 261.528 252.581C263.905 250.273 269.689 243.094 273.565 241.722C278.76 239.882 269.638 252.054 267.038 256.914C264.761 261.17 248.877 283.407 263.026 279.81C264.467 279.444 268.088 277.518 268.215 280.452C268.303 282.472 266.1 288.127 270.462 285.267C286.271 274.9 295.39 256.731 295.926 238.137C296.009 235.253 296.667 224.869 290.255 226.101C283.947 227.313 270.115 236.682 266.931 238.833C255.808 246.346 239.18 258.92 228.522 267.185C224.391 270.389 220.32 273.669 216.271 276.975C213.858 278.946 208.014 281.253 209.852 283.769C211.95 286.64 216.956 284.785 220.497 284.464C231.193 283.497 240.183 281.8 250.829 279.596C263.914 276.888 276.695 273.315 289.613 269.967C291.644 269.441 298.229 267.641 300.954 267.827C306.081 268.178 299.577 269.183 302.131 270.716" stroke="black" stroke-width="4" stroke-linecap="round"/>
</svg>
