<svg width="512" height="512" viewBox="0 0 512 512" fill="none" xmlns="http://www.w3.org/2000/svg">
<path d="M215.827 281.796C215.352 280.37 220.831 275.411 221.348 274.81C227.311 267.869 232.71 260.447 238.813 253.627C249.253 241.958 243.345 258.766 243.432 265.345C243.518 271.797 259.477 254.923 260.221 255.88C262.132 258.337 257.497 275.441 263.151 273.514C276.526 268.954 289.35 248.996 292.277 235.824C295.965 219.227 246 243.191 242.418 245.007C240.273 246.095 193.988 266.942 201.912 274.866C207.501 280.456 232.304 271.248 236.728 270.19C261.532 264.262 285.973 259.187 311.15 255.43" stroke="black" stroke-width="4" stroke-linecap="round"/>
</svg>
