<svg width="512" height="512" viewBox="0 0 512 512" fill="none" xmlns="http://www.w3.org/2000/svg">
<path d="M233.294 277.894C233.336 278.236 233.33 278.52 233.796 278.396C237.993 277.277 243.151 272.738 246.596 270.58C251.909 267.251 259.711 260.412 266.209 259.464C270.316 258.865 264.576 267.688 262.803 271.44C261.485 274.228 253.543 286.535 256.098 289.941C258.248 292.809 267.913 286.602 269.866 285.531C270.357 285.262 275.499 281.17 275.245 283.918C274.792 288.811 272.177 293.444 272.089 298.368C272.082 298.78 272.051 299.44 272.448 299.551C274.116 300.018 275.405 297.624 276.464 296.252C288.193 281.049 296.889 262.778 305.578 245.768C307.263 242.47 322.943 217.831 314.901 213.283C310.905 211.023 300.753 214.266 298.049 215.362C286.985 219.848 271.095 229.922 261.906 235.8C251.223 242.633 223.207 261.522 212.282 269.145C207.777 272.289 203.276 275.447 198.944 278.826C197.505 279.949 195.082 280.803 195 282.627C194.924 284.309 242.62 275.223 243.19 275.097C260.854 271.213 278.222 265.642 295.969 262.189C299.571 261.489 302.671 261.562 306.224 261.759" stroke="black" stroke-width="4" stroke-linecap="round"/>
</svg>
