<svg width="512" height="512" viewBox="0 0 512 512" fill="none" xmlns="http://www.w3.org/2000/svg">
<path d="M232.275 284.724C232.506 286.577 249.198 276.968 249.701 276.657C258.205 271.394 266.239 265.436 274.369 259.626C277.234 257.578 279.972 255.32 283.046 253.602C284.14 252.991 281.199 255.295 280.249 256.112C278.019 258.029 256.844 279.701 261.103 281.031C262.88 281.587 265.529 279.86 267.198 279.49C270.405 278.777 270.52 280.314 272.074 282.501C278.597 291.681 298.703 247.578 300.364 243.993C304.566 234.922 310.31 224.421 294.018 227.571C282.866 229.727 259.418 238.85 249.844 242.845C239.169 247.3 227.166 253.067 216.857 258.765C214.467 260.086 212.162 261.556 209.865 263.032C208.067 264.188 203.821 266.017 205.312 267.55C207.748 270.056 212.3 268.439 215.781 268.123C223.402 267.433 230.042 266.209 237.581 264.645C260.931 259.803 283.881 253.17 307.141 247.937" stroke="black" stroke-width="4" stroke-linecap="round"/>
</svg>
