<svg width="512" height="512" viewBox="0 0 512 512" fill="none" xmlns="http://www.w3.org/2000/svg">
<path d="M208.919 291.115C221.279 282.102 232.906 271.701 244.416 261.641C249.179 257.479 253.71 252.765 258.83 249.02C263.38 245.693 258.286 256.09 258.185 256.371C256.531 260.943 254.559 265.791 254.026 270.677C253.586 274.704 255.795 273.601 258.472 274.047C266.171 275.331 256.533 294.941 262.81 295.202C267.696 295.406 275.343 282.974 276.543 281.362C286.909 267.432 297.097 253.082 306.052 238.192C308.252 234.534 315.09 224.115 313.617 218.83C310.928 209.179 269.794 232.599 268.798 233.1C248.811 243.169 228.917 253.958 210.067 266.052C208.412 267.113 200.14 271.974 198.27 275.517C196.922 278.073 201.02 277.869 201.748 277.92C210.642 278.538 220.382 276.605 229.07 275.482C246.449 273.234 263.808 271.14 281.204 269.171" stroke="black" stroke-width="4" stroke-linecap="round"/>
</svg>
