<svg width="512" height="512" viewBox="0 0 512 512" fill="none" xmlns="http://www.w3.org/2000/svg">
<path d="M222.092 289.895C222.092 290.525 221.982 290.355 222.738 289.536C227.488 284.39 232.518 279.488 237.653 274.728C240.937 271.684 244.343 268.367 248.195 266.015C252.304 263.506 250.447 267.393 249.486 269.601C247.629 273.863 237.06 290.933 248.087 289.68C250.495 289.406 255.74 287.425 256.334 291.329C256.43 291.96 255.44 296.993 256.478 296.277C261.235 292.992 265.698 286.97 269.278 282.652C280.827 268.721 290.975 253.358 300.114 237.761C300.819 236.558 311.955 220.425 307.751 217.108C303.568 213.809 297.043 218.702 292.261 221.052C278.03 228.048 262.81 237.612 249.593 245.936C234.663 255.339 218.708 264.869 204.81 275.911C199.113 280.437 208.458 280.017 210.977 279.999C235.578 279.817 260.144 274.725 284.696 273.115" stroke="black" stroke-width="4" stroke-linecap="round"/>
</svg>
