<svg width="512" height="512" viewBox="0 0 512 512" fill="none" xmlns="http://www.w3.org/2000/svg">
<path d="M233.147 283.311C233.669 281.954 234.904 280.993 235.908 280.012C242.248 273.815 248.784 267.801 255.306 261.798C260.579 256.943 265.836 251.965 271.476 247.527C275.119 244.661 273.814 246.922 272.696 249.499C271.68 251.839 266.917 260.07 269.397 262.55C271.938 265.092 269.688 276.916 272.086 277.287C274.457 277.654 278.444 273.187 279.472 272.124C286.876 264.471 293.64 255.852 299.766 247.168C300.121 246.666 315.707 226.903 309.806 224.293C305.368 222.33 290.281 230.882 290.265 230.89C277.532 237.316 264.843 244.909 252.688 252.296C237.466 261.547 222.236 271.033 207.618 281.231C204.114 283.675 194.841 288.863 205.395 287.9C231.512 285.517 257.253 276.857 283.488 276.857" stroke="black" stroke-width="4" stroke-linecap="round"/>
</svg>
