<svg width="512" height="512" viewBox="0 0 512 512" fill="none" xmlns="http://www.w3.org/2000/svg">
<path d="M237.704 293.639C248.064 278.57 259.859 263.467 272.556 250.326C273.45 249.4 278.52 244.212 276.213 249.25C274.553 252.875 272.104 256.546 271.552 260.58C271.17 263.374 272.683 264.38 275.209 264.596C278.389 264.868 278.317 265.336 277.719 269.114C276.729 275.366 274.696 281.461 273.99 287.759C273.761 289.801 274.355 290.925 276.285 288.978C284.124 281.07 288.58 268.963 293.209 259.146C296.647 251.852 299.964 244.501 303.391 237.203C305.492 232.731 308.13 228.476 309.702 223.793C313.884 211.336 291.841 222.677 289.48 223.793C268.097 233.897 248.022 247.413 228.023 259.935C225.148 261.735 208.33 272.279 204.072 275.568C200.826 278.074 200.245 279.317 204.717 278.651C220.765 276.263 236.603 270.552 252.333 266.676C264.655 263.639 277.248 261.369 289.982 261.369" stroke="black" stroke-width="4" stroke-linecap="round"/>
</svg>
