<svg width="512" height="512" viewBox="0 0 512 512" fill="none" xmlns="http://www.w3.org/2000/svg">
<path d="M225.948 279.509C234.041 271.753 242.309 264.005 251.118 257.063C251.686 256.616 257.121 251.659 258.612 252.725C260.451 254.038 252.474 266.646 252.122 267.318C249.563 272.207 240.584 288.318 253.592 283.022C256.222 281.952 260.496 278.658 263.596 279.007C264.942 279.158 263.662 282.616 264.528 281.66C268.541 277.234 271.819 271.58 275.106 266.672C279.806 259.655 284.646 252.595 288.551 245.087C290.085 242.14 295.42 233.66 292.962 229.92C288.785 223.569 269.435 234.851 265.891 236.697C253.676 243.061 241.886 250.4 230.179 257.637C223.253 261.917 215.738 266.191 209.526 271.549C208.848 272.134 206.937 272.958 207.662 273.485C208.979 274.441 210.914 273.844 212.538 273.736C217.717 273.389 222.873 272.735 228.027 272.122C253.375 269.108 278.706 265.814 304.041 262.728" stroke="black" stroke-width="4" stroke-linecap="round"/>
</svg>
