<svg width="512" height="512" viewBox="0 0 512 512" fill="none" xmlns="http://www.w3.org/2000/svg">
<path d="M234.486 275.352C242.121 265.274 252.939 256.643 262.561 248.568C262.883 248.298 268.923 242.768 266.326 247.313C263.546 252.177 260.327 257.051 258.474 262.372C254.744 273.081 269.795 266.785 273.282 272.34C274.708 274.611 272.498 279.862 273.641 281.232C273.966 281.623 274.436 280.595 274.788 280.228C276.229 278.725 278.698 275.921 279.808 274.635C287.815 265.352 302.138 251.539 299.994 237.668C296.784 216.896 238.532 247.492 230.184 251.365C225.773 253.411 215.209 256.878 211.682 261.153C210.494 262.593 215.429 261.716 217.276 261.44C222.761 260.619 234.343 258.238 239.148 257.209C255.504 253.706 272.04 248.16 288.7 246.309" stroke="black" stroke-width="4" stroke-linecap="round"/>
</svg>
