<svg width="512" height="512" viewBox="0 0 512 512" fill="none" xmlns="http://www.w3.org/2000/svg">
<path d="M226.805 284.782C235.46 274.396 244.378 263.011 254.701 254.233C258.458 251.038 258.139 253.794 256.96 257.03C255.146 262.007 250.783 268.152 251.582 273.738C252.743 281.866 263.175 273.063 264.812 276.571C267.039 281.343 262.463 290.29 261.298 294.678C260.226 298.721 260.075 300.018 263.019 294.821C266.784 288.176 273.473 274.302 276.214 268.073C280.517 258.296 304.52 209.823 275.569 214.29C265.334 215.869 255.23 221.5 246.418 226.624C237.034 232.081 227.392 238.239 219.24 245.448C216.537 247.839 209.031 254.388 209.523 258.894C210.207 265.155 232.356 261.466 232.686 261.44C256.117 259.603 279.415 255.093 302.962 255.093" stroke="black" stroke-width="4" stroke-linecap="round"/>
</svg>
