<svg width="512" height="512" viewBox="0 0 512 512" fill="none" xmlns="http://www.w3.org/2000/svg">
<path d="M208.803 280.016C207.08 280.016 215.346 271.567 215.759 271.124C220.015 266.553 224.332 262.03 228.918 257.786C230.652 256.181 238.308 248.133 236.483 256.065C235.384 260.843 225.273 282.279 234.332 283.888C236.835 284.333 240.222 281.969 242.543 283.028C244.444 283.896 244.051 292.145 246.989 289.697C253.313 284.427 257.785 272.881 261.152 265.889C265.989 255.844 270.89 245.124 272.841 234.049C273.583 229.838 274.065 221.857 267.176 222.002C259.664 222.16 247.832 228.496 242.579 231.396C231.358 237.59 216.612 247.535 206.006 254.917C202.524 257.341 199.123 259.881 195.716 262.411C194.03 263.663 190.722 264.528 191.019 266.606C191.284 268.464 194.803 266.913 196.648 266.57C204.736 265.07 218.072 261.737 225.153 260.045C243.538 255.65 261.861 251.065 280.657 248.75C294.193 247.083 307.534 247.101 321.102 247.101" stroke="black" stroke-width="4" stroke-linecap="round"/>
</svg>
