<svg width="512" height="512" viewBox="0 0 512 512" fill="none" xmlns="http://www.w3.org/2000/svg">
<path d="M244.625 266.673C246.994 264.978 274.848 244.155 276.099 246.864C278.794 252.704 251.912 280.451 263.152 284.377C267.395 285.858 273.602 280.661 276.648 278.658C278.866 277.199 286.999 269.505 290.189 270.241C293.464 270.997 287.1 282.188 295.678 278.018C308.435 271.817 318.601 253.33 318.094 239.362C316.976 208.488 253.716 244.687 246.043 248.648C229.962 256.949 212.949 265.461 198.146 276.005C180.008 288.924 220.832 280.763 220.836 280.763C253.35 275.711 285.504 268.274 317.911 262.555" stroke="black" stroke-width="4" stroke-linecap="round"/>
</svg>
