<svg width="512" height="512" viewBox="0 0 512 512" fill="none" xmlns="http://www.w3.org/2000/svg">
<path d="M228.717 291.695C231.85 282.644 237.466 273.848 243.081 266.168C245.578 262.754 248.264 259.155 251.27 256.15C253.176 254.243 250.137 261.44 249.211 263.972C247.391 268.953 238.789 288.637 251.773 282.546C253.656 281.662 258.291 277.522 260.785 278.52C263.401 279.566 262.43 286.246 262.524 288.356C262.699 292.301 265.485 287.037 266.229 285.931C272.152 277.122 277.66 267.948 282.881 258.712C288.244 249.223 293.881 239.253 297.52 228.93C298.504 226.14 300.416 220.66 297.52 220.055C294.092 219.339 282.458 225.811 281.783 226.185C263.689 236.216 246.371 248.127 229.586 260.175C227.54 261.644 211.949 272.288 208.725 277.468C208.25 278.231 208.549 279.821 209.411 280.075C211.767 280.771 214.332 280.085 216.777 279.847C245.982 276.994 274.787 268.893 303.65 263.698" stroke="black" stroke-width="4" stroke-linecap="round"/>
</svg>
