<svg width="512" height="512" viewBox="0 0 512 512" fill="none" xmlns="http://www.w3.org/2000/svg">
<path d="M240.462 287.548C246.908 276.755 255.051 266.547 263.518 257.263C270.056 250.094 266.316 257.448 264.616 261.838C263.123 265.695 260.681 270.621 261.277 274.921C261.774 278.512 264.677 277.823 267.27 278.124C271.648 278.632 271.648 282.285 271.89 286.084C272.086 289.169 269.729 296.284 272.668 295.325C275.555 294.382 280.695 285.11 281.405 283.979C290.967 268.768 300.71 252.478 307.161 235.67C308.745 231.544 310.453 227.235 310.409 222.816C310.308 212.642 298.803 218.579 294.947 220.162C271.158 229.929 249.424 246.571 228.934 261.746C223.443 265.813 218.094 270.071 212.785 274.372C209.735 276.843 206.663 279.307 203.864 282.058C203.068 282.841 201.648 283.864 202.08 284.894C202.463 285.808 204.083 285.097 205.054 284.894C212.853 283.263 220.388 280.548 228.11 278.581C252.596 272.346 277.02 267.713 302.22 266.138" stroke="black" stroke-width="4" stroke-linecap="round"/>
</svg>
