<svg width="512" height="512" viewBox="0 0 512 512" fill="none" xmlns="http://www.w3.org/2000/svg">
<path d="M212.602 287.579C220.139 279.356 227.226 270.791 235.292 263.058C238.067 260.398 241.688 254.888 241.239 261.229C240.974 264.978 238.488 274.703 243.344 276.142C250.226 278.181 249.046 293.093 257.068 284.743C266.051 275.391 273.041 263.147 279.758 252.171C284.025 245.2 290.075 236.55 291.653 228.199C292.667 222.828 287.691 224.534 284.791 225.775C270.055 232.076 256.156 241.276 242.612 249.7C231.916 256.353 220.824 263.087 210.909 270.927C210.088 271.576 208.087 272.105 208.576 273.031C209.141 274.101 210.982 273.402 212.19 273.352C216.149 273.188 220.094 272.765 224.039 272.391C250.164 269.913 277.069 264.651 303.181 267.816" stroke="black" stroke-width="4" stroke-linecap="round"/>
</svg>
