<svg width="512" height="512" viewBox="0 0 512 512" fill="none" xmlns="http://www.w3.org/2000/svg">
<path d="M248.284 285.705C248.284 285.757 248.195 286.453 248.33 285.979C249.298 282.589 252.951 278.387 254.826 275.824C256.024 274.185 277.817 247.142 279.484 250.114C280.61 252.123 277.683 257.869 277.15 259.217C274.256 266.55 268.319 275.98 269.053 284.15C270.068 295.439 285.871 277.128 288.862 281.679C290.264 283.814 290.051 286.502 290.28 288.907C290.655 292.85 295.384 282.758 297.142 279.209C303.651 266.069 310.954 252.169 313.885 237.671C315.054 231.889 317.141 223.869 308.67 222.254C300.108 220.621 285.475 227.295 279.209 230.031C259.369 238.693 240.953 250.048 223.215 262.374C219.534 264.932 207.623 273.765 203.177 277.379C201.069 279.093 197.798 280.533 197.505 283.235C196.786 289.868 276.7 283.076 285.339 282.411" stroke="black" stroke-width="4" stroke-linecap="round"/>
</svg>
