<svg width="512" height="512" viewBox="0 0 512 512" fill="none" xmlns="http://www.w3.org/2000/svg">
<path d="M226.579 282.307C227.064 280.608 228.148 279.234 229.141 277.778C234.205 270.351 239.521 263.083 244.878 255.866C248.692 250.726 252.543 245.586 256.543 240.586C259.669 236.679 257.069 243.659 256.863 244.337C255.724 248.089 248.405 261.028 252.151 264.329C255.431 267.218 259.731 267.211 262.719 270.962C266.677 275.932 265.165 281.726 267.294 287.157C269.562 292.944 274.537 287.589 276.718 284.915C285.149 274.58 290.931 261.677 296.206 249.552C298.131 245.128 305.888 231.191 302.748 225.398C300.345 220.967 293.422 222.759 290.259 223.431C279.434 225.731 270.19 230.118 260.34 235.188C244.532 243.324 227.727 253.041 214.136 264.649C204.078 273.239 206.824 277.477 219.168 278.968C247.005 282.329 276.345 274.625 303.983 271.603" stroke="black" stroke-width="4" stroke-linecap="round"/>
</svg>
