<svg width="512" height="512" viewBox="0 0 512 512" fill="none" xmlns="http://www.w3.org/2000/svg">
<path d="M220.21 286.669C220.504 287.552 221.602 286.175 221.902 285.937C229.448 279.963 236.958 273.961 244.73 268.279C248.566 265.475 253.029 261.728 257.539 259.861C260.346 258.7 257.59 266.071 256.533 268.919C254.45 274.533 242.382 298.41 256.945 297.099C261.737 296.668 265.89 294.185 270.531 293.257C272.437 292.876 274.212 296.023 274.74 295.819C279.277 294.063 285.533 278.414 286.543 276.33C291.77 265.545 295.525 256.995 299.627 245.726C301.912 239.446 305.463 229.688 305.665 222.486C306.032 209.44 290.983 215.691 283.981 218.323C258.889 227.754 234.378 241.778 212.433 257.117C210.019 258.803 203.861 263.373 206.76 263.887C217.034 265.71 228.506 264.398 238.874 264.482C258.781 264.644 279.373 264.1 298.437 270.2" stroke="black" stroke-width="4" stroke-linecap="round"/>
</svg>
