<svg width="512" height="512" viewBox="0 0 512 512" fill="none" xmlns="http://www.w3.org/2000/svg">
<path d="M245.841 289.8C252.458 282.138 258.35 273.822 263.317 265.005C264.557 262.803 264.606 257.849 267.068 258.417C267.82 258.591 265.459 272.248 265.421 272.507C264.768 276.962 262.701 283.536 264.186 288.061C265.786 292.938 272.766 288.622 275.394 287.421C280.064 285.286 283.684 284.786 285.778 290.394C286.276 291.728 286.276 299.539 287.974 295.792C291.758 287.442 294.882 278.644 297.718 269.945C302.636 254.866 309.042 237.375 309.338 221.27C309.484 213.344 302.969 214.511 297.215 216.33C272.652 224.092 250.301 240.527 229.509 255.215C221.454 260.906 211.113 267.366 204.394 274.978C197.285 283.031 212.15 284.446 216.655 284.95C239.504 287.51 262.518 285.074 285.367 284.035" stroke="black" stroke-width="4" stroke-linecap="round"/>
</svg>
