<svg width="512" height="512" viewBox="0 0 512 512" fill="none" xmlns="http://www.w3.org/2000/svg">
<path d="M234.815 283.78C237.296 277.164 244.844 271.292 249.546 266.396C253.39 262.393 257.322 257.235 261.943 254.045C263.575 252.918 262.244 258.016 262.08 259.992C261.841 262.875 261.242 268.188 264.505 269.919C267.471 271.493 270.859 269.667 273.517 272.527C276.576 275.816 275.606 280.401 275.804 284.375C275.833 284.952 275.595 286.116 276.17 286.068C279.082 285.825 279.948 281.567 281.386 279.023C284.652 273.241 306.454 228.038 293.28 225.682C284.444 224.101 271.098 233.251 264.551 237.256C252.848 244.414 241.774 252.717 231.064 261.273C226.053 265.275 221.25 269.477 216.928 274.219C210.285 281.508 218.654 279.2 225.483 277.65C248.885 272.338 271.692 263.151 295.75 261.547" stroke="black" stroke-width="4" stroke-linecap="round"/>
</svg>
