<svg width="512" height="512" viewBox="0 0 512 512" fill="none" xmlns="http://www.w3.org/2000/svg">
<path d="M216.376 282.894C219.625 282.894 223.006 277.88 224.793 276.123C228.013 272.958 258.227 240.767 262.809 244.695C263.795 245.54 260.792 252.216 260.75 252.335C258.45 258.927 254.012 267.5 254.346 274.659C254.572 279.501 261.442 277.747 264.09 277.541C270.387 277.053 273.316 276.418 274.886 282.894C275.245 284.374 275.958 289.539 278.958 287.011C285.062 281.865 289.18 271.907 292.407 265.052C296.453 256.459 303.646 243.083 298.537 233.212C290.445 217.577 269.168 225.268 258.188 231.382C243.922 239.327 230.354 249.861 218.068 260.569C213.157 264.849 209.067 268.641 205.213 273.744C205.08 273.921 201.085 278.002 204.161 278.868C212.167 281.119 228.171 274.877 234.949 273.104C247.695 269.768 261.606 265.602 274.474 262.765C325.458 251.523 262.489 266.123 309.425 257.367" stroke="black" stroke-width="4" stroke-linecap="round"/>
</svg>
