<svg width="512" height="512" viewBox="0 0 512 512" fill="none" xmlns="http://www.w3.org/2000/svg">
<path d="M230.863 275.707C233.806 275.44 239.688 269.789 240.749 268.93C254.459 257.832 267.746 243.92 283.326 235.443C290.576 231.498 284.89 242.783 284.283 244.293C279.48 256.24 273.027 267.474 268.496 279.535C267.972 280.929 261.017 298.266 266.024 296.597C267.654 296.054 267.479 297.573 268.337 298.431C270.514 300.608 277.675 290.915 277.984 290.538C285.448 281.429 291.42 271.218 296.402 260.558C299.047 254.901 317.433 219.9 305.81 214.314C297.062 210.109 276.579 223.411 270.728 226.513C251.223 236.855 232.156 248.328 213.72 260.479C210.323 262.718 205.403 265.465 202.638 268.691C198.557 273.452 215.161 267.601 221.295 266.299C248.253 260.578 274.993 255.615 302.621 255.615" stroke="black" stroke-width="4" stroke-linecap="round"/>
</svg>
