<svg width="512" height="512" viewBox="0 0 512 512" fill="none" xmlns="http://www.w3.org/2000/svg">
<path d="M217.449 284.388C217.519 284.809 217.685 284.438 217.91 284.173C220.371 281.278 223.398 278.831 226.324 276.434C228.77 274.432 231.507 271.919 234.401 270.507C236.45 269.508 235.589 274.331 235.568 274.868C235.354 280.403 233.468 287.236 241.28 284.818C243.222 284.217 245.543 282.919 247.668 283.099C250.778 283.361 251.094 286.113 254.178 281.809C261.087 272.167 264.537 258.753 267.015 247.444C267.43 245.55 271.537 231.162 266.954 227.391C262.74 223.924 250.702 231.651 249.541 232.274C236.45 239.289 224.209 247.852 212.167 256.504C206.645 260.471 199.121 264.786 194.601 270.139C194.056 270.784 193.002 272.361 193.772 273.241C195.285 274.97 199.94 273.711 200.62 273.64C211.546 272.5 228.948 269.61 238.578 268.112C259.656 264.834 281.11 260.478 302.516 259.882C306.114 259.782 311.666 260.136 315.414 261.356C319.921 262.823 315.473 261.834 318.055 263.383" stroke="black" stroke-width="4" stroke-linecap="round"/>
</svg>
