<svg width="512" height="512" viewBox="0 0 512 512" fill="none" xmlns="http://www.w3.org/2000/svg">
<path d="M231.744 270.179C241.849 263.88 251.497 256.943 261.379 250.31C262.9 249.289 266.981 245.867 269.21 245.734C271.526 245.596 268.134 250.261 267.306 252.429C265.531 257.076 260.78 267.472 264.727 272.267C266.114 273.953 269.03 272.891 270.746 272.912C273.729 272.949 274.927 274.02 277.011 275.891C282.777 281.069 290.291 264.844 290.953 261.488C293.356 249.302 285.748 239.551 273.817 236.582C260.077 233.164 245.24 238.434 233.034 244.168C226.201 247.378 219.717 251.082 213.656 255.592C207.566 260.123 202.142 265.82 214.178 266.248C230.585 266.832 247.575 262.623 263.437 259.123C277.176 256.092 290.977 253.289 304.711 250.279" stroke="black" stroke-width="4" stroke-linecap="round"/>
</svg>
