<svg width="512" height="512" viewBox="0 0 512 512" fill="none" xmlns="http://www.w3.org/2000/svg">
<path d="M228.652 281.686C234.751 275.587 240.418 269.116 246.374 262.885C252.816 256.145 249.528 262.78 248.443 267.383C246.839 274.184 249.978 271.227 254.02 271.521C257.395 271.767 249.677 291.996 254.92 286.184C264.823 275.205 269.418 257.722 274.08 244.084C274.78 242.038 280.663 228.3 277.859 225.463C277.015 224.609 275.378 225.116 274.26 225.553C268.682 227.732 257.894 235.822 254.2 238.507C244.044 245.886 231.967 253.76 224.064 263.785C217.079 272.645 225.905 271.585 232.205 270.037C251.796 265.222 269.861 258.989 290.183 258.207" stroke="black" stroke-width="4" stroke-linecap="round"/>
</svg>
