<svg width="512" height="512" viewBox="0 0 512 512" fill="none" xmlns="http://www.w3.org/2000/svg">
<path d="M237.783 268.425C241.479 267.753 246.295 262.105 248.715 260.072C250.255 258.779 275.794 237.91 276.293 238.882C276.949 240.161 272.428 248.143 272.27 248.495C270.198 253.095 267.602 258.112 267.264 263.266C267.058 266.407 267.802 270.123 271.226 271.158C273.762 271.925 279.288 269.242 280.623 272.356C281.685 274.834 281.424 283.943 285.506 284.272C293.785 284.938 303.573 264.679 306.174 260.318C311.164 251.948 323.233 235.173 306.327 229.976C299.812 227.974 292.777 227.834 285.966 228.103C266.203 228.884 252.766 232.846 234.957 241.216C222.477 247.082 209.336 256.189 199.579 266.214C194.377 271.559 197.613 273.047 204.217 272.018C220.813 269.433 236.739 263.079 252.83 258.537C261.582 256.066 269.365 253.848 278.442 253.562C288.994 253.228 290.618 255.08 301.352 255.711" stroke="black" stroke-width="4" stroke-linecap="round"/>
</svg>
