<svg width="512" height="512" viewBox="0 0 512 512" fill="none" xmlns="http://www.w3.org/2000/svg">
<path d="M235.545 279.945C235.648 278.711 235.954 278.271 236.681 276.936C242.751 265.791 249.893 255.14 256.981 244.629C259.512 240.874 262.982 234.39 266.931 231.485C269.228 229.795 268.138 237.247 267.483 240.022C266.91 242.454 264.49 247.629 265.426 250.279C266.407 253.059 275.771 248.732 277.526 248.652C291.026 248.033 278.043 273.553 293.587 271.838C301.992 270.91 310.098 264.086 316.589 259.277C321.983 255.28 326.44 251.953 325.587 244.659C325.35 242.635 325.533 240.336 324.358 238.671C319.179 231.331 309.252 230.45 301.203 230.502C284.629 230.61 261.715 235.547 246.232 240.329C232.656 244.523 219.405 250.369 207.476 258.141C200.458 262.714 192.763 269.386 187.791 276.291C183.309 282.515 187.986 282.437 193.595 281.204C211.06 277.364 228.178 272.252 245.741 268.767C259.337 266.068 272.042 264.091 285.787 262.809C306.164 260.909 293.027 262.784 311.276 261.703" stroke="black" stroke-width="4" stroke-linecap="round"/>
</svg>
