<svg width="512" height="512" viewBox="0 0 512 512" fill="none" xmlns="http://www.w3.org/2000/svg">
<path d="M213.057 285.647C210.782 283.752 227.368 265.202 227.859 264.611C231.785 259.885 235.593 255.39 239.774 250.915C240.24 250.417 243.34 246.951 244.872 246.247C245.924 245.764 243.312 255.216 243.245 255.49C242.571 258.247 240.288 264.113 241.617 267.037C242.879 269.814 247.432 266.466 248.957 265.717C255.126 262.684 249.339 279.568 256.204 275.79C263.014 272.041 269.024 263.199 273.801 257.456C277.108 253.48 282.882 246.183 285.901 241.671C286.818 240.3 290.738 233.962 290.937 231.659C291.874 220.795 265.884 228.743 262.684 229.694C247.097 234.327 233.59 243.329 220.489 252.665C215.096 256.507 204.165 264.704 198.684 269.003C196.767 270.506 194.856 272.022 193.034 273.64C192.292 274.299 190.889 274.835 191.007 275.82C191.104 276.632 192.556 276.413 193.372 276.465C195.772 276.619 198.19 276.617 200.588 276.435C212.196 275.552 225.494 273.381 236.703 271.275C259.336 267.023 281.573 260.257 304.327 256.719C310.33 255.785 315.074 256.243 320.849 256.903" stroke="black" stroke-width="4" stroke-linecap="round"/>
</svg>
