<svg width="512" height="512" viewBox="0 0 512 512" fill="none" xmlns="http://www.w3.org/2000/svg">
<path d="M234.618 288.09C238.816 282.171 243.522 276.62 248.161 271.046C249.918 268.934 256.829 260.566 259.677 257.687C261.978 255.362 260.955 257.403 260.322 259.008C259.196 261.862 244.968 288.315 251.815 288.459C256.273 288.553 270.924 276.143 274.264 281.211C275.765 283.488 271.452 295.097 277.182 288.95C282.705 283.024 287.087 275.791 290.97 268.743C297.511 256.873 304.059 243.658 306.479 230.202C307.744 223.169 305.525 220.419 297.88 221.88C274.524 226.341 252.604 241.094 233.881 254.923C224.625 261.76 214.592 269.563 207.04 278.417C200.451 286.142 211.516 284.416 216.315 283.76C226.776 282.33 237.106 279.892 247.516 278.14C258.301 276.325 269.098 275.02 279.946 273.718" stroke="black" stroke-width="4" stroke-linecap="round"/>
</svg>
