<svg width="512" height="512" viewBox="0 0 512 512" fill="none" xmlns="http://www.w3.org/2000/svg">
<path d="M226.659 277.841C225.29 276.129 243.444 261.394 244.471 260.582C247.63 258.086 254.492 251.855 259.243 251.922C263.195 251.978 256.751 264.084 256.356 265.004C255.303 267.456 252.332 272.673 253.5 275.691C254.228 277.572 258.062 276.388 259.212 276.244C261.892 275.909 263.58 275.787 264.31 278.885C264.634 280.259 263.9 290.152 267.074 287.116C271.172 283.194 274.478 277.484 276.993 272.528C282.406 261.862 287.043 250.317 290.598 238.901C291.956 234.536 295.74 225.182 288.079 224.16C281.888 223.335 275.361 225.862 269.868 228.03C259.919 231.955 251.147 236.767 241.861 242.064C232.537 247.383 221.81 253.122 213.823 260.521C208.717 265.25 210.854 267.656 217.692 267.676C236.783 267.732 256.129 263.091 274.874 260.091C284.278 258.586 292.091 257.051 301.285 257.941" stroke="black" stroke-width="4" stroke-linecap="round"/>
</svg>
