<svg width="512" height="512" viewBox="0 0 512 512" fill="none" xmlns="http://www.w3.org/2000/svg">
<path d="M204 296.479C212.989 288.689 223.259 281.819 232.99 275.044C237.858 271.655 247.568 263.193 254.334 262.637C256.715 262.441 253.271 267.639 253.197 267.796C252.488 269.3 250.579 272.453 251.693 274.245C252.593 275.694 255.022 274.946 256.33 275.289C258.749 275.925 258.541 278.823 258.541 280.756C258.541 283.864 258.218 286.5 257.957 289.6C257.844 290.955 257.335 294.477 258.418 293.654C259.403 292.905 260.063 291.795 260.752 290.767C263.949 285.999 270.116 275.253 272.36 271.051C279.663 257.383 288.17 242.376 291.124 226.952C291.679 224.056 292.785 220.678 291.339 218.108C288.019 212.207 277.297 217.758 271.193 220.687C252.725 229.548 234.647 241.836 218.833 254.837C217.394 256.019 206.837 263.926 210.326 268.595C214.843 274.637 230.964 273.335 236.399 273.263C249.85 273.083 262.968 271.076 276.23 269.086C286.892 267.486 297.219 266.671 307.922 266.076" stroke="black" stroke-width="4" stroke-linecap="round"/>
</svg>
