<svg width="512" height="512" viewBox="0 0 512 512" fill="none" xmlns="http://www.w3.org/2000/svg">
<path d="M233.319 282.211C244.42 271.876 256.23 262.185 267.786 252.367C269.094 251.256 270.402 250.144 271.733 249.06C272.611 248.344 273.758 246.261 274.514 247.105C275.454 248.157 273.871 249.853 273.612 251.24C273.171 253.601 272.489 257.503 273.01 259.96C273.778 263.575 276.281 262.812 278.949 263.531C282.858 264.583 279.679 269.489 278.686 271.612C277.788 273.532 275.506 276.798 276.769 279.054C277.627 280.586 279.18 280.974 280.415 279.655C284.56 275.227 287.568 268.653 290.15 263.343C292.345 258.827 296.22 250.014 297.817 245.076C298.413 243.236 300.442 236.396 299.17 233.8C295.762 226.843 280.8 231.363 276.807 232.409C259.162 237.032 241.252 244.703 225.577 254.059C221.104 256.728 215.716 260.402 212.797 264.921C208.702 271.261 221.59 270.151 224.073 269.958C242.139 268.552 259.048 261.238 277.295 261.238" stroke="black" stroke-width="4" stroke-linecap="round"/>
</svg>
