<svg width="512" height="512" viewBox="0 0 512 512" fill="none" xmlns="http://www.w3.org/2000/svg">
<path d="M229.032 281.386C227.078 281.386 231.98 278.818 233.468 277.552C240.7 271.395 247.879 265.177 255.08 258.984C257.886 256.571 262.762 252.316 265.98 249.813C266.851 249.135 269.055 247.32 268.987 248.422C268.809 251.271 256.449 271.484 261.958 272.064C264.898 272.374 268.301 269.195 271.167 270.41C275.95 272.44 273.996 282.703 274.888 286.685C275.44 289.154 277.655 287.658 278.721 286.422C284.862 279.307 288.933 268.804 292.854 260.563C296.835 252.196 304.189 240.133 304.731 230.343C305.527 215.966 279.074 230.333 276.316 231.697C259.476 240.023 243.464 250.451 228.093 261.202C220.861 266.26 200.938 278.98 209.676 280.22C230.557 283.185 252.07 274.81 273.008 275.973" stroke="black" stroke-width="4" stroke-linecap="round"/>
</svg>
