<svg width="512" height="512" viewBox="0 0 512 512" fill="none" xmlns="http://www.w3.org/2000/svg">
<path d="M218.302 272.683C226.856 264.74 236.462 257.784 245.74 250.733C246.458 250.187 254.049 243.336 256.227 243.554C256.669 243.598 251.538 252.778 251.303 253.214C248.357 258.684 247.638 260.82 254.047 261.295C262.73 261.938 250.786 289.287 267.841 280.576C281.193 273.757 290.578 255.923 297.233 243.366C298.19 241.562 303.351 233.727 299.977 231.263C296.991 229.083 291.592 230.272 288.814 230.812C279.14 232.693 271.31 235.729 262.128 239.683C246.109 246.579 228.868 254.576 214.92 265.241C202.653 274.62 222.872 270.56 225.369 270.203C241.856 267.84 259.871 261.918 276.486 265.241" stroke="black" stroke-width="4" stroke-linecap="round"/>
</svg>
