<svg width="512" height="512" viewBox="0 0 512 512" fill="none" xmlns="http://www.w3.org/2000/svg">
<path d="M232.074 271.622C233.185 271.319 233.874 270.476 234.743 269.705C240.538 264.563 246.248 259.313 251.844 253.956C256.858 249.157 261.55 243.999 266.616 239.26C268.906 237.118 269.165 237.975 268.307 240.801C266.549 246.591 263.984 252.107 262.218 257.903C261.261 261.046 259.668 265.262 261.241 268.54C262.95 272.1 263.581 273.871 263.646 278.162C263.69 281.046 262.376 288.215 264.849 286.731C271.135 282.96 277.143 271.49 280.598 265.984C283.216 261.81 285.811 257.614 288.153 253.28C290.039 249.788 296.891 236.357 297.098 231.254C297.923 210.92 235.537 246.26 228.015 251.1C225.236 252.887 213.574 259.443 214.559 264.367C215.875 270.947 239.294 264.071 240.644 263.804C253.921 261.17 267.169 256.853 280.786 258.091" stroke="black" stroke-width="4" stroke-linecap="round"/>
</svg>
