<svg width="512" height="512" viewBox="0 0 512 512" fill="none" xmlns="http://www.w3.org/2000/svg">
<path d="M219.492 277.965C221.257 272.319 226.839 266.46 230.204 261.915C234.288 256.401 238.425 250.5 243.322 245.64C245.462 243.516 246.138 244.037 246.028 246.806C245.897 250.131 241.994 261.92 246.291 263.531C248.968 264.535 251.748 263.955 253.17 267.215C255.056 271.539 251.926 278.908 254.448 282.437C256.518 285.335 260.614 278.547 262.717 275.672C269.521 266.367 276.619 254.663 277.375 242.784C279.199 214.114 242.836 237.981 233.775 244.814C225.278 251.221 216.841 258.423 210.246 266.839C208.705 268.805 206.025 273.961 208.517 274.131C218.015 274.778 231.792 267.967 239.977 265.336C246.59 263.21 253.177 260.992 259.86 259.096C314.231 243.673 249.397 262.889 304.061 248.873" stroke="black" stroke-width="4" stroke-linecap="round"/>
</svg>
