<svg width="512" height="512" viewBox="0 0 512 512" fill="none" xmlns="http://www.w3.org/2000/svg">
<path d="M241.149 287.037C241.536 285.876 242.46 285.103 243.291 284.218C247.562 279.672 251.92 275.204 256.259 270.724C258.59 268.317 261.293 264.846 264.114 262.831C264.776 262.358 262.459 269.786 262.423 269.897C260.661 275.41 257.08 283.537 266.294 280.609C269.815 279.491 274.722 276.601 278.585 277.114C283.911 277.822 280.965 289.83 281.742 292.9C281.864 293.381 282.872 293.71 283.17 293.314C286.305 289.148 294.515 269.183 294.86 268.356C297.598 261.792 300.457 255.267 302.79 248.548C303.775 245.712 310.217 228.086 307.075 222.313C301.468 212.009 274.035 225.653 269.827 227.463C249.176 236.343 229.405 248.002 211.719 261.892C210.503 262.846 198.25 271.139 207.321 273.205C224.324 277.077 246.078 270.693 262.385 267.304C275.702 264.536 289.409 259.925 303.016 258.396C306.717 257.98 306.723 258.685 308.128 260.651" stroke="black" stroke-width="4" stroke-linecap="round"/>
</svg>
