<svg width="512" height="512" viewBox="0 0 512 512" fill="none" xmlns="http://www.w3.org/2000/svg">
<path d="M200.5 285.219C208.585 277.979 217.937 270.01 228.088 265.899C236.399 262.535 231.782 270.487 230.569 275.221C229.884 277.895 227.903 283.32 229.892 286.008C231.713 288.469 236.504 287.743 238.988 287.624C241.04 287.527 244.426 286.544 246.318 287.963C249.28 290.185 249.585 290.619 253.046 286.497C260.031 278.176 265.261 267.953 270.185 258.345C273.786 251.316 277.576 243.627 278.303 235.605C278.857 229.501 278.247 221.39 269.959 222.036C255.852 223.136 239.916 233.657 228.389 240.792C225.991 242.276 199.348 256.843 204.522 264.659C206.239 267.253 209.737 268.296 212.753 269.057C221.942 271.374 242.99 271.946 251.768 271.988C271.72 272.084 291.553 269.414 311.455 268.982" stroke="black" stroke-width="4" stroke-linecap="round"/>
</svg>
