<svg width="512" height="512" viewBox="0 0 512 512" fill="none" xmlns="http://www.w3.org/2000/svg">
<path d="M240.077 271.661C248.226 260.178 258.542 249.86 268.981 240.465C274.014 235.934 272.151 240.506 270.935 244.186C269.17 249.526 265.401 256.099 265.297 261.813C265.224 265.819 276.947 257.588 276.836 266.925C276.782 271.428 274.583 275.47 274.13 279.855C273.723 283.786 279.946 274.442 282.324 271.285C287.531 264.371 292.609 257.296 296.87 249.748C300.16 243.919 302.794 238.526 295.216 235.24C268.195 223.525 235.353 241.498 215.571 259.258C212.73 261.808 204.817 267.662 203.543 271.962C203.083 273.514 206.435 273.81 208.053 273.766C214.377 273.594 224.795 271.731 230.304 270.609C251.189 266.356 271.575 260.087 292.322 255.273C298.005 253.955 302.744 253.394 308.408 253.394" stroke="black" stroke-width="4" stroke-linecap="round"/>
</svg>
