<svg width="512" height="512" viewBox="0 0 512 512" fill="none" xmlns="http://www.w3.org/2000/svg">
<path d="M227.927 270.868C236.506 264.084 244.607 256.752 253.937 250.947C254.548 250.567 261.748 245.317 263.296 248.241C264.178 249.907 262.775 252.508 262.431 254.104C260.767 261.827 267.331 260.681 272.053 263.35C275.528 265.314 274.083 271.686 274.083 274.589C274.083 275.956 273.484 282.009 275.849 283.421C278.903 285.245 284.066 279.654 284.87 278.874C293.526 270.473 300.938 259.515 305.43 248.316C307.587 242.937 311.236 232.313 303.099 229.636C293.193 226.376 278.634 230.91 269.347 233.507C255.632 237.342 242.283 242.767 229.656 249.331C222.078 253.27 214.744 257.845 207.856 262.899C205.611 264.547 200.042 268.668 202.707 269.477C203.753 269.795 204.885 269.813 205.977 269.74C212.773 269.288 230.943 266.307 234.843 265.681C259.816 261.674 284.801 257.729 309.79 253.954" stroke="black" stroke-width="4" stroke-linecap="round"/>
</svg>
