<svg width="512" height="512" viewBox="0 0 512 512" fill="none" xmlns="http://www.w3.org/2000/svg">
<path d="M207.672 270.312C213.992 261.285 223.072 253.424 230.976 245.806C234.321 242.582 237.746 239.039 241.613 236.41C245.114 234.029 242.292 243.647 242.214 244.228C241.609 248.734 240.486 253.59 244.056 257.232C247.043 260.281 248.335 259.181 250.972 262.795C253.165 265.801 253.365 268.901 253.377 272.492C253.388 275.742 251.197 282.151 252.513 285.309C253.148 286.834 255.387 283.552 256.422 282.265C259.97 277.848 262.931 273.538 265.781 268.583C270.64 260.134 276.489 248.842 275.703 238.665C274.733 226.107 262.896 225.264 253.039 226.337C230.193 228.821 211.557 244.596 195.795 260.164C194.938 261.01 190.761 264.233 194.592 264.111C198.97 263.971 208.8 262.026 211.506 261.517C217.253 260.437 246.262 254.632 250.22 253.887C268.17 250.508 286.404 246.977 304.72 246.332C307.499 246.235 313.247 246.265 316.372 247.61C318.234 248.412 317.92 249.494 319.303 250.692" stroke="black" stroke-width="4" stroke-linecap="round"/>
</svg>
