<svg width="512" height="512" viewBox="0 0 512 512" fill="none" xmlns="http://www.w3.org/2000/svg">
<path d="M236.574 287.086C235.341 286.733 251.788 271.011 252.23 270.595C257.536 265.603 262.859 260.545 268.72 256.193C271.235 254.325 271.526 254.703 270.494 257.549C269.487 260.327 262.761 270.362 268.146 271.848C269.189 272.136 271.364 271.655 272.268 272.265C275.202 274.247 274.108 282.78 274.147 285.624C274.168 287.155 273.35 288.943 274.199 290.217C274.739 291.026 275.196 288.541 275.608 287.66C278.206 282.102 282.037 273.55 284.271 268.508C289.174 257.441 294.724 246.145 298.152 234.484C298.397 233.651 300.762 225.006 298.987 223.212C295.603 219.794 289.22 224.452 285.001 226.761C268.354 235.871 252.902 247.606 237.409 258.489C236.096 259.412 203.815 277.646 214.761 282.754C221.687 285.986 231.339 285.034 238.662 284.79C247.98 284.479 257.321 283.818 266.632 283.328" stroke="black" stroke-width="4" stroke-linecap="round"/>
</svg>
