<svg width="512" height="512" viewBox="0 0 512 512" fill="none" xmlns="http://www.w3.org/2000/svg">
<path d="M242.264 277.551C241.631 277.551 242.032 277.589 242.629 277.291C248.073 274.568 252.941 269.877 257.815 266.332C261.874 263.379 266.886 258.906 271.8 257.2C274.072 256.411 270.954 261.974 270.026 264.192C268.421 268.028 261.452 282.443 270.443 280.787C272.404 280.426 274.126 279.638 274.514 282.352C274.654 283.336 274.213 292.965 275.453 291.537C278.577 287.941 280.971 282.424 283.072 278.282C289.321 265.963 294.95 253.147 299.458 240.083C300.908 235.881 303.853 228.486 302.797 223.802C300.686 214.432 278.937 227.825 276.184 229.333C263.244 236.422 251.289 245.262 239.342 253.86C232.824 258.551 224.594 264.52 217.998 269.411C217.497 269.782 210.512 274.598 209.284 276.612C207.253 279.942 216.657 279.649 220.555 279.743C240.927 280.237 261.382 278.493 281.715 277.551" stroke="black" stroke-width="4" stroke-linecap="round"/>
</svg>
