<svg width="512" height="512" viewBox="0 0 512 512" fill="none" xmlns="http://www.w3.org/2000/svg">
<path d="M229.993 287.587C235.758 277.594 244.13 268.867 251.91 260.451C253.747 258.464 259 252.709 258.172 255.285C257.326 257.919 255.579 260.242 254.624 262.852C252.828 267.759 252.4 271.369 258.172 270.68C266.19 269.722 260.239 289.011 270.279 281.899C278.208 276.283 284.373 266.436 289.378 258.364C293.789 251.252 298.336 243.125 299.711 234.725C300.101 232.343 300.29 224.349 295.849 224.027C293.321 223.844 290.77 224.625 288.387 225.488C276.809 229.679 259.231 239.349 249.51 244.64C241.869 248.798 234.198 252.917 226.757 257.425C221.601 260.549 208.659 266.399 213.607 269.845C215.739 271.329 218.744 270.649 221.33 270.888C226.932 271.407 232.866 271.484 238.499 271.567C245.649 271.672 254.196 270.293 260.99 272.558" stroke="black" stroke-width="4" stroke-linecap="round"/>
</svg>
