<svg width="512" height="512" viewBox="0 0 512 512" fill="none" xmlns="http://www.w3.org/2000/svg">
<path d="M217.209 278.968C229.287 270.704 239.525 260.195 250.659 250.789C258.684 244.009 255.064 255.927 254.99 261.017C254.841 271.422 261.813 262.569 264.018 266.705C265.745 269.942 264.695 274.265 265.323 277.716C266.596 284.718 277.511 265.855 277.534 265.818C279.379 262.874 298.926 230.595 288.597 228.35C281.086 226.717 271.448 231.153 265.114 234.403C251.324 241.479 240.23 252.781 229.107 263.313C223.569 268.557 213.774 275.413 210.112 282.465C209.206 284.209 214.031 283.64 215.957 283.247C224.323 281.541 233.493 278.767 241.527 276.359C261.443 270.391 281.012 262.849 301.747 261.121" stroke="black" stroke-width="4" stroke-linecap="round"/>
</svg>
