<svg width="512" height="512" viewBox="0 0 512 512" fill="none" xmlns="http://www.w3.org/2000/svg">
<path d="M222.763 277.466C220.987 277.244 223.898 273.93 225.163 272.665C227.05 270.779 233.17 262.901 236.279 263.116C237.944 263.231 234.518 274.375 234.452 274.648C233.78 277.424 231.107 284.003 233.147 286.859C235.996 290.847 243.749 284.589 245.828 283.207C248.641 281.336 253.941 275.628 257.987 276.423C261.1 277.034 261.098 280.568 261.223 282.841C261.351 285.172 258.672 290.653 260.857 289.834C262.792 289.108 266.759 270.609 266.911 270.056C269.863 259.323 272.624 248.52 274.529 237.545C274.827 235.829 278.289 223.329 272.964 222.569C266.44 221.637 257.542 230.449 253.656 233.997C243.357 243.4 234.001 254.012 224.746 264.42C222.132 267.36 219.557 270.335 217.023 273.344C214.745 276.047 208.727 281.093 211.909 282.632C213.851 283.572 216.236 283.034 218.379 282.789C223.717 282.179 243.748 277.911 248.124 277.049C265.791 273.569 282.843 272.267 300.726 270.891" stroke="black" stroke-width="4" stroke-linecap="round"/>
</svg>
