<svg width="512" height="512" viewBox="0 0 512 512" fill="none" xmlns="http://www.w3.org/2000/svg">
<path d="M234.322 278.384C231.588 275.195 240.416 264.52 241.941 262.52C244.253 259.487 256.432 242.706 252.534 255.632C251.709 258.367 249.934 261.997 249.977 264.921C250.023 268.068 260.264 263.283 261.144 263.042C263.976 262.267 269.277 260.459 271.268 263.981C272.077 265.413 271.249 275.349 273.982 274.522C278.533 273.147 282.299 264.861 284.105 261.163C286.499 256.265 288.108 250.945 286.61 245.508C280.885 224.729 247.196 236.925 235.574 244.673C229.64 248.63 224.122 253.446 218.667 258.032C217.376 259.117 211.613 262.533 216.318 262.729C226.695 263.161 237.458 261.554 247.681 260.224C264.222 258.071 280.717 255.908 297.256 253.962" stroke="black" stroke-width="4" stroke-linecap="round"/>
</svg>
