<svg width="512" height="512" viewBox="0 0 512 512" fill="none" xmlns="http://www.w3.org/2000/svg">
<path d="M217.15 275.777C226.74 274.905 236.317 265.203 243.763 260.018C247.546 257.383 252.388 253.119 256.914 251.459C258.569 250.853 255.682 268.996 255.661 269.306C255.563 270.805 253.594 283.707 259.732 282.144C262.573 281.42 265.484 278.415 268.081 277.03C273.155 274.324 271.503 278.848 276.326 271.707C280.539 265.47 298.462 239.272 289.164 232.047C283.146 227.371 271.921 230.241 265.733 231.942C254.142 235.13 242.893 240.533 232.231 246.032C229.761 247.306 211.387 258.562 218.715 262.731C225.364 266.514 238.529 264.686 245.329 264.401C261.919 263.706 278.561 262.09 295.113 260.748" stroke="black" stroke-width="4" stroke-linecap="round"/>
</svg>
