<svg width="512" height="512" viewBox="0 0 512 512" fill="none" xmlns="http://www.w3.org/2000/svg">
<path d="M241.29 289.781C246.358 289.218 254.118 279.664 257.363 276.631C262.022 272.278 266.121 267.451 270.67 263.011C273.888 259.87 271.601 264.803 271.244 265.881C268.407 274.454 269.082 278.092 277.819 279.866C281.535 280.621 279.921 293.212 281.942 292.808C284.771 292.242 289.066 281.152 289.404 280.388C295.546 266.514 301.55 251.52 303.389 236.345C304.561 226.678 303.08 216.213 290.656 220.481C276.016 225.511 261.874 238.179 249.796 247.199C237.268 256.555 224.504 265.936 212.693 276.214C211.32 277.409 204.066 282.916 210.867 281.484C221.904 279.161 232.624 275.489 243.691 273.187C257.985 270.213 271.908 269.175 286.377 268.177" stroke="black" stroke-width="4" stroke-linecap="round"/>
</svg>
