<svg width="512" height="512" viewBox="0 0 512 512" fill="none" xmlns="http://www.w3.org/2000/svg">
<path d="M238.568 278.036C236.644 277.211 257.807 252.263 259.859 250.117C263.737 246.063 268.595 241.021 274.053 239.002C279.911 236.836 274.877 246.425 274.367 247.56C272.253 252.262 269.768 256.839 268.157 261.754C266.536 266.697 269.116 263.586 271.809 264.207C279.998 266.097 267.895 287.833 278.332 278.662C284.403 273.328 290.357 267.454 295.397 261.128C299.798 255.604 308.182 244.681 304.79 236.915C302.349 231.327 293.497 229.594 288.247 229.505C272.276 229.232 256.82 240.885 244.517 249.543C234.101 256.874 224.332 265.056 214.72 273.392C213.562 274.396 200.586 283.676 209.763 282.211C222.731 280.14 235.445 275.445 248.066 271.983C265.368 267.236 281.933 265.275 299.624 263.007" stroke="black" stroke-width="4" stroke-linecap="round"/>
</svg>
