<svg width="512" height="512" viewBox="0 0 512 512" fill="none" xmlns="http://www.w3.org/2000/svg">
<path d="M211.22 277.916C215.873 270.704 221.662 264.185 226.98 257.46C232.318 250.709 229.398 261.711 229.276 265.496C229.204 267.752 228.245 274.192 230.372 276.142C232.016 277.648 234.889 274.848 236.477 274.68C239.564 274.356 239.434 279.13 240.809 280.734C244.674 285.243 250.026 274.592 250.985 273.011C255.646 265.318 259.368 256.915 263.091 248.745C264.504 245.645 270.317 236.376 266.849 232.411C263.644 228.749 255.433 230.113 251.611 231.002C242.552 233.111 235.227 239.194 228.441 245.249C222.452 250.593 206.345 262.662 205.01 271.758C204.869 272.72 206.184 273.627 207.15 273.741C210.294 274.112 227.929 270.793 228.337 270.714C254.668 265.642 280.382 259.387 307.03 256.312" stroke="black" stroke-width="4" stroke-linecap="round"/>
</svg>
