<svg width="512" height="512" viewBox="0 0 512 512" fill="none" xmlns="http://www.w3.org/2000/svg">
<path d="M235.193 292.006C233.933 292.793 234.644 291.177 235.036 290.286C237.991 283.581 242.102 277.264 245.932 271.049C246.61 269.948 261.249 249.863 261.259 249.883C263.558 254.836 258.913 263.977 259.069 269.381C259.119 271.103 260.246 271.087 261.572 271.466C266.869 272.98 264.824 283.131 264.647 286.741C264.527 289.193 264.215 291.637 264.178 294.092C264.127 297.543 264.321 298.679 266.159 294.821C270.497 285.717 273.621 275.723 276.846 266.201C281.65 252.019 288.561 235.976 289.619 220.898C290.736 204.983 270.976 223.59 269.027 225.068C256.495 234.569 244.396 244.716 232.586 255.097C232.236 255.404 221.79 263.378 222.003 265.836C222.392 270.301 275.601 268.503 279.297 268.547" stroke="black" stroke-width="4" stroke-linecap="round"/>
</svg>
