<svg width="512" height="512" viewBox="0 0 512 512" fill="none" xmlns="http://www.w3.org/2000/svg">
<path d="M233.804 281.94C239.478 273.835 247.336 266.198 255.595 260.775C257.486 259.533 262.011 256.258 264.666 256.604C265.945 256.771 265.046 259.277 265.188 259.941C266.193 264.666 275.258 257.802 277.491 259.941C283.375 265.574 265.543 288.401 272.278 283.817C277.099 280.536 281.195 273.758 284.164 269.116C291.323 257.922 299.318 245.415 303.974 232.936C310.044 216.666 292.226 225.67 285.467 228.974C265.671 238.652 247.845 251.794 230.676 265.467C225.086 269.918 210.401 279.22 206.747 286.528C204.688 290.647 216.038 287.598 220.562 286.737C245.086 282.065 269.115 276.885 293.86 273.495" stroke="black" stroke-width="4" stroke-linecap="round"/>
</svg>
