<svg width="512" height="512" viewBox="0 0 512 512" fill="none" xmlns="http://www.w3.org/2000/svg">
<path d="M238.563 269.216C237.463 267.381 249.139 259.337 250.241 258.476C253.246 256.128 256.285 253.331 259.625 251.438C262.529 249.793 259.169 257.407 259.103 257.59C257.137 263.08 253.759 266.881 259.833 269.58C263.167 271.062 264.773 273.66 265.672 277.14C265.772 277.528 265.664 283.536 266.61 282.353C274.593 272.375 278.778 257.79 283.084 246.069C283.294 245.498 290.016 230.871 286.942 229.491C282.433 227.466 277.347 232.206 273.023 234.6C263.384 239.935 255.306 245.397 246.227 251.699C236.108 258.723 225.981 265.998 216.355 273.699C216.25 273.783 208.301 279.026 212.966 279.642C220.457 280.631 230.628 276.726 237.312 274.742C258.431 268.47 279.454 261.663 300.496 255.14" stroke="black" stroke-width="4" stroke-linecap="round"/>
</svg>
