<svg width="512" height="512" viewBox="0 0 512 512" fill="none" xmlns="http://www.w3.org/2000/svg">
<path d="M217.5 278.969C227.321 273.24 236.034 264.954 244.609 257.595C246.45 256.015 248.26 254.399 250.083 252.799C251.345 251.69 252.681 248.569 253.993 249.618C255.9 251.144 251.667 253.915 250.448 256.031C249.429 257.799 240.528 270.908 245.026 271.462C247.054 271.712 249.84 271.145 251.334 273.026C254.459 276.962 250.751 284.317 254.879 287.727C262.573 294.083 291.595 237.408 293.665 230.277C297.549 216.9 276.075 228.9 273.803 229.965C256.71 237.974 240.079 247.877 224.434 258.429C205.906 270.924 234.927 264.755 241.064 263.538C253.44 261.083 265.676 257.941 278.078 255.614C284.748 254.362 286.966 254.446 292.57 256.448" stroke="black" stroke-width="4" stroke-linecap="round"/>
</svg>
