<svg width="512" height="512" viewBox="0 0 512 512" fill="none" xmlns="http://www.w3.org/2000/svg">
<path d="M229.12 275.324C234.005 267.299 242.402 260.673 249.764 255.097C259.538 247.694 255.123 252.575 253.934 258.433C252.768 264.182 261.408 259.671 263.631 259.997C267.957 260.632 265.907 278.759 266.655 278.452C268.811 277.568 272.192 271.873 273.328 270.372C276.521 266.149 279.504 261.824 281.877 257.078C284.293 252.248 294.003 231.042 280.522 234.348C268.106 237.394 255.93 245.977 245.228 252.438C243.926 253.224 216.465 267.426 218.067 272.613C219.699 277.893 250 273.551 251.589 273.447C265.699 272.531 279.755 272.198 293.868 271.571" stroke="black" stroke-width="4" stroke-linecap="round"/>
</svg>
