<svg width="512" height="512" viewBox="0 0 512 512" fill="none" xmlns="http://www.w3.org/2000/svg">
<path d="M229.918 280.026C235.136 273.615 241.042 267.288 247.747 262.406C253.836 257.971 252.309 261.154 250.979 266.472C248.86 274.947 251.022 279.104 260.05 276.481C263.642 275.438 265.586 275.587 269.121 275.386C275.879 275.004 280.921 267.45 284.135 262.353C286.066 259.292 300.401 234.244 293.675 232.429C285.862 230.321 272.136 236.524 265.785 239.155C249.937 245.719 235.017 254.388 220.794 263.917C216.393 266.866 203.458 274.08 208.752 274.292C210.611 274.366 212.422 273.656 214.226 273.197C219.417 271.877 244.801 264.536 246.652 264.022C262.624 259.585 278.745 254.922 295.187 252.5C298.919 251.951 301.552 251.954 304.988 252.813" stroke="black" stroke-width="4" stroke-linecap="round"/>
</svg>
