<svg width="512" height="512" viewBox="0 0 512 512" fill="none" xmlns="http://www.w3.org/2000/svg">
<path d="M231.95 269.791C234.924 271.143 241.362 261.703 243.107 259.99C244.344 258.775 252.211 251.745 248.581 257.644C246.646 260.789 244.703 264.065 243.107 267.393C240.102 273.656 245.165 271.834 249.467 270.312C254.251 268.62 261.253 264.453 266.462 267.393C270.373 269.601 266.784 275.219 268.026 276.151C268.755 276.698 287.934 246.367 288.462 242.891C289.723 234.582 276.038 235.935 271.884 236.322C257.038 237.705 242.959 244.886 230.178 252.066C228.962 252.749 214.628 259.715 215.007 263.222C215.469 267.489 240.337 265.512 242.377 265.464C260.121 265.044 279.548 262.002 296.699 266.038" stroke="black" stroke-width="4" stroke-linecap="round"/>
</svg>
