<svg width="512" height="512" viewBox="0 0 512 512" fill="none" xmlns="http://www.w3.org/2000/svg">
<path d="M242.561 276.457C246.791 268.915 250.692 259.36 256.95 253.102C257.893 252.159 257.548 258.134 257.68 258.889C258.238 262.099 264.877 259.059 267.063 261.547C269.586 264.418 266.851 281.032 273.945 274.476C280.068 268.817 284.591 260.761 288.386 253.467C290.416 249.564 294.99 241.576 294.276 236.628C293.255 229.544 241.898 258.051 237.609 260.244C228.967 264.662 220.243 268.87 211.282 272.599C210.281 273.016 209.26 273.383 208.258 273.798C206.528 274.516 206.473 274.531 208.78 274.268C241.08 270.576 273.09 264.921 305.433 261.443" stroke="black" stroke-width="4" stroke-linecap="round"/>
</svg>
