<svg width="512" height="512" viewBox="0 0 512 512" fill="none" xmlns="http://www.w3.org/2000/svg">
<path d="M228.723 281.273C239.924 272.945 249.668 262.723 260.628 254.06C262.37 252.684 266.082 248.945 268.552 248.482C269.261 248.349 266.275 255.064 266.258 255.103C265.391 257.128 263.765 260.072 263.86 262.401C263.908 263.559 268.277 265.761 268.969 267.302C270.41 270.507 269.794 275.023 271.628 277.937C273.147 280.349 279.464 271.762 279.604 271.577C285.163 264.218 290.201 256.296 294.827 248.326C297.065 244.47 300.358 239.406 300.092 234.615C299.311 220.558 260.868 246.958 259.481 247.804C244.272 257.087 227.612 266.026 213.813 277.416C208.419 281.868 211.585 281.397 216.576 280.804C223.117 280.028 237.642 276.826 243.164 275.695C262.418 271.752 281.4 268.648 300.978 267.198" stroke="black" stroke-width="4" stroke-linecap="round"/>
</svg>
