<svg width="512" height="512" viewBox="0 0 512 512" fill="none" xmlns="http://www.w3.org/2000/svg">
<path d="M216.527 270.156C224.477 266.711 230.296 259.52 238.371 256.185C242.825 254.345 239.715 265.424 243.323 267.445C248.91 270.574 250.505 268.236 252.864 274.587C253.578 276.51 255.806 282.206 258.65 279.488C265.873 272.586 270.084 259.448 274.29 250.659C276.909 245.185 279.4 239.654 281.797 234.08C283.228 230.754 280.865 231.54 277.522 231.682C254.327 232.672 229.523 239.117 209.125 250.346C207.575 251.199 199.649 254.672 200.575 258.166C202.468 265.308 220.982 264.232 224.66 264.213C247.975 264.089 271.159 260.84 293.996 256.393C300.911 255.047 304.826 254.332 311.304 255.142" stroke="black" stroke-width="4" stroke-linecap="round"/>
</svg>
