<svg width="512" height="512" viewBox="0 0 512 512" fill="none" xmlns="http://www.w3.org/2000/svg">
<path d="M231.102 284.106C231.347 283.001 232.04 282.579 232.82 281.677C237.719 276.012 242.089 269.915 246.625 263.962C251.377 257.725 252.221 255.256 252.431 263.962C252.623 271.955 256.767 266.991 261.673 268.998C265.815 270.692 262.81 290.107 263.154 294.237C263.321 296.242 265.519 290.939 266.294 289.082C273.187 272.582 279.201 255.704 285.135 238.842C287.385 232.446 290.37 225.596 291.948 218.935C292.601 216.178 290.85 218.019 288.63 219.29C281.607 223.313 270.569 230.477 264.636 234.339C250.846 243.314 236.045 252.117 223.519 262.896C217.066 268.448 220.22 271.135 227.073 272.967C243.46 277.349 260.547 272.524 276.959 271.309" stroke="black" stroke-width="4" stroke-linecap="round"/>
</svg>
