<svg width="512" height="512" viewBox="0 0 512 512" fill="none" xmlns="http://www.w3.org/2000/svg">
<path d="M224.378 286.562C233.657 275.798 242.203 264.412 251.868 253.977C253.865 251.82 256.794 247.964 259.629 246.63C260.63 246.159 258.523 253.657 258.504 253.74C257.738 257.022 256.76 260.641 256.845 264.048C256.924 267.201 260.119 267.621 261.703 269.973C263.936 273.287 265.067 277.381 265.139 281.348C265.143 281.568 264.16 288.276 264.725 288.102C267.413 287.275 272.817 277.186 273.315 276.372C281.061 263.711 288.442 250.642 294.526 237.091C299.225 226.625 300.884 220.407 287.06 226.249C267.509 234.512 247.648 245.869 230.539 258.479C225.218 262.401 219.201 266.937 214.839 271.987C211.032 276.396 221.342 274.299 222.6 274.18C234.928 273.012 247.226 271.515 259.57 270.566" stroke="black" stroke-width="4" stroke-linecap="round"/>
</svg>
