<svg width="512" height="512" viewBox="0 0 512 512" fill="none" xmlns="http://www.w3.org/2000/svg">
<path d="M230.894 272.474C225.985 272.474 239.369 267.487 243.336 264.594C250.054 259.696 250.911 258.864 249.379 268.564C249.14 270.078 245.912 289.683 248.786 284.086C251.142 279.499 254.643 268.635 261.287 269.334C267.245 269.961 265.938 274.332 269.404 264.417C272.599 255.278 276.063 245.614 277.343 235.978C279.075 222.942 270.806 225.826 262.413 230.113C251.581 235.646 241.149 242.087 230.776 248.42C228.425 249.855 211.119 258.064 210.513 262.402C210.244 264.332 214.146 263.965 216.082 264.18C222.276 264.865 234.051 265.322 239.544 265.365C260.697 265.527 280.467 262.402 301.279 259.677" stroke="black" stroke-width="4" stroke-linecap="round"/>
</svg>
