<svg width="512" height="512" viewBox="0 0 512 512" fill="none" xmlns="http://www.w3.org/2000/svg">
<path d="M215.475 269.303C221.885 263.351 228.763 257.81 235.501 252.24C240.856 247.812 241.928 245.968 242.136 252.832C242.28 257.575 244.666 257.094 248.653 257.572C253.339 258.134 248.37 272.093 254.578 270.725C260.971 269.316 265.856 258.028 268.086 253.069C269.416 250.112 274.529 238.393 272.589 234.703C269.165 228.191 211.272 268.917 203.981 274.398C198.266 278.694 206.439 277.774 209.373 277.42C227.3 275.256 245.031 270.81 262.635 266.933C278.214 263.503 294.952 258.639 310.388 258.639" stroke="black" stroke-width="4" stroke-linecap="round"/>
</svg>
