<svg width="512" height="512" viewBox="0 0 512 512" fill="none" xmlns="http://www.w3.org/2000/svg">
<path d="M219.357 283.062C223.989 278.431 228.833 273.84 234.169 270.028C241.07 265.099 242.36 266.14 242.819 273.109C243.328 280.846 248.597 277.126 253.601 276.545C259.555 275.855 254.542 295.064 263.436 289.698C273.971 283.343 281.389 267.507 286.779 257.29C290.395 250.438 300.158 234.343 297.325 225.356C292.121 208.847 241.623 244.238 235.472 249.055C227.116 255.6 218.511 262.668 211.181 270.384C209.448 272.208 205.316 276.508 210.589 277.256C221.502 278.805 234.503 276.661 245.248 276.071C264.698 275.005 284.148 274.333 303.605 273.465" stroke="black" stroke-width="4" stroke-linecap="round"/>
</svg>
