<svg width="512" height="512" viewBox="0 0 512 512" fill="none" xmlns="http://www.w3.org/2000/svg">
<path d="M222.923 280.051C224.647 274.449 230.782 269.167 234.298 264.647C239.99 257.328 237.853 264.152 237.853 270.453C237.853 273.6 234.893 294.736 242 288.583C244.452 286.46 248.749 278.4 252.842 280.703C261.218 285.414 266.48 256.863 267.357 253.805C269.188 247.425 275.223 231.844 272.334 224.359C269.806 217.808 251.419 230.606 250.058 231.469C246.89 233.477 199.634 266.395 205.504 271.164C208.132 273.299 211.854 273.768 215.221 274.126C226.567 275.336 248.961 273.91 259.774 273.06C275.795 271.8 291.416 269.142 307.171 266.187" stroke="black" stroke-width="4" stroke-linecap="round"/>
</svg>
