<svg width="512" height="512" viewBox="0 0 512 512" fill="none" xmlns="http://www.w3.org/2000/svg">
<path d="M225.693 284.981C228.102 272.458 233.467 261.068 240.268 250.381C246.033 241.322 243.976 250.498 243.586 256.306C243.328 260.144 240.763 269.263 247.437 268.392C252.623 267.716 254.659 279.134 258.16 274.495C266.494 263.453 274.214 246.585 275.934 232.726C278.252 214.053 242.166 246.875 239.972 248.663C231.056 255.928 222.524 263.672 213.37 270.644C212.925 270.982 202.832 278.959 203.535 279.293C207.49 281.172 212.068 277.267 216.214 275.857C235.896 269.163 232.245 269.965 253.658 262.941C272.069 256.902 290.046 252.67 308.875 248.722" stroke="black" stroke-width="4" stroke-linecap="round"/>
</svg>
