<svg width="512" height="512" viewBox="0 0 512 512" fill="none" xmlns="http://www.w3.org/2000/svg">
<path d="M227.891 281.456C235.134 271.799 244.63 263.201 253.486 255.033C255.43 253.239 258.307 250.072 261.069 249.345C263.677 248.659 260.919 254.765 260.358 257.402C259.715 260.43 254.747 274.503 260.595 274.88C263.02 275.037 264.684 274.422 266.283 276.835C266.966 277.867 269.935 288.375 272.326 285.841C277.027 280.859 279.261 269.984 281.154 263.979C284.144 254.493 287.265 244.635 288.796 234.77C289.647 229.294 290.304 224.778 283.049 226.298C273.854 228.224 257.779 235.094 250.582 238.088C238.583 243.079 220.989 250.535 209.288 257.047C205.478 259.167 201.574 261.301 198.386 264.275C195.585 266.889 194.549 271.355 199.216 272.925C212.608 277.43 234.082 270.709 246.672 268.244C265.337 264.59 283.813 260.119 302.423 256.217C308.521 254.939 311.358 254.179 316.405 255.862" stroke="black" stroke-width="4" stroke-linecap="round"/>
</svg>
