<svg width="512" height="512" viewBox="0 0 512 512" fill="none" xmlns="http://www.w3.org/2000/svg">
<path d="M233.966 282.008C234.592 275.121 242.742 267.054 247.118 262.279C250.489 258.603 257.648 251.321 257.19 260.087C256.931 265.048 252.637 289.936 262.759 287.044C267.704 285.632 269.864 281.236 271.291 288.288C271.808 290.843 272.13 293.449 272.298 296.05C272.509 299.318 274.932 290.026 275.794 286.867C280.453 269.784 285.198 252.471 287.998 234.967C288.972 228.882 292.288 220.663 287.761 216.482C284.449 213.422 278.772 218.292 274.846 220.511C261.36 228.131 248.5 237.419 236.217 246.816C230.943 250.851 214.136 261.061 212.104 268.737C210.794 273.686 222.222 271.1 227.33 270.752C252.105 269.062 275.816 263.222 300.085 258.547" stroke="black" stroke-width="4" stroke-linecap="round"/>
</svg>
