<svg width="512" height="512" viewBox="0 0 512 512" fill="none" xmlns="http://www.w3.org/2000/svg">
<path d="M232.2 284.3C238.2 272.7 248.1 262.4 256.8 252.8C259.4 249.9 262.1 247.0 264.8 244.2C266.3 242.5 267.9 240.9 269.6 239.4C270.2 238.9 270.9 237.9 271.6 238.1C272.2 238.3 271.6 239.3 271.4 239.9C270.7 243.1 269.6 246.1 268.8 249.3C267.9 253.3 266.1 259.5 268.7 263.4C270.3 265.6 273.0 264.3 273.4 267.7C274.1 273.4 271.8 279.2 271.4 284.8C270.7 293.1 277.2 281.5 277.4 281.1C284.5 270.1 289.6 259.0 291.2 246.0C291.6 242.2 295.3 226.1 288.9 224.3C286.0 223.5 282.7 224.4 279.9 225.4C269.5 229.2 251.6 240.4 243.3 246.1C236.9 250.5 230.7 255.3 224.5 260.1C224.1 260.4 206.6 273.8 205.1 279.0C204.7 280.2 206.4 281.6 207.7 281.8C211.2 282.4 236.8 279.9 237.2 279.8C260.6 277.8 283.4 276.0 306.8 278.7" stroke="black" stroke-width="4" stroke-linecap="round"/>
</svg>
