<svg width="512" height="512" viewBox="0 0 512 512" fill="none" xmlns="http://www.w3.org/2000/svg">
<path d="M232 284C238 273 248 262 257 253C259 250 262 247 265 244C266 243 268 241 270 239C270 239 271 238 272 238C272 238 272 239 271 240C271 243 270 246 269 249C268 253 266 260 269 263C270 266 273 264 273 268C274 273 272 279 271 285C271 293 277 281 277 281C284 270 290 259 291 246C292 242 295 226 289 224C286 224 283 224 280 225C270 229 252 240 243 246C237 250 231 255 225 260C224 260 207 274 205 279C205 280 206 282 208 282C211 282 237 280 237 280C261 278 283 276 307 279" stroke="black" stroke-width="4" stroke-linecap="round"/>
</svg>
