<svg width="512" height="512" viewBox="0 0 512 512" fill="none" xmlns="http://www.w3.org/2000/svg">
<path d="M222.9 287.6C225.6 285.1 257.2 254.6 260.1 258.0C262.0 260.3 241.6 289.3 250.5 288.4C254.9 288.0 265.2 276.2 265.4 284.9C265.4 287.5 263.9 297.5 269.2 291.5C273.8 286.1 278.5 278.3 281.9 272.6C289.8 259.1 299.6 243.8 303.9 228.6C308.4 212.9 292.1 219.4 284.3 222.6C265.2 230.4 247.4 241.8 230.3 253.3C223.8 257.7 210.2 264.9 206.1 272.6C201.6 280.9 225.2 281.1 225.6 281.1C252.5 283.3 279.7 281.4 306.5 278.7" stroke="black" stroke-width="4" stroke-linecap="round"/>
</svg>
