<svg width="512" height="512" viewBox="0 0 512 512" fill="none" xmlns="http://www.w3.org/2000/svg">
<path d="M236.2 276.1C239.0 268.0 245.2 260.6 250.5 254.1C252.6 251.4 256.1 244.5 258.0 247.2C259.4 249.2 256.2 256.8 255.7 258.3C255.2 260.2 252.2 267.5 254.5 269.7C256.0 271.1 259.5 268.1 260.7 267.5C266.3 265.1 262.4 284.2 270.4 277.4C273.8 274.5 277.4 268.0 279.4 264.5C282.9 258.2 287.4 250.5 288.3 243.1C291.1 220.4 250.3 244.6 245.3 247.7C233.8 254.9 222.5 263.1 212.2 272.0C201.2 281.3 221.9 272.8 223.4 272.3C249.7 263.8 275.0 252.8 302.7 250.9" stroke="black" stroke-width="4" stroke-linecap="round"/>
</svg>
