<svg width="512" height="512" viewBox="0 0 512 512" fill="none" xmlns="http://www.w3.org/2000/svg">
<path d="M215.1 277.5C223.9 265.4 232.9 252.8 244.1 242.8C250.6 237.0 245.2 250.9 245.2 253.7C245.0 261.7 254.3 251.8 254.8 256.0C255.2 260.2 252.6 265.5 251.3 269.3C249.6 274.4 248.6 277.2 254.5 273.0C262.5 267.3 278.7 259.0 277.8 247.3C276.1 226.9 250.2 236.7 239.7 242.3C228.7 248.1 218.5 255.6 208.8 263.3C207.1 264.8 205.4 266.2 203.7 267.8C203.3 268.1 198.5 271.4 202.8 271.3C216.0 270.9 230.6 265.7 243.3 263.1C254.5 260.8 269.1 257.8 280.6 256.3C307.9 252.9 310.9 256.3 310.9 256.3" stroke="black" stroke-width="4" stroke-linecap="round"/>
</svg>
