<svg width="512" height="512" viewBox="0 0 512 512" fill="none" xmlns="http://www.w3.org/2000/svg">
<path d="M222.0 287.2C229.7 277.4 241.3 269.5 250.1 260.6C251.3 259.4 260.7 247.6 263.6 248.2C264.7 248.4 257.0 265.0 256.5 266.3C251.5 278.4 257.6 268.2 261.4 269.8C264.9 271.2 255.4 287.1 262.4 287.0C268.2 286.9 275.4 278.2 278.6 274.6C285.8 266.7 291.5 257.5 296.9 248.2C301.0 241.1 305.9 233.0 308.2 225.0C308.5 223.8 309.0 221.1 306.5 221.6C302.8 222.2 291.9 227.9 290.4 228.7C269.7 240.0 250.1 253.2 230.9 266.8C227.0 269.6 210.2 281.2 204.9 287.0C200.4 291.9 208.3 289.5 209.3 289.3C227.2 285.6 243.8 277.2 261.5 272.9" stroke="black" stroke-width="4" stroke-linecap="round"/>
</svg>
