<svg width="512" height="512" viewBox="0 0 512 512" fill="none" xmlns="http://www.w3.org/2000/svg">
<path d="M222 287C230 277 241 270 250 261C251 259 261 248 264 248C265 248 257 265 256 266C252 278 258 268 261 270C265 271 255 287 262 287C268 287 275 278 279 275C286 267 292 257 297 248C301 241 306 233 308 225C309 224 309 221 307 222C303 222 292 228 290 229C270 240 250 253 231 267C227 270 210 281 205 287C200 292 208 290 209 289C227 286 244 277 261 273" stroke="black" stroke-width="4" stroke-linecap="round"/>
</svg>
