<svg width="512" height="512" viewBox="0 0 512 512" fill="none" xmlns="http://www.w3.org/2000/svg">
<path d="M230 278C230 277 232 275 232 275C238 267 245 260 253 253C253 252 258 248 259 248C260 248 259 254 259 255C259 256 258 259 259 261C261 263 262 261 264 262C267 263 263 273 266 276C271 281 291 255 292 251C294 247 292 240 289 236C286 233 281 233 277 234C270 235 258 239 252 242C240 247 229 254 219 262C217 264 213 267 215 269C219 271 224 269 229 268C252 264 274 257 297 255" stroke="black" stroke-width="4" stroke-linecap="round"/>
</svg>
