<svg width="512" height="512" viewBox="0 0 512 512" fill="none" xmlns="http://www.w3.org/2000/svg">
<path d="M230.0 278.4C229.8 277.3 231.9 275.1 232.1 274.8C238.3 267.1 245.3 259.8 252.6 253.1C253.4 252.4 257.6 247.9 259.5 247.8C260.4 247.7 259.0 254.4 259.0 254.6C258.8 256.4 258.1 259.4 259.4 261.0C260.6 262.7 262.4 261.2 263.9 261.6C266.5 262.5 263.4 273.4 265.8 275.8C271.5 281.2 290.7 254.9 292.2 250.6C293.5 246.5 292.3 239.6 289.3 236.4C286.3 233.0 281.5 233.3 277.4 233.9C270.1 235.0 258.1 239.3 251.7 242.1C240.1 247.2 228.8 253.8 219.2 262.3C217.3 264.0 212.9 267.4 215.1 268.9C218.9 271.5 224.3 268.8 228.9 267.9C251.8 263.6 274.2 257.0 297.5 255.3" stroke="black" stroke-width="4" stroke-linecap="round"/>
</svg>
