<svg width="512" height="512" viewBox="0 0 512 512" fill="none" xmlns="http://www.w3.org/2000/svg">
<path d="M220.9 277.6C220.3 277.6 220.1 277.8 220.7 277.3C227.3 272.2 233.1 265.4 238.9 259.6C247.0 251.4 254.9 242.3 264.0 235.1C267.4 232.4 263.6 239.7 263.5 240.0C261.7 244.6 256.0 253.0 263.6 252.2C273.3 251.2 271.1 257.0 271.9 265.9C273.6 283.1 288.3 261.1 291.9 256.3C292.7 255.1 305.4 240.4 301.2 238.6C296.6 236.7 285.8 237.9 282.5 238.3C271.3 239.4 263.1 240.8 252.3 244.3C238.0 248.9 224.8 256.2 211.7 263.3C207.1 265.7 197.5 269.2 193.5 273.3C190.2 276.9 203.4 273.9 208.3 273.5C245.6 269.9 282.2 262.4 319.2 256.3" stroke="black" stroke-width="4" stroke-linecap="round"/>
</svg>
