<svg width="512" height="512" viewBox="0 0 512 512" fill="none" xmlns="http://www.w3.org/2000/svg">
<path d="M221 278C220 278 220 278 221 277C227 272 233 265 239 260C247 251 255 242 264 235C267 232 264 240 263 240C262 245 256 253 264 252C273 251 271 257 272 266C274 283 288 261 292 256C293 255 305 240 301 239C297 237 286 238 283 238C271 239 263 241 252 244C238 249 225 256 212 263C207 266 198 269 194 273C190 277 203 274 208 273C246 270 282 262 319 256" stroke="black" stroke-width="4" stroke-linecap="round"/>
</svg>
