<svg width="512" height="512" viewBox="0 0 512 512" fill="none" xmlns="http://www.w3.org/2000/svg">
<path d="M228 284C229 284 230 283 231 282C241 272 251 262 262 253C264 250 270 243 274 242C279 240 270 252 267 257C265 261 249 283 263 280C264 279 268 278 268 280C268 282 266 288 270 285C286 275 295 257 296 238C296 235 297 225 290 226C284 227 270 237 267 239C256 246 239 259 229 267C224 270 220 274 216 277C214 279 208 281 210 284C212 287 217 285 220 284C231 283 240 282 251 280C264 277 277 273 290 270C292 269 298 268 301 268C306 268 300 269 302 271" stroke="black" stroke-width="4" stroke-linecap="round"/>
</svg>
