<svg width="512" height="512" viewBox="0 0 512 512" fill="none" xmlns="http://www.w3.org/2000/svg">
<path d="M228.0 284.2C229.4 283.9 230.0 283.1 231.2 281.9C241.5 272.3 251.4 262.4 261.5 252.6C263.9 250.3 269.7 243.1 273.6 241.7C278.8 239.9 269.6 252.1 267.0 256.9C264.8 261.2 248.9 283.4 263.0 279.8C264.5 279.4 268.1 277.5 268.2 280.5C268.3 282.5 266.1 288.1 270.5 285.3C286.3 274.9 295.4 256.7 295.9 238.1C296.0 235.3 296.7 224.9 290.3 226.1C283.9 227.3 270.1 236.7 266.9 238.8C255.8 246.3 239.2 258.9 228.5 267.2C224.4 270.4 220.3 273.7 216.3 277.0C213.9 278.9 208.0 281.3 209.9 283.8C211.9 286.6 217.0 284.8 220.5 284.5C231.2 283.5 240.2 281.8 250.8 279.6C263.9 276.9 276.7 273.3 289.6 270.0C291.6 269.4 298.2 267.6 301.0 267.8C306.1 268.2 299.6 269.2 302.1 270.7" stroke="black" stroke-width="4" stroke-linecap="round"/>
</svg>
