<svg width="512" height="512" viewBox="0 0 512 512" fill="none" xmlns="http://www.w3.org/2000/svg">
<path d="M215.8 281.8C215.4 280.4 220.8 275.4 221.3 274.8C227.3 267.9 232.7 260.4 238.8 253.6C249.3 242.0 243.3 258.8 243.4 265.3C243.5 271.8 259.5 254.9 260.2 255.9C262.1 258.3 257.5 275.4 263.2 273.5C276.5 269.0 289.4 249.0 292.3 235.8C296.0 219.2 246.0 243.2 242.4 245.0C240.3 246.1 194.0 266.9 201.9 274.9C207.5 280.5 232.3 271.2 236.7 270.2C261.5 264.3 286.0 259.2 311.1 255.4" stroke="black" stroke-width="4" stroke-linecap="round"/>
</svg>
