<svg width="512" height="512" viewBox="0 0 512 512" fill="none" xmlns="http://www.w3.org/2000/svg">
<path d="M233 278C233 278 233 279 234 278C238 277 243 273 247 271C252 267 260 260 266 259C270 259 265 268 263 271C261 274 254 287 256 290C258 293 268 287 270 286C270 285 275 281 275 284C275 289 272 293 272 298C272 299 272 299 272 300C274 300 275 298 276 296C288 281 297 263 306 246C307 242 323 218 315 213C311 211 301 214 298 215C287 220 271 230 262 236C251 243 223 262 212 269C208 272 203 275 199 279C198 280 195 281 195 283C195 284 243 275 243 275C261 271 278 266 296 262C300 261 303 262 306 262" stroke="black" stroke-width="4" stroke-linecap="round"/>
</svg>
