<svg width="512" height="512" viewBox="0 0 512 512" fill="none" xmlns="http://www.w3.org/2000/svg">
<path d="M233.3 277.9C233.3 278.2 233.3 278.5 233.8 278.4C238.0 277.3 243.2 272.7 246.6 270.6C251.9 267.3 259.7 260.4 266.2 259.5C270.3 258.9 264.6 267.7 262.8 271.4C261.5 274.2 253.5 286.5 256.1 289.9C258.2 292.8 267.9 286.6 269.9 285.5C270.4 285.3 275.5 281.2 275.2 283.9C274.8 288.8 272.2 293.4 272.1 298.4C272.1 298.8 272.1 299.4 272.4 299.6C274.1 300.0 275.4 297.6 276.5 296.3C288.2 281.0 296.9 262.8 305.6 245.8C307.3 242.5 322.9 217.8 314.9 213.3C310.9 211.0 300.8 214.3 298.0 215.4C287.0 219.8 271.1 229.9 261.9 235.8C251.2 242.6 223.2 261.5 212.3 269.1C207.8 272.3 203.3 275.4 198.9 278.8C197.5 279.9 195.1 280.8 195.0 282.6C194.9 284.3 242.6 275.2 243.2 275.1C260.9 271.2 278.2 265.6 296.0 262.2C299.6 261.5 302.7 261.6 306.2 261.8" stroke="black" stroke-width="4" stroke-linecap="round"/>
</svg>
