<svg width="512" height="512" viewBox="0 0 512 512" fill="none" xmlns="http://www.w3.org/2000/svg">
<path d="M232 285C233 287 249 277 250 277C258 271 266 265 274 260C277 258 280 255 283 254C284 253 281 255 280 256C278 258 257 280 261 281C263 282 266 280 267 279C270 279 271 280 272 283C279 292 299 248 300 244C305 235 310 224 294 228C283 230 259 239 250 243C239 247 227 253 217 259C214 260 212 262 210 263C208 264 204 266 205 268C208 270 212 268 216 268C223 267 230 266 238 265C261 260 284 253 307 248" stroke="black" stroke-width="4" stroke-linecap="round"/>
</svg>
