<svg width="512" height="512" viewBox="0 0 512 512" fill="none" xmlns="http://www.w3.org/2000/svg">
<path d="M232.3 284.7C232.5 286.6 249.2 277.0 249.7 276.7C258.2 271.4 266.2 265.4 274.4 259.6C277.2 257.6 280.0 255.3 283.0 253.6C284.1 253.0 281.2 255.3 280.2 256.1C278.0 258.0 256.8 279.7 261.1 281.0C262.9 281.6 265.5 279.9 267.2 279.5C270.4 278.8 270.5 280.3 272.1 282.5C278.6 291.7 298.7 247.6 300.4 244.0C304.6 234.9 310.3 224.4 294.0 227.6C282.9 229.7 259.4 238.8 249.8 242.8C239.2 247.3 227.2 253.1 216.9 258.8C214.5 260.1 212.2 261.6 209.9 263.0C208.1 264.2 203.8 266.0 205.3 267.6C207.7 270.1 212.3 268.4 215.8 268.1C223.4 267.4 230.0 266.2 237.6 264.6C260.9 259.8 283.9 253.2 307.1 247.9" stroke="black" stroke-width="4" stroke-linecap="round"/>
</svg>
