<svg width="512" height="512" viewBox="0 0 512 512" fill="none" xmlns="http://www.w3.org/2000/svg">
<path d="M208.9 291.1C221.3 282.1 232.9 271.7 244.4 261.6C249.2 257.5 253.7 252.8 258.8 249.0C263.4 245.7 258.3 256.1 258.2 256.4C256.5 260.9 254.6 265.8 254.0 270.7C253.6 274.7 255.8 273.6 258.5 274.0C266.2 275.3 256.5 294.9 262.8 295.2C267.7 295.4 275.3 283.0 276.5 281.4C286.9 267.4 297.1 253.1 306.1 238.2C308.3 234.5 315.1 224.1 313.6 218.8C310.9 209.2 269.8 232.6 268.8 233.1C248.8 243.2 228.9 254.0 210.1 266.1C208.4 267.1 200.1 272.0 198.3 275.5C196.9 278.1 201.0 277.9 201.7 277.9C210.6 278.5 220.4 276.6 229.1 275.5C246.4 273.2 263.8 271.1 281.2 269.2" stroke="black" stroke-width="4" stroke-linecap="round"/>
</svg>
