<svg width="512" height="512" viewBox="0 0 512 512" fill="none" xmlns="http://www.w3.org/2000/svg">
<path d="M209 291C221 282 233 272 244 262C249 257 254 253 259 249C263 246 258 256 258 256C257 261 255 266 254 271C254 275 256 274 258 274C266 275 257 295 263 295C268 295 275 283 277 281C287 267 297 253 306 238C308 235 315 224 314 219C311 209 270 233 269 233C249 243 229 254 210 266C208 267 200 272 198 276C197 278 201 278 202 278C211 279 220 277 229 275C246 273 264 271 281 269" stroke="black" stroke-width="4" stroke-linecap="round"/>
</svg>
