<svg width="512" height="512" viewBox="0 0 512 512" fill="none" xmlns="http://www.w3.org/2000/svg">
<path d="M222 290C222 291 222 290 223 290C227 284 233 279 238 275C241 272 244 268 248 266C252 264 250 267 249 270C248 274 237 291 248 290C250 289 256 287 256 291C256 292 255 297 256 296C261 293 266 287 269 283C281 269 291 253 300 238C301 237 312 220 308 217C304 214 297 219 292 221C278 228 263 238 250 246C235 255 219 265 205 276C199 280 208 280 211 280C236 280 260 275 285 273" stroke="black" stroke-width="4" stroke-linecap="round"/>
</svg>
