<svg width="512" height="512" viewBox="0 0 512 512" fill="none" xmlns="http://www.w3.org/2000/svg">
<path d="M222.1 289.9C222.1 290.5 222.0 290.4 222.7 289.5C227.5 284.4 232.5 279.5 237.7 274.7C240.9 271.7 244.3 268.4 248.2 266.0C252.3 263.5 250.4 267.4 249.5 269.6C247.6 273.9 237.1 290.9 248.1 289.7C250.5 289.4 255.7 287.4 256.3 291.3C256.4 292.0 255.4 297.0 256.5 296.3C261.2 293.0 265.7 287.0 269.3 282.7C280.8 268.7 291.0 253.4 300.1 237.8C300.8 236.6 312.0 220.4 307.8 217.1C303.6 213.8 297.0 218.7 292.3 221.1C278.0 228.0 262.8 237.6 249.6 245.9C234.7 255.3 218.7 264.9 204.8 275.9C199.1 280.4 208.5 280.0 211.0 280.0C235.6 279.8 260.1 274.7 284.7 273.1" stroke="black" stroke-width="4" stroke-linecap="round"/>
</svg>
