<svg width="512" height="512" viewBox="0 0 512 512" fill="none" xmlns="http://www.w3.org/2000/svg">
<path d="M233 283C234 282 235 281 236 280C242 274 249 268 255 262C261 257 266 252 271 248C275 245 274 247 273 249C272 252 267 260 269 263C272 265 270 277 272 277C274 278 278 273 279 272C287 264 294 256 300 247C300 247 316 227 310 224C305 222 290 231 290 231C278 237 265 245 253 252C237 262 222 271 208 281C204 284 195 289 205 288C232 286 257 277 283 277" stroke="black" stroke-width="4" stroke-linecap="round"/>
</svg>
