<svg width="512" height="512" viewBox="0 0 512 512" fill="none" xmlns="http://www.w3.org/2000/svg">
<path d="M233.1 283.3C233.7 282.0 234.9 281.0 235.9 280.0C242.2 273.8 248.8 267.8 255.3 261.8C260.6 256.9 265.8 252.0 271.5 247.5C275.1 244.7 273.8 246.9 272.7 249.5C271.7 251.8 266.9 260.1 269.4 262.6C271.9 265.1 269.7 276.9 272.1 277.3C274.5 277.7 278.4 273.2 279.5 272.1C286.9 264.5 293.6 255.9 299.8 247.2C300.1 246.7 315.7 226.9 309.8 224.3C305.4 222.3 290.3 230.9 290.3 230.9C277.5 237.3 264.8 244.9 252.7 252.3C237.5 261.5 222.2 271.0 207.6 281.2C204.1 283.7 194.8 288.9 205.4 287.9C231.5 285.5 257.3 276.9 283.5 276.9" stroke="black" stroke-width="4" stroke-linecap="round"/>
</svg>
