<svg width="512" height="512" viewBox="0 0 512 512" fill="none" xmlns="http://www.w3.org/2000/svg">
<path d="M237.7 293.6C248.1 278.6 259.9 263.5 272.6 250.3C273.4 249.4 278.5 244.2 276.2 249.3C274.6 252.9 272.1 256.5 271.6 260.6C271.2 263.4 272.7 264.4 275.2 264.6C278.4 264.9 278.3 265.3 277.7 269.1C276.7 275.4 274.7 281.5 274.0 287.8C273.8 289.8 274.4 290.9 276.3 289.0C284.1 281.1 288.6 269.0 293.2 259.1C296.6 251.9 300.0 244.5 303.4 237.2C305.5 232.7 308.1 228.5 309.7 223.8C313.9 211.3 291.8 222.7 289.5 223.8C268.1 233.9 248.0 247.4 228.0 259.9C225.1 261.7 208.3 272.3 204.1 275.6C200.8 278.1 200.2 279.3 204.7 278.7C220.8 276.3 236.6 270.6 252.3 266.7C264.7 263.6 277.2 261.4 290.0 261.4" stroke="black" stroke-width="4" stroke-linecap="round"/>
</svg>
