<svg width="512" height="512" viewBox="0 0 512 512" fill="none" xmlns="http://www.w3.org/2000/svg">
<path d="M238 294C248 279 260 263 273 250C273 249 279 244 276 249C275 253 272 257 272 261C271 263 273 264 275 265C278 265 278 265 278 269C277 275 275 281 274 288C274 290 274 291 276 289C284 281 289 269 293 259C297 252 300 245 303 237C305 233 308 228 310 224C314 211 292 223 289 224C268 234 248 247 228 260C225 262 208 272 204 276C201 278 200 279 205 279C221 276 237 271 252 267C265 264 277 261 290 261" stroke="black" stroke-width="4" stroke-linecap="round"/>
</svg>
