<svg width="512" height="512" viewBox="0 0 512 512" fill="none" xmlns="http://www.w3.org/2000/svg">
<path d="M226 280C234 272 242 264 251 257C252 257 257 252 259 253C260 254 252 267 252 267C250 272 241 288 254 283C256 282 260 279 264 279C265 279 264 283 265 282C269 277 272 272 275 267C280 260 285 253 289 245C290 242 295 234 293 230C289 224 269 235 266 237C254 243 242 250 230 258C223 262 216 266 210 272C209 272 207 273 208 273C209 274 211 274 213 274C218 273 223 273 228 272C253 269 279 266 304 263" stroke="black" stroke-width="4" stroke-linecap="round"/>
</svg>
