<svg width="512" height="512" viewBox="0 0 512 512" fill="none" xmlns="http://www.w3.org/2000/svg">
<path d="M225.9 279.5C234.0 271.8 242.3 264.0 251.1 257.1C251.7 256.6 257.1 251.7 258.6 252.7C260.5 254.0 252.5 266.6 252.1 267.3C249.6 272.2 240.6 288.3 253.6 283.0C256.2 282.0 260.5 278.7 263.6 279.0C264.9 279.2 263.7 282.6 264.5 281.7C268.5 277.2 271.8 271.6 275.1 266.7C279.8 259.7 284.6 252.6 288.6 245.1C290.1 242.1 295.4 233.7 293.0 229.9C288.8 223.6 269.4 234.9 265.9 236.7C253.7 243.1 241.9 250.4 230.2 257.6C223.3 261.9 215.7 266.2 209.5 271.5C208.8 272.1 206.9 273.0 207.7 273.5C209.0 274.4 210.9 273.8 212.5 273.7C217.7 273.4 222.9 272.7 228.0 272.1C253.4 269.1 278.7 265.8 304.0 262.7" stroke="black" stroke-width="4" stroke-linecap="round"/>
</svg>
