<svg width="512" height="512" viewBox="0 0 512 512" fill="none" xmlns="http://www.w3.org/2000/svg">
<path d="M234.5 275.4C242.1 265.3 252.9 256.6 262.6 248.6C262.9 248.3 268.9 242.8 266.3 247.3C263.5 252.2 260.3 257.1 258.5 262.4C254.7 273.1 269.8 266.8 273.3 272.3C274.7 274.6 272.5 279.9 273.6 281.2C274.0 281.6 274.4 280.6 274.8 280.2C276.2 278.7 278.7 275.9 279.8 274.6C287.8 265.4 302.1 251.5 300.0 237.7C296.8 216.9 238.5 247.5 230.2 251.4C225.8 253.4 215.2 256.9 211.7 261.2C210.5 262.6 215.4 261.7 217.3 261.4C222.8 260.6 234.3 258.2 239.1 257.2C255.5 253.7 272.0 248.2 288.7 246.3" stroke="black" stroke-width="4" stroke-linecap="round"/>
</svg>
