<svg width="512" height="512" viewBox="0 0 512 512" fill="none" xmlns="http://www.w3.org/2000/svg">
<path d="M226.8 284.8C235.5 274.4 244.4 263.0 254.7 254.2C258.5 251.0 258.1 253.8 257.0 257.0C255.1 262.0 250.8 268.2 251.6 273.7C252.7 281.9 263.2 273.1 264.8 276.6C267.0 281.3 262.5 290.3 261.3 294.7C260.2 298.7 260.1 300.0 263.0 294.8C266.8 288.2 273.5 274.3 276.2 268.1C280.5 258.3 304.5 209.8 275.6 214.3C265.3 215.9 255.2 221.5 246.4 226.6C237.0 232.1 227.4 238.2 219.2 245.4C216.5 247.8 209.0 254.4 209.5 258.9C210.2 265.2 232.4 261.5 232.7 261.4C256.1 259.6 279.4 255.1 303.0 255.1" stroke="black" stroke-width="4" stroke-linecap="round"/>
</svg>
