<svg width="512" height="512" viewBox="0 0 512 512" fill="none" xmlns="http://www.w3.org/2000/svg">
<path d="M209 280C207 280 215 272 216 271C220 267 224 262 229 258C231 256 238 248 236 256C235 261 225 282 234 284C237 284 240 282 243 283C244 284 244 292 247 290C253 284 258 273 261 266C266 256 271 245 273 234C274 230 274 222 267 222C260 222 248 228 243 231C231 238 217 248 206 255C203 257 199 260 196 262C194 264 191 265 191 267C191 268 195 267 197 267C205 265 218 262 225 260C244 256 262 251 281 249C294 247 308 247 321 247" stroke="black" stroke-width="4" stroke-linecap="round"/>
</svg>
