<svg width="512" height="512" viewBox="0 0 512 512" fill="none" xmlns="http://www.w3.org/2000/svg">
<path d="M208.8 280.0C207.1 280.0 215.3 271.6 215.8 271.1C220.0 266.6 224.3 262.0 228.9 257.8C230.7 256.2 238.3 248.1 236.5 256.1C235.4 260.8 225.3 282.3 234.3 283.9C236.8 284.3 240.2 282.0 242.5 283.0C244.4 283.9 244.1 292.1 247.0 289.7C253.3 284.4 257.8 272.9 261.2 265.9C266.0 255.8 270.9 245.1 272.8 234.0C273.6 229.8 274.1 221.9 267.2 222.0C259.7 222.2 247.8 228.5 242.6 231.4C231.4 237.6 216.6 247.5 206.0 254.9C202.5 257.3 199.1 259.9 195.7 262.4C194.0 263.7 190.7 264.5 191.0 266.6C191.3 268.5 194.8 266.9 196.6 266.6C204.7 265.1 218.1 261.7 225.2 260.0C243.5 255.7 261.9 251.1 280.7 248.8C294.2 247.1 307.5 247.1 321.1 247.1" stroke="black" stroke-width="4" stroke-linecap="round"/>
</svg>
