<svg width="512" height="512" viewBox="0 0 512 512" fill="none" xmlns="http://www.w3.org/2000/svg">
<path d="M244.6 266.7C247.0 265.0 274.8 244.2 276.1 246.9C278.8 252.7 251.9 280.5 263.2 284.4C267.4 285.9 273.6 280.7 276.6 278.7C278.9 277.2 287.0 269.5 290.2 270.2C293.5 271.0 287.1 282.2 295.7 278.0C308.4 271.8 318.6 253.3 318.1 239.4C317.0 208.5 253.7 244.7 246.0 248.6C230.0 256.9 212.9 265.5 198.1 276.0C180.0 288.9 220.8 280.8 220.8 280.8C253.3 275.7 285.5 268.3 317.9 262.6" stroke="black" stroke-width="4" stroke-linecap="round"/>
</svg>
