<svg width="512" height="512" viewBox="0 0 512 512" fill="none" xmlns="http://www.w3.org/2000/svg">
<path d="M228.7 291.7C231.8 282.6 237.5 273.8 243.1 266.2C245.6 262.8 248.3 259.2 251.3 256.1C253.2 254.2 250.1 261.4 249.2 264.0C247.4 269.0 238.8 288.6 251.8 282.5C253.7 281.7 258.3 277.5 260.8 278.5C263.4 279.6 262.4 286.2 262.5 288.4C262.7 292.3 265.5 287.0 266.2 285.9C272.2 277.1 277.7 267.9 282.9 258.7C288.2 249.2 293.9 239.3 297.5 228.9C298.5 226.1 300.4 220.7 297.5 220.1C294.1 219.3 282.5 225.8 281.8 226.2C263.7 236.2 246.4 248.1 229.6 260.2C227.5 261.6 211.9 272.3 208.7 277.5C208.3 278.2 208.5 279.8 209.4 280.1C211.8 280.8 214.3 280.1 216.8 279.8C246.0 277.0 274.8 268.9 303.6 263.7" stroke="black" stroke-width="4" stroke-linecap="round"/>
</svg>
