<svg width="512" height="512" viewBox="0 0 512 512" fill="none" xmlns="http://www.w3.org/2000/svg">
<path d="M229 292C232 283 237 274 243 266C246 263 248 259 251 256C253 254 250 261 249 264C247 269 239 289 252 283C254 282 258 278 261 279C263 280 262 286 263 288C263 292 265 287 266 286C272 277 278 268 283 259C288 249 294 239 298 229C299 226 300 221 298 220C294 219 282 226 282 226C264 236 246 248 230 260C228 262 212 272 209 277C208 278 209 280 209 280C212 281 214 280 217 280C246 277 275 269 304 264" stroke="black" stroke-width="4" stroke-linecap="round"/>
</svg>
