<svg width="512" height="512" viewBox="0 0 512 512" fill="none" xmlns="http://www.w3.org/2000/svg">
<path d="M240 288C247 277 255 267 264 257C270 250 266 257 265 262C263 266 261 271 261 275C262 279 265 278 267 278C272 279 272 282 272 286C272 289 270 296 273 295C276 294 281 285 281 284C291 269 301 252 307 236C309 232 310 227 310 223C310 213 299 219 295 220C271 230 249 247 229 262C223 266 218 270 213 274C210 277 207 279 204 282C203 283 202 284 202 285C202 286 204 285 205 285C213 283 220 281 228 279C253 272 277 268 302 266" stroke="black" stroke-width="4" stroke-linecap="round"/>
</svg>
