<svg width="512" height="512" viewBox="0 0 512 512" fill="none" xmlns="http://www.w3.org/2000/svg">
<path d="M240.5 287.5C246.9 276.8 255.1 266.5 263.5 257.3C270.1 250.1 266.3 257.4 264.6 261.8C263.1 265.7 260.7 270.6 261.3 274.9C261.8 278.5 264.7 277.8 267.3 278.1C271.6 278.6 271.6 282.3 271.9 286.1C272.1 289.2 269.7 296.3 272.7 295.3C275.6 294.4 280.7 285.1 281.4 284.0C291.0 268.8 300.7 252.5 307.2 235.7C308.7 231.5 310.5 227.2 310.4 222.8C310.3 212.6 298.8 218.6 294.9 220.2C271.2 229.9 249.4 246.6 228.9 261.7C223.4 265.8 218.1 270.1 212.8 274.4C209.7 276.8 206.7 279.3 203.9 282.1C203.1 282.8 201.6 283.9 202.1 284.9C202.5 285.8 204.1 285.1 205.1 284.9C212.9 283.3 220.4 280.5 228.1 278.6C252.6 272.3 277.0 267.7 302.2 266.1" stroke="black" stroke-width="4" stroke-linecap="round"/>
</svg>
