<svg width="512" height="512" viewBox="0 0 512 512" fill="none" xmlns="http://www.w3.org/2000/svg">
<path d="M212.6 287.6C220.1 279.4 227.2 270.8 235.3 263.1C238.1 260.4 241.7 254.9 241.2 261.2C241.0 265.0 238.5 274.7 243.3 276.1C250.2 278.2 249.0 293.1 257.1 284.7C266.1 275.4 273.0 263.1 279.8 252.2C284.0 245.2 290.1 236.6 291.7 228.2C292.7 222.8 287.7 224.5 284.8 225.8C270.1 232.1 256.2 241.3 242.6 249.7C231.9 256.4 220.8 263.1 210.9 270.9C210.1 271.6 208.1 272.1 208.6 273.0C209.1 274.1 211.0 273.4 212.2 273.4C216.1 273.2 220.1 272.8 224.0 272.4C250.2 269.9 277.1 264.7 303.2 267.8" stroke="black" stroke-width="4" stroke-linecap="round"/>
</svg>
