<svg width="512" height="512" viewBox="0 0 512 512" fill="none" xmlns="http://www.w3.org/2000/svg">
<path d="M248 286C248 286 248 286 248 286C249 283 253 278 255 276C256 274 278 247 279 250C281 252 278 258 277 259C274 267 268 276 269 284C270 295 286 277 289 282C290 284 290 287 290 289C291 293 295 283 297 279C304 266 311 252 314 238C315 232 317 224 309 222C300 221 285 227 279 230C259 239 241 250 223 262C220 265 208 274 203 277C201 279 198 281 198 283C197 290 277 283 285 282" stroke="black" stroke-width="4" stroke-linecap="round"/>
</svg>
