<svg width="512" height="512" viewBox="0 0 512 512" fill="none" xmlns="http://www.w3.org/2000/svg">
<path d="M248.3 285.7C248.3 285.8 248.2 286.5 248.3 286.0C249.3 282.6 253.0 278.4 254.8 275.8C256.0 274.2 277.8 247.1 279.5 250.1C280.6 252.1 277.7 257.9 277.1 259.2C274.3 266.6 268.3 276.0 269.1 284.1C270.1 295.4 285.9 277.1 288.9 281.7C290.3 283.8 290.1 286.5 290.3 288.9C290.7 292.9 295.4 282.8 297.1 279.2C303.7 266.1 311.0 252.2 313.9 237.7C315.1 231.9 317.1 223.9 308.7 222.3C300.1 220.6 285.5 227.3 279.2 230.0C259.4 238.7 241.0 250.0 223.2 262.4C219.5 264.9 207.6 273.8 203.2 277.4C201.1 279.1 197.8 280.5 197.5 283.2C196.8 289.9 276.7 283.1 285.3 282.4" stroke="black" stroke-width="4" stroke-linecap="round"/>
</svg>
