<svg width="512" height="512" viewBox="0 0 512 512" fill="none" xmlns="http://www.w3.org/2000/svg">
<path d="M227 282C227 281 228 279 229 278C234 270 240 263 245 256C249 251 253 246 257 241C260 237 257 244 257 244C256 248 248 261 252 264C255 267 260 267 263 271C267 276 265 282 267 287C270 293 275 288 277 285C285 275 291 262 296 250C298 245 306 231 303 225C300 221 293 223 290 223C279 226 270 230 260 235C245 243 228 253 214 265C204 273 207 277 219 279C247 282 276 275 304 272" stroke="black" stroke-width="4" stroke-linecap="round"/>
</svg>
