<svg width="512" height="512" viewBox="0 0 512 512" fill="none" xmlns="http://www.w3.org/2000/svg">
<path d="M226.6 282.3C227.1 280.6 228.1 279.2 229.1 277.8C234.2 270.4 239.5 263.1 244.9 255.9C248.7 250.7 252.5 245.6 256.5 240.6C259.7 236.7 257.1 243.7 256.9 244.3C255.7 248.1 248.4 261.0 252.2 264.3C255.4 267.2 259.7 267.2 262.7 271.0C266.7 275.9 265.2 281.7 267.3 287.2C269.6 292.9 274.5 287.6 276.7 284.9C285.1 274.6 290.9 261.7 296.2 249.6C298.1 245.1 305.9 231.2 302.7 225.4C300.3 221.0 293.4 222.8 290.3 223.4C279.4 225.7 270.2 230.1 260.3 235.2C244.5 243.3 227.7 253.0 214.1 264.6C204.1 273.2 206.8 277.5 219.2 279.0C247.0 282.3 276.3 274.6 304.0 271.6" stroke="black" stroke-width="4" stroke-linecap="round"/>
</svg>
