<svg width="512" height="512" viewBox="0 0 512 512" fill="none" xmlns="http://www.w3.org/2000/svg">
<path d="M220.2 286.7C220.5 287.6 221.6 286.2 221.9 285.9C229.4 280.0 237.0 274.0 244.7 268.3C248.6 265.5 253.0 261.7 257.5 259.9C260.3 258.7 257.6 266.1 256.5 268.9C254.4 274.5 242.4 298.4 256.9 297.1C261.7 296.7 265.9 294.2 270.5 293.3C272.4 292.9 274.2 296.0 274.7 295.8C279.3 294.1 285.5 278.4 286.5 276.3C291.8 265.5 295.5 257.0 299.6 245.7C301.9 239.4 305.5 229.7 305.7 222.5C306.0 209.4 291.0 215.7 284.0 218.3C258.9 227.8 234.4 241.8 212.4 257.1C210.0 258.8 203.9 263.4 206.8 263.9C217.0 265.7 228.5 264.4 238.9 264.5C258.8 264.6 279.4 264.1 298.4 270.2" stroke="black" stroke-width="4" stroke-linecap="round"/>
</svg>
