<svg width="512" height="512" viewBox="0 0 512 512" fill="none" xmlns="http://www.w3.org/2000/svg">
<path d="M220 287C221 288 222 286 222 286C229 280 237 274 245 268C249 265 253 262 258 260C260 259 258 266 257 269C254 275 242 298 257 297C262 297 266 294 271 293C272 293 274 296 275 296C279 294 286 278 287 276C292 266 296 257 300 246C302 239 305 230 306 222C306 209 291 216 284 218C259 228 234 242 212 257C210 259 204 263 207 264C217 266 229 264 239 264C259 265 279 264 298 270" stroke="black" stroke-width="4" stroke-linecap="round"/>
</svg>
