<svg width="512" height="512" viewBox="0 0 512 512" fill="none" xmlns="http://www.w3.org/2000/svg">
<path d="M246 290C252 282 258 274 263 265C265 263 265 258 267 258C268 259 265 272 265 273C265 277 263 284 264 288C266 293 273 289 275 287C280 285 284 285 286 290C286 292 286 300 288 296C292 287 295 279 298 270C303 255 309 237 309 221C309 213 303 215 297 216C273 224 250 241 230 255C221 261 211 267 204 275C197 283 212 284 217 285C240 288 263 285 285 284" stroke="black" stroke-width="4" stroke-linecap="round"/>
</svg>
