<svg width="512" height="512" viewBox="0 0 512 512" fill="none" xmlns="http://www.w3.org/2000/svg">
<path d="M245.8 289.8C252.5 282.1 258.4 273.8 263.3 265.0C264.6 262.8 264.6 257.8 267.1 258.4C267.8 258.6 265.5 272.2 265.4 272.5C264.8 277.0 262.7 283.5 264.2 288.1C265.8 292.9 272.8 288.6 275.4 287.4C280.1 285.3 283.7 284.8 285.8 290.4C286.3 291.7 286.3 299.5 288.0 295.8C291.8 287.4 294.9 278.6 297.7 269.9C302.6 254.9 309.0 237.4 309.3 221.3C309.5 213.3 303.0 214.5 297.2 216.3C272.7 224.1 250.3 240.5 229.5 255.2C221.5 260.9 211.1 267.4 204.4 275.0C197.3 283.0 212.2 284.4 216.7 284.9C239.5 287.5 262.5 285.1 285.4 284.0" stroke="black" stroke-width="4" stroke-linecap="round"/>
</svg>
