<svg width="512" height="512" viewBox="0 0 512 512" fill="none" xmlns="http://www.w3.org/2000/svg">
<path d="M234.8 283.8C237.3 277.2 244.8 271.3 249.5 266.4C253.4 262.4 257.3 257.2 261.9 254.0C263.6 252.9 262.2 258.0 262.1 260.0C261.8 262.9 261.2 268.2 264.5 269.9C267.5 271.5 270.9 269.7 273.5 272.5C276.6 275.8 275.6 280.4 275.8 284.4C275.8 285.0 275.6 286.1 276.2 286.1C279.1 285.8 279.9 281.6 281.4 279.0C284.7 273.2 306.5 228.0 293.3 225.7C284.4 224.1 271.1 233.3 264.6 237.3C252.8 244.4 241.8 252.7 231.1 261.3C226.1 265.3 221.3 269.5 216.9 274.2C210.3 281.5 218.7 279.2 225.5 277.6C248.9 272.3 271.7 263.2 295.8 261.5" stroke="black" stroke-width="4" stroke-linecap="round"/>
</svg>
