<svg width="512" height="512" viewBox="0 0 512 512" fill="none" xmlns="http://www.w3.org/2000/svg">
<path d="M235 284C237 277 245 271 250 266C253 262 257 257 262 254C264 253 262 258 262 260C262 263 261 268 265 270C267 271 271 270 274 273C277 276 276 280 276 284C276 285 276 286 276 286C279 286 280 282 281 279C285 273 306 228 293 226C284 224 271 233 265 237C253 244 242 253 231 261C226 265 221 269 217 274C210 282 219 279 225 278C249 272 272 263 296 262" stroke="black" stroke-width="4" stroke-linecap="round"/>
</svg>
