<svg width="512" height="512" viewBox="0 0 512 512" fill="none" xmlns="http://www.w3.org/2000/svg">
<path d="M216 283C220 283 223 278 225 276C228 273 258 241 263 245C264 246 261 252 261 252C258 259 254 268 254 275C255 280 261 278 264 278C270 277 273 276 275 283C275 284 276 290 279 287C285 282 289 272 292 265C296 256 304 243 299 233C290 218 269 225 258 231C244 239 230 250 218 261C213 265 209 269 205 274C205 274 201 278 204 279C212 281 228 275 235 273C248 270 262 266 274 263C325 252 262 266 309 257" stroke="black" stroke-width="4" stroke-linecap="round"/>
</svg>
