<svg width="512" height="512" viewBox="0 0 512 512" fill="none" xmlns="http://www.w3.org/2000/svg">
<path d="M216.4 282.9C219.6 282.9 223.0 277.9 224.8 276.1C228.0 273.0 258.2 240.8 262.8 244.7C263.8 245.5 260.8 252.2 260.8 252.3C258.4 258.9 254.0 267.5 254.3 274.7C254.6 279.5 261.4 277.7 264.1 277.5C270.4 277.1 273.3 276.4 274.9 282.9C275.2 284.4 276.0 289.5 279.0 287.0C285.1 281.9 289.2 271.9 292.4 265.1C296.5 256.5 303.6 243.1 298.5 233.2C290.4 217.6 269.2 225.3 258.2 231.4C243.9 239.3 230.4 249.9 218.1 260.6C213.2 264.8 209.1 268.6 205.2 273.7C205.1 273.9 201.1 278.0 204.2 278.9C212.2 281.1 228.2 274.9 234.9 273.1C247.7 269.8 261.6 265.6 274.5 262.8C325.5 251.5 262.5 266.1 309.4 257.4" stroke="black" stroke-width="4" stroke-linecap="round"/>
</svg>
