<svg width="512" height="512" viewBox="0 0 512 512" fill="none" xmlns="http://www.w3.org/2000/svg">
<path d="M230.9 275.7C233.8 275.4 239.7 269.8 240.7 268.9C254.5 257.8 267.7 243.9 283.3 235.4C290.6 231.5 284.9 242.8 284.3 244.3C279.5 256.2 273.0 267.5 268.5 279.5C268.0 280.9 261.0 298.3 266.0 296.6C267.7 296.1 267.5 297.6 268.3 298.4C270.5 300.6 277.7 290.9 278.0 290.5C285.4 281.4 291.4 271.2 296.4 260.6C299.0 254.9 317.4 219.9 305.8 214.3C297.1 210.1 276.6 223.4 270.7 226.5C251.2 236.9 232.2 248.3 213.7 260.5C210.3 262.7 205.4 265.5 202.6 268.7C198.6 273.5 215.2 267.6 221.3 266.3C248.3 260.6 275.0 255.6 302.6 255.6" stroke="black" stroke-width="4" stroke-linecap="round"/>
</svg>
