<svg width="512" height="512" viewBox="0 0 512 512" fill="none" xmlns="http://www.w3.org/2000/svg">
<path d="M231 276C234 275 240 270 241 269C254 258 268 244 283 235C291 231 285 243 284 244C279 256 273 267 268 280C268 281 261 298 266 297C268 296 267 298 268 298C271 301 278 291 278 291C285 281 291 271 296 261C299 255 317 220 306 214C297 210 277 223 271 227C251 237 232 248 214 260C210 263 205 265 203 269C199 273 215 268 221 266C248 261 275 256 303 256" stroke="black" stroke-width="4" stroke-linecap="round"/>
</svg>
