<svg width="512" height="512" viewBox="0 0 512 512" fill="none" xmlns="http://www.w3.org/2000/svg">
<path d="M217 284C218 285 218 284 218 284C220 281 223 279 226 276C229 274 232 272 234 271C236 270 236 274 236 275C235 280 233 287 241 285C243 284 246 283 248 283C251 283 251 286 254 282C261 272 265 259 267 247C267 246 272 231 267 227C263 224 251 232 250 232C236 239 224 248 212 257C207 260 199 265 195 270C194 271 193 272 194 273C195 275 200 274 201 274C212 273 229 270 239 268C260 265 281 260 303 260C306 260 312 260 315 261C320 263 315 262 318 263" stroke="black" stroke-width="4" stroke-linecap="round"/>
</svg>
