<svg width="512" height="512" viewBox="0 0 512 512" fill="none" xmlns="http://www.w3.org/2000/svg">
<path d="M217.4 284.4C217.5 284.8 217.7 284.4 217.9 284.2C220.4 281.3 223.4 278.8 226.3 276.4C228.8 274.4 231.5 271.9 234.4 270.5C236.4 269.5 235.6 274.3 235.6 274.9C235.4 280.4 233.5 287.2 241.3 284.8C243.2 284.2 245.5 282.9 247.7 283.1C250.8 283.4 251.1 286.1 254.2 281.8C261.1 272.2 264.5 258.8 267.0 247.4C267.4 245.6 271.5 231.2 267.0 227.4C262.7 223.9 250.7 231.7 249.5 232.3C236.4 239.3 224.2 247.9 212.2 256.5C206.6 260.5 199.1 264.8 194.6 270.1C194.1 270.8 193.0 272.4 193.8 273.2C195.3 275.0 199.9 273.7 200.6 273.6C211.5 272.5 228.9 269.6 238.6 268.1C259.7 264.8 281.1 260.5 302.5 259.9C306.1 259.8 311.7 260.1 315.4 261.4C319.9 262.8 315.5 261.8 318.1 263.4" stroke="black" stroke-width="4" stroke-linecap="round"/>
</svg>
