<svg width="512" height="512" viewBox="0 0 512 512" fill="none" xmlns="http://www.w3.org/2000/svg">
<path d="M231.7 270.2C241.8 263.9 251.5 256.9 261.4 250.3C262.9 249.3 267.0 245.9 269.2 245.7C271.5 245.6 268.1 250.3 267.3 252.4C265.5 257.1 260.8 267.5 264.7 272.3C266.1 274.0 269.0 272.9 270.7 272.9C273.7 272.9 274.9 274.0 277.0 275.9C282.8 281.1 290.3 264.8 291.0 261.5C293.4 249.3 285.7 239.6 273.8 236.6C260.1 233.2 245.2 238.4 233.0 244.2C226.2 247.4 219.7 251.1 213.7 255.6C207.6 260.1 202.1 265.8 214.2 266.2C230.6 266.8 247.6 262.6 263.4 259.1C277.2 256.1 291.0 253.3 304.7 250.3" stroke="black" stroke-width="4" stroke-linecap="round"/>
</svg>
