<svg width="512" height="512" viewBox="0 0 512 512" fill="none" xmlns="http://www.w3.org/2000/svg">
<path d="M228.7 281.7C234.8 275.6 240.4 269.1 246.4 262.9C252.8 256.1 249.5 262.8 248.4 267.4C246.8 274.2 250.0 271.2 254.0 271.5C257.4 271.8 249.7 292.0 254.9 286.2C264.8 275.2 269.4 257.7 274.1 244.1C274.8 242.0 280.7 228.3 277.9 225.5C277.0 224.6 275.4 225.1 274.3 225.6C268.7 227.7 257.9 235.8 254.2 238.5C244.0 245.9 232.0 253.8 224.1 263.8C217.1 272.6 225.9 271.6 232.2 270.0C251.8 265.2 269.9 259.0 290.2 258.2" stroke="black" stroke-width="4" stroke-linecap="round"/>
</svg>
