<svg width="512" height="512" viewBox="0 0 512 512" fill="none" xmlns="http://www.w3.org/2000/svg">
<path d="M238 268C241 268 246 262 249 260C250 259 276 238 276 239C277 240 272 248 272 248C270 253 268 258 267 263C267 266 268 270 271 271C274 272 279 269 281 272C282 275 281 284 286 284C294 285 304 265 306 260C311 252 323 235 306 230C300 228 293 228 286 228C266 229 253 233 235 241C222 247 209 256 200 266C194 272 198 273 204 272C221 269 237 263 253 259C262 256 269 254 278 254C289 253 291 255 301 256" stroke="black" stroke-width="4" stroke-linecap="round"/>
</svg>
