<svg width="512" height="512" viewBox="0 0 512 512" fill="none" xmlns="http://www.w3.org/2000/svg">
<path d="M237.8 268.4C241.5 267.8 246.3 262.1 248.7 260.1C250.3 258.8 275.8 237.9 276.3 238.9C276.9 240.2 272.4 248.1 272.3 248.5C270.2 253.1 267.6 258.1 267.3 263.3C267.1 266.4 267.8 270.1 271.2 271.2C273.8 271.9 279.3 269.2 280.6 272.4C281.7 274.8 281.4 283.9 285.5 284.3C293.8 284.9 303.6 264.7 306.2 260.3C311.2 251.9 323.2 235.2 306.3 230.0C299.8 228.0 292.8 227.8 286.0 228.1C266.2 228.9 252.8 232.8 235.0 241.2C222.5 247.1 209.3 256.2 199.6 266.2C194.4 271.6 197.6 273.0 204.2 272.0C220.8 269.4 236.7 263.1 252.8 258.5C261.6 256.1 269.4 253.8 278.4 253.6C289.0 253.2 290.6 255.1 301.4 255.7" stroke="black" stroke-width="4" stroke-linecap="round"/>
</svg>
