<svg width="512" height="512" viewBox="0 0 512 512" fill="none" xmlns="http://www.w3.org/2000/svg">
<path d="M236 280C236 279 236 278 237 277C243 266 250 255 257 245C260 241 263 234 267 231C269 230 268 237 267 240C267 242 264 248 265 250C266 253 276 249 278 249C291 248 278 274 294 272C302 271 310 264 317 259C322 255 326 252 326 245C325 243 326 240 324 239C319 231 309 230 301 231C285 231 262 236 246 240C233 245 219 250 207 258C200 263 193 269 188 276C183 283 188 282 194 281C211 277 228 272 246 269C259 266 272 264 286 263C306 261 293 263 311 262" stroke="black" stroke-width="4" stroke-linecap="round"/>
</svg>
