<svg width="512" height="512" viewBox="0 0 512 512" fill="none" xmlns="http://www.w3.org/2000/svg">
<path d="M235.5 279.9C235.6 278.7 236.0 278.3 236.7 276.9C242.8 265.8 249.9 255.1 257.0 244.6C259.5 240.9 263.0 234.4 266.9 231.5C269.2 229.8 268.1 237.2 267.5 240.0C266.9 242.5 264.5 247.6 265.4 250.3C266.4 253.1 275.8 248.7 277.5 248.7C291.0 248.0 278.0 273.6 293.6 271.8C302.0 270.9 310.1 264.1 316.6 259.3C322.0 255.3 326.4 252.0 325.6 244.7C325.4 242.6 325.5 240.3 324.4 238.7C319.2 231.3 309.3 230.4 301.2 230.5C284.6 230.6 261.7 235.5 246.2 240.3C232.7 244.5 219.4 250.4 207.5 258.1C200.5 262.7 192.8 269.4 187.8 276.3C183.3 282.5 188.0 282.4 193.6 281.2C211.1 277.4 228.2 272.3 245.7 268.8C259.3 266.1 272.0 264.1 285.8 262.8C306.2 260.9 293.0 262.8 311.3 261.7" stroke="black" stroke-width="4" stroke-linecap="round"/>
</svg>
