<svg width="512" height="512" viewBox="0 0 512 512" fill="none" xmlns="http://www.w3.org/2000/svg">
<path d="M213.1 285.6C210.8 283.8 227.4 265.2 227.9 264.6C231.8 259.9 235.6 255.4 239.8 250.9C240.2 250.4 243.3 247.0 244.9 246.2C245.9 245.8 243.3 255.2 243.2 255.5C242.6 258.2 240.3 264.1 241.6 267.0C242.9 269.8 247.4 266.5 249.0 265.7C255.1 262.7 249.3 279.6 256.2 275.8C263.0 272.0 269.0 263.2 273.8 257.5C277.1 253.5 282.9 246.2 285.9 241.7C286.8 240.3 290.7 234.0 290.9 231.7C291.9 220.8 265.9 228.7 262.7 229.7C247.1 234.3 233.6 243.3 220.5 252.7C215.1 256.5 204.2 264.7 198.7 269.0C196.8 270.5 194.9 272.0 193.0 273.6C192.3 274.3 190.9 274.8 191.0 275.8C191.1 276.6 192.6 276.4 193.4 276.5C195.8 276.6 198.2 276.6 200.6 276.4C212.2 275.6 225.5 273.4 236.7 271.3C259.3 267.0 281.6 260.3 304.3 256.7C310.3 255.8 315.1 256.2 320.8 256.9" stroke="black" stroke-width="4" stroke-linecap="round"/>
</svg>
