<svg width="512" height="512" viewBox="0 0 512 512" fill="none" xmlns="http://www.w3.org/2000/svg">
<path d="M213 286C211 284 227 265 228 265C232 260 236 255 240 251C240 250 243 247 245 246C246 246 243 255 243 255C243 258 240 264 242 267C243 270 247 266 249 266C255 263 249 280 256 276C263 272 269 263 274 257C277 253 283 246 286 242C287 240 291 234 291 232C292 221 266 229 263 230C247 234 234 243 220 253C215 257 204 265 199 269C197 271 195 272 193 274C192 274 191 275 191 276C191 277 193 276 193 276C196 277 198 277 201 276C212 276 225 273 237 271C259 267 282 260 304 257C310 256 315 256 321 257" stroke="black" stroke-width="4" stroke-linecap="round"/>
</svg>
