<svg width="512" height="512" viewBox="0 0 512 512" fill="none" xmlns="http://www.w3.org/2000/svg">
<path d="M234.6 288.1C238.8 282.2 243.5 276.6 248.2 271.0C249.9 268.9 256.8 260.6 259.7 257.7C262.0 255.4 261.0 257.4 260.3 259.0C259.2 261.9 245.0 288.3 251.8 288.5C256.3 288.6 270.9 276.1 274.3 281.2C275.8 283.5 271.5 295.1 277.2 288.9C282.7 283.0 287.1 275.8 291.0 268.7C297.5 256.9 304.1 243.7 306.5 230.2C307.7 223.2 305.5 220.4 297.9 221.9C274.5 226.3 252.6 241.1 233.9 254.9C224.6 261.8 214.6 269.6 207.0 278.4C200.5 286.1 211.5 284.4 216.3 283.8C226.8 282.3 237.1 279.9 247.5 278.1C258.3 276.3 269.1 275.0 279.9 273.7" stroke="black" stroke-width="4" stroke-linecap="round"/>
</svg>
