<svg width="512" height="512" viewBox="0 0 512 512" fill="none" xmlns="http://www.w3.org/2000/svg">
<path d="M235 288C239 282 244 277 248 271C250 269 257 261 260 258C262 255 261 257 260 259C259 262 245 288 252 288C256 289 271 276 274 281C276 283 271 295 277 289C283 283 287 276 291 269C298 257 304 244 306 230C308 223 306 220 298 222C275 226 253 241 234 255C225 262 215 270 207 278C200 286 212 284 216 284C227 282 237 280 248 278C258 276 269 275 280 274" stroke="black" stroke-width="4" stroke-linecap="round"/>
</svg>
