<svg width="512" height="512" viewBox="0 0 512 512" fill="none" xmlns="http://www.w3.org/2000/svg">
<path d="M226.7 277.8C225.3 276.1 243.4 261.4 244.5 260.6C247.6 258.1 254.5 251.9 259.2 251.9C263.2 252.0 256.8 264.1 256.4 265.0C255.3 267.5 252.3 272.7 253.5 275.7C254.2 277.6 258.1 276.4 259.2 276.2C261.9 275.9 263.6 275.8 264.3 278.9C264.6 280.3 263.9 290.2 267.1 287.1C271.2 283.2 274.5 277.5 277.0 272.5C282.4 261.9 287.0 250.3 290.6 238.9C292.0 234.5 295.7 225.2 288.1 224.2C281.9 223.3 275.4 225.9 269.9 228.0C259.9 232.0 251.1 236.8 241.9 242.1C232.5 247.4 221.8 253.1 213.8 260.5C208.7 265.3 210.9 267.7 217.7 267.7C236.8 267.7 256.1 263.1 274.9 260.1C284.3 258.6 292.1 257.1 301.3 257.9" stroke="black" stroke-width="4" stroke-linecap="round"/>
</svg>
