<svg width="512" height="512" viewBox="0 0 512 512" fill="none" xmlns="http://www.w3.org/2000/svg">
<path d="M227 278C225 276 243 261 244 261C248 258 254 252 259 252C263 252 257 264 256 265C255 267 252 273 254 276C254 278 258 276 259 276C262 276 264 276 264 279C265 280 264 290 267 287C271 283 274 277 277 273C282 262 287 250 291 239C292 235 296 225 288 224C282 223 275 226 270 228C260 232 251 237 242 242C233 247 222 253 214 261C209 265 211 268 218 268C237 268 256 263 275 260C284 259 292 257 301 258" stroke="black" stroke-width="4" stroke-linecap="round"/>
</svg>
