<svg width="512" height="512" viewBox="0 0 512 512" fill="none" xmlns="http://www.w3.org/2000/svg">
<path d="M204 296C213 289 223 282 233 275C238 272 248 263 254 263C257 262 253 268 253 268C252 269 251 272 252 274C253 276 255 275 256 275C259 276 259 279 259 281C259 284 258 287 258 290C258 291 257 294 258 294C259 293 260 292 261 291C264 286 270 275 272 271C280 257 288 242 291 227C292 224 293 221 291 218C288 212 277 218 271 221C253 230 235 242 219 255C217 256 207 264 210 269C215 275 231 273 236 273C250 273 263 271 276 269C287 267 297 267 308 266" stroke="black" stroke-width="4" stroke-linecap="round"/>
</svg>
