<svg width="512" height="512" viewBox="0 0 512 512" fill="none" xmlns="http://www.w3.org/2000/svg">
<path d="M204.0 296.5C213.0 288.7 223.3 281.8 233.0 275.0C237.9 271.7 247.6 263.2 254.3 262.6C256.7 262.4 253.3 267.6 253.2 267.8C252.5 269.3 250.6 272.5 251.7 274.2C252.6 275.7 255.0 274.9 256.3 275.3C258.7 275.9 258.5 278.8 258.5 280.8C258.5 283.9 258.2 286.5 258.0 289.6C257.8 291.0 257.3 294.5 258.4 293.7C259.4 292.9 260.1 291.8 260.8 290.8C263.9 286.0 270.1 275.3 272.4 271.1C279.7 257.4 288.2 242.4 291.1 227.0C291.7 224.1 292.8 220.7 291.3 218.1C288.0 212.2 277.3 217.8 271.2 220.7C252.7 229.5 234.6 241.8 218.8 254.8C217.4 256.0 206.8 263.9 210.3 268.6C214.8 274.6 231.0 273.3 236.4 273.3C249.8 273.1 263.0 271.1 276.2 269.1C286.9 267.5 297.2 266.7 307.9 266.1" stroke="black" stroke-width="4" stroke-linecap="round"/>
</svg>
