<svg width="512" height="512" viewBox="0 0 512 512" fill="none" xmlns="http://www.w3.org/2000/svg">
<path d="M233.3 282.2C244.4 271.9 256.2 262.2 267.8 252.4C269.1 251.3 270.4 250.1 271.7 249.1C272.6 248.3 273.8 246.3 274.5 247.1C275.5 248.2 273.9 249.9 273.6 251.2C273.2 253.6 272.5 257.5 273.0 260.0C273.8 263.6 276.3 262.8 278.9 263.5C282.9 264.6 279.7 269.5 278.7 271.6C277.8 273.5 275.5 276.8 276.8 279.1C277.6 280.6 279.2 281.0 280.4 279.7C284.6 275.2 287.6 268.7 290.1 263.3C292.3 258.8 296.2 250.0 297.8 245.1C298.4 243.2 300.4 236.4 299.2 233.8C295.8 226.8 280.8 231.4 276.8 232.4C259.2 237.0 241.3 244.7 225.6 254.1C221.1 256.7 215.7 260.4 212.8 264.9C208.7 271.3 221.6 270.2 224.1 270.0C242.1 268.6 259.0 261.2 277.3 261.2" stroke="black" stroke-width="4" stroke-linecap="round"/>
</svg>
