<svg width="512" height="512" viewBox="0 0 512 512" fill="none" xmlns="http://www.w3.org/2000/svg">
<path d="M233 282C244 272 256 262 268 252C269 251 270 250 272 249C273 248 274 246 275 247C275 248 274 250 274 251C273 254 272 258 273 260C274 264 276 263 279 264C283 265 280 269 279 272C278 274 276 277 277 279C278 281 279 281 280 280C285 275 288 269 290 263C292 259 296 250 298 245C298 243 300 236 299 234C296 227 281 231 277 232C259 237 241 245 226 254C221 257 216 260 213 265C209 271 222 270 224 270C242 269 259 261 277 261" stroke="black" stroke-width="4" stroke-linecap="round"/>
</svg>
