<svg width="512" height="512" viewBox="0 0 512 512" fill="none" xmlns="http://www.w3.org/2000/svg">
<path d="M229.0 281.4C227.1 281.4 232.0 278.8 233.5 277.6C240.7 271.4 247.9 265.2 255.1 259.0C257.9 256.6 262.8 252.3 266.0 249.8C266.9 249.1 269.1 247.3 269.0 248.4C268.8 251.3 256.4 271.5 262.0 272.1C264.9 272.4 268.3 269.2 271.2 270.4C275.9 272.4 274.0 282.7 274.9 286.7C275.4 289.2 277.7 287.7 278.7 286.4C284.9 279.3 288.9 268.8 292.9 260.6C296.8 252.2 304.2 240.1 304.7 230.3C305.5 216.0 279.1 230.3 276.3 231.7C259.5 240.0 243.5 250.5 228.1 261.2C220.9 266.3 200.9 279.0 209.7 280.2C230.6 283.2 252.1 274.8 273.0 276.0" stroke="black" stroke-width="4" stroke-linecap="round"/>
</svg>
