<svg width="512" height="512" viewBox="0 0 512 512" fill="none" xmlns="http://www.w3.org/2000/svg">
<path d="M229 281C227 281 232 279 233 278C241 271 248 265 255 259C258 257 263 252 266 250C267 249 269 247 269 248C269 251 256 271 262 272C265 272 268 269 271 270C276 272 274 283 275 287C275 289 278 288 279 286C285 279 289 269 293 261C297 252 304 240 305 230C306 216 279 230 276 232C259 240 243 250 228 261C221 266 201 279 210 280C231 283 252 275 273 276" stroke="black" stroke-width="4" stroke-linecap="round"/>
</svg>
