<svg width="512" height="512" viewBox="0 0 512 512" fill="none" xmlns="http://www.w3.org/2000/svg">
<path d="M218.3 272.7C226.9 264.7 236.5 257.8 245.7 250.7C246.5 250.2 254.0 243.3 256.2 243.6C256.7 243.6 251.5 252.8 251.3 253.2C248.4 258.7 247.6 260.8 254.0 261.3C262.7 261.9 250.8 289.3 267.8 280.6C281.2 273.8 290.6 255.9 297.2 243.4C298.2 241.6 303.4 233.7 300.0 231.3C297.0 229.1 291.6 230.3 288.8 230.8C279.1 232.7 271.3 235.7 262.1 239.7C246.1 246.6 228.9 254.6 214.9 265.2C202.7 274.6 222.9 270.6 225.4 270.2C241.9 267.8 259.9 261.9 276.5 265.2" stroke="black" stroke-width="4" stroke-linecap="round"/>
</svg>
