<svg width="512" height="512" viewBox="0 0 512 512" fill="none" xmlns="http://www.w3.org/2000/svg">
<path d="M232 272C233 271 234 270 235 270C241 265 246 259 252 254C257 249 262 244 267 239C269 237 269 238 268 241C267 247 264 252 262 258C261 261 260 265 261 269C263 272 264 274 264 278C264 281 262 288 265 287C271 283 277 271 281 266C283 262 286 258 288 253C290 250 297 236 297 231C298 211 236 246 228 251C225 253 214 259 215 264C216 271 239 264 241 264C254 261 267 257 281 258" stroke="black" stroke-width="4" stroke-linecap="round"/>
</svg>
