<svg width="512" height="512" viewBox="0 0 512 512" fill="none" xmlns="http://www.w3.org/2000/svg">
<path d="M232.1 271.6C233.2 271.3 233.9 270.5 234.7 269.7C240.5 264.6 246.2 259.3 251.8 254.0C256.9 249.2 261.6 244.0 266.6 239.3C268.9 237.1 269.2 238.0 268.3 240.8C266.5 246.6 264.0 252.1 262.2 257.9C261.3 261.0 259.7 265.3 261.2 268.5C262.9 272.1 263.6 273.9 263.6 278.2C263.7 281.0 262.4 288.2 264.8 286.7C271.1 283.0 277.1 271.5 280.6 266.0C283.2 261.8 285.8 257.6 288.2 253.3C290.0 249.8 296.9 236.4 297.1 231.3C297.9 210.9 235.5 246.3 228.0 251.1C225.2 252.9 213.6 259.4 214.6 264.4C215.9 270.9 239.3 264.1 240.6 263.8C253.9 261.2 267.2 256.9 280.8 258.1" stroke="black" stroke-width="4" stroke-linecap="round"/>
</svg>
