<svg width="512" height="512" viewBox="0 0 512 512" fill="none" xmlns="http://www.w3.org/2000/svg">
<path d="M219 278C221 272 227 266 230 262C234 256 238 251 243 246C245 244 246 244 246 247C246 250 242 262 246 264C249 265 252 264 253 267C255 272 252 279 254 282C257 285 261 279 263 276C270 266 277 255 277 243C279 214 243 238 234 245C225 251 217 258 210 267C209 269 206 274 209 274C218 275 232 268 240 265C247 263 253 261 260 259C314 244 249 263 304 249" stroke="black" stroke-width="4" stroke-linecap="round"/>
</svg>
