<svg width="512" height="512" viewBox="0 0 512 512" fill="none" xmlns="http://www.w3.org/2000/svg">
<path d="M219.5 278.0C221.3 272.3 226.8 266.5 230.2 261.9C234.3 256.4 238.4 250.5 243.3 245.6C245.5 243.5 246.1 244.0 246.0 246.8C245.9 250.1 242.0 261.9 246.3 263.5C249.0 264.5 251.7 264.0 253.2 267.2C255.1 271.5 251.9 278.9 254.4 282.4C256.5 285.3 260.6 278.5 262.7 275.7C269.5 266.4 276.6 254.7 277.4 242.8C279.2 214.1 242.8 238.0 233.8 244.8C225.3 251.2 216.8 258.4 210.2 266.8C208.7 268.8 206.0 274.0 208.5 274.1C218.0 274.8 231.8 268.0 240.0 265.3C246.6 263.2 253.2 261.0 259.9 259.1C314.2 243.7 249.4 262.9 304.1 248.9" stroke="black" stroke-width="4" stroke-linecap="round"/>
</svg>
