<svg width="512" height="512" viewBox="0 0 512 512" fill="none" xmlns="http://www.w3.org/2000/svg">
<path d="M241.1 287.0C241.5 285.9 242.5 285.1 243.3 284.2C247.6 279.7 251.9 275.2 256.3 270.7C258.6 268.3 261.3 264.8 264.1 262.8C264.8 262.4 262.5 269.8 262.4 269.9C260.7 275.4 257.1 283.5 266.3 280.6C269.8 279.5 274.7 276.6 278.6 277.1C283.9 277.8 281.0 289.8 281.7 292.9C281.9 293.4 282.9 293.7 283.2 293.3C286.3 289.1 294.5 269.2 294.9 268.4C297.6 261.8 300.5 255.3 302.8 248.5C303.8 245.7 310.2 228.1 307.1 222.3C301.5 212.0 274.0 225.7 269.8 227.5C249.2 236.3 229.4 248.0 211.7 261.9C210.5 262.8 198.3 271.1 207.3 273.2C224.3 277.1 246.1 270.7 262.4 267.3C275.7 264.5 289.4 259.9 303.0 258.4C306.7 258.0 306.7 258.7 308.1 260.7" stroke="black" stroke-width="4" stroke-linecap="round"/>
</svg>
