<svg width="512" height="512" viewBox="0 0 512 512" fill="none" xmlns="http://www.w3.org/2000/svg">
<path d="M241 287C242 286 242 285 243 284C248 280 252 275 256 271C259 268 261 265 264 263C265 262 262 270 262 270C261 275 257 284 266 281C270 279 275 277 279 277C284 278 281 290 282 293C282 293 283 294 283 293C286 289 295 269 295 268C298 262 300 255 303 249C304 246 310 228 307 222C301 212 274 226 270 227C249 236 229 248 212 262C211 263 198 271 207 273C224 277 246 271 262 267C276 265 289 260 303 258C307 258 307 259 308 261" stroke="black" stroke-width="4" stroke-linecap="round"/>
</svg>
