<svg width="512" height="512" viewBox="0 0 512 512" fill="none" xmlns="http://www.w3.org/2000/svg">
<path d="M200.5 285.2C208.6 278.0 217.9 270.0 228.1 265.9C236.4 262.5 231.8 270.5 230.6 275.2C229.9 277.9 227.9 283.3 229.9 286.0C231.7 288.5 236.5 287.7 239.0 287.6C241.0 287.5 244.4 286.5 246.3 288.0C249.3 290.2 249.6 290.6 253.0 286.5C260.0 278.2 265.3 268.0 270.2 258.3C273.8 251.3 277.6 243.6 278.3 235.6C278.9 229.5 278.2 221.4 270.0 222.0C255.9 223.1 239.9 233.7 228.4 240.8C226.0 242.3 199.3 256.8 204.5 264.7C206.2 267.3 209.7 268.3 212.8 269.1C221.9 271.4 243.0 271.9 251.8 272.0C271.7 272.1 291.6 269.4 311.5 269.0" stroke="black" stroke-width="4" stroke-linecap="round"/>
</svg>
