<svg width="512" height="512" viewBox="0 0 512 512" fill="none" xmlns="http://www.w3.org/2000/svg">
<path d="M201 285C209 278 218 270 228 266C236 263 232 270 231 275C230 278 228 283 230 286C232 288 237 288 239 288C241 288 244 287 246 288C249 290 250 291 253 286C260 278 265 268 270 258C274 251 278 244 278 236C279 230 278 221 270 222C256 223 240 234 228 241C226 242 199 257 205 265C206 267 210 268 213 269C222 271 243 272 252 272C272 272 292 269 311 269" stroke="black" stroke-width="4" stroke-linecap="round"/>
</svg>
