<svg width="512" height="512" viewBox="0 0 512 512" fill="none" xmlns="http://www.w3.org/2000/svg">
<path d="M240 272C248 260 259 250 269 240C274 236 272 241 271 244C269 250 265 256 265 262C265 266 277 258 277 267C277 271 275 275 274 280C274 284 280 274 282 271C288 264 293 257 297 250C300 244 303 239 295 235C268 224 235 241 216 259C213 262 205 268 204 272C203 274 206 274 208 274C214 274 225 272 230 271C251 266 272 260 292 255C298 254 303 253 308 253" stroke="black" stroke-width="4" stroke-linecap="round"/>
</svg>
