<svg width="512" height="512" viewBox="0 0 512 512" fill="none" xmlns="http://www.w3.org/2000/svg">
<path d="M240.1 271.7C248.2 260.2 258.5 249.9 269.0 240.5C274.0 235.9 272.2 240.5 270.9 244.2C269.2 249.5 265.4 256.1 265.3 261.8C265.2 265.8 276.9 257.6 276.8 266.9C276.8 271.4 274.6 275.5 274.1 279.9C273.7 283.8 279.9 274.4 282.3 271.3C287.5 264.4 292.6 257.3 296.9 249.7C300.2 243.9 302.8 238.5 295.2 235.2C268.2 223.5 235.4 241.5 215.6 259.3C212.7 261.8 204.8 267.7 203.5 272.0C203.1 273.5 206.4 273.8 208.1 273.8C214.4 273.6 224.8 271.7 230.3 270.6C251.2 266.4 271.6 260.1 292.3 255.3C298.0 254.0 302.7 253.4 308.4 253.4" stroke="black" stroke-width="4" stroke-linecap="round"/>
</svg>
