<svg width="512" height="512" viewBox="0 0 512 512" fill="none" xmlns="http://www.w3.org/2000/svg">
<path d="M228 271C237 264 245 257 254 251C255 251 262 245 263 248C264 250 263 253 262 254C261 262 267 261 272 263C276 265 274 272 274 275C274 276 273 282 276 283C279 285 284 280 285 279C294 270 301 260 305 248C308 243 311 232 303 230C293 226 279 231 269 234C256 237 242 243 230 249C222 253 215 258 208 263C206 265 200 269 203 269C204 270 205 270 206 270C213 269 231 266 235 266C260 262 285 258 310 254" stroke="black" stroke-width="4" stroke-linecap="round"/>
</svg>
