<svg width="512" height="512" viewBox="0 0 512 512" fill="none" xmlns="http://www.w3.org/2000/svg">
<path d="M227.9 270.9C236.5 264.1 244.6 256.8 253.9 250.9C254.5 250.6 261.7 245.3 263.3 248.2C264.2 249.9 262.8 252.5 262.4 254.1C260.8 261.8 267.3 260.7 272.1 263.4C275.5 265.3 274.1 271.7 274.1 274.6C274.1 276.0 273.5 282.0 275.8 283.4C278.9 285.2 284.1 279.7 284.9 278.9C293.5 270.5 300.9 259.5 305.4 248.3C307.6 242.9 311.2 232.3 303.1 229.6C293.2 226.4 278.6 230.9 269.3 233.5C255.6 237.3 242.3 242.8 229.7 249.3C222.1 253.3 214.7 257.8 207.9 262.9C205.6 264.5 200.0 268.7 202.7 269.5C203.8 269.8 204.9 269.8 206.0 269.7C212.8 269.3 230.9 266.3 234.8 265.7C259.8 261.7 284.8 257.7 309.8 254.0" stroke="black" stroke-width="4" stroke-linecap="round"/>
</svg>
