<svg width="512" height="512" viewBox="0 0 512 512" fill="none" xmlns="http://www.w3.org/2000/svg">
<path d="M207.7 270.3C214.0 261.3 223.1 253.4 231.0 245.8C234.3 242.6 237.7 239.0 241.6 236.4C245.1 234.0 242.3 243.6 242.2 244.2C241.6 248.7 240.5 253.6 244.1 257.2C247.0 260.3 248.3 259.2 251.0 262.8C253.2 265.8 253.4 268.9 253.4 272.5C253.4 275.7 251.2 282.2 252.5 285.3C253.1 286.8 255.4 283.6 256.4 282.3C260.0 277.8 262.9 273.5 265.8 268.6C270.6 260.1 276.5 248.8 275.7 238.7C274.7 226.1 262.9 225.3 253.0 226.3C230.2 228.8 211.6 244.6 195.8 260.2C194.9 261.0 190.8 264.2 194.6 264.1C199.0 264.0 208.8 262.0 211.5 261.5C217.3 260.4 246.3 254.6 250.2 253.9C268.2 250.5 286.4 247.0 304.7 246.3C307.5 246.2 313.2 246.3 316.4 247.6C318.2 248.4 317.9 249.5 319.3 250.7" stroke="black" stroke-width="4" stroke-linecap="round"/>
</svg>
