<svg width="512" height="512" viewBox="0 0 512 512" fill="none" xmlns="http://www.w3.org/2000/svg">
<path d="M208 270C214 261 223 253 231 246C234 243 238 239 242 236C245 234 242 244 242 244C242 249 240 254 244 257C247 260 248 259 251 263C253 266 253 269 253 272C253 276 251 282 253 285C253 287 255 284 256 282C260 278 263 274 266 269C271 260 276 249 276 239C275 226 263 225 253 226C230 229 212 245 196 260C195 261 191 264 195 264C199 264 209 262 212 262C217 260 246 255 250 254C268 251 286 247 305 246C307 246 313 246 316 248C318 248 318 249 319 251" stroke="black" stroke-width="4" stroke-linecap="round"/>
</svg>
