<svg width="512" height="512" viewBox="0 0 512 512" fill="none" xmlns="http://www.w3.org/2000/svg">
<path d="M236.6 287.1C235.3 286.7 251.8 271.0 252.2 270.6C257.5 265.6 262.9 260.5 268.7 256.2C271.2 254.3 271.5 254.7 270.5 257.5C269.5 260.3 262.8 270.4 268.1 271.8C269.2 272.1 271.4 271.7 272.3 272.3C275.2 274.2 274.1 282.8 274.1 285.6C274.2 287.2 273.4 288.9 274.2 290.2C274.7 291.0 275.2 288.5 275.6 287.7C278.2 282.1 282.0 273.6 284.3 268.5C289.2 257.4 294.7 246.1 298.2 234.5C298.4 233.7 300.8 225.0 299.0 223.2C295.6 219.8 289.2 224.5 285.0 226.8C268.4 235.9 252.9 247.6 237.4 258.5C236.1 259.4 203.8 277.6 214.8 282.8C221.7 286.0 231.3 285.0 238.7 284.8C248.0 284.5 257.3 283.8 266.6 283.3" stroke="black" stroke-width="4" stroke-linecap="round"/>
</svg>
