<svg width="512" height="512" viewBox="0 0 512 512" fill="none" xmlns="http://www.w3.org/2000/svg">
<path d="M237 287C235 287 252 271 252 271C258 266 263 261 269 256C271 254 272 255 270 258C269 260 263 270 268 272C269 272 271 272 272 272C275 274 274 283 274 286C274 287 273 289 274 290C275 291 275 289 276 288C278 282 282 274 284 269C289 257 295 246 298 234C298 234 301 225 299 223C296 220 289 224 285 227C268 236 253 248 237 258C236 259 204 278 215 283C222 286 231 285 239 285C248 284 257 284 267 283" stroke="black" stroke-width="4" stroke-linecap="round"/>
</svg>
