<svg width="512" height="512" viewBox="0 0 512 512" fill="none" xmlns="http://www.w3.org/2000/svg">
<path d="M242 278C242 278 242 278 243 277C248 275 253 270 258 266C262 263 267 259 272 257C274 256 271 262 270 264C268 268 261 282 270 281C272 280 274 280 275 282C275 283 274 293 275 292C279 288 281 282 283 278C289 266 295 253 299 240C301 236 304 228 303 224C301 214 279 228 276 229C263 236 251 245 239 254C233 259 225 265 218 269C217 270 211 275 209 277C207 280 217 280 221 280C241 280 261 278 282 278" stroke="black" stroke-width="4" stroke-linecap="round"/>
</svg>
