<svg width="512" height="512" viewBox="0 0 512 512" fill="none" xmlns="http://www.w3.org/2000/svg">
<path d="M242.3 277.6C241.6 277.6 242.0 277.6 242.6 277.3C248.1 274.6 252.9 269.9 257.8 266.3C261.9 263.4 266.9 258.9 271.8 257.2C274.1 256.4 271.0 262.0 270.0 264.2C268.4 268.0 261.5 282.4 270.4 280.8C272.4 280.4 274.1 279.6 274.5 282.4C274.7 283.3 274.2 293.0 275.5 291.5C278.6 287.9 281.0 282.4 283.1 278.3C289.3 266.0 294.9 253.1 299.5 240.1C300.9 235.9 303.9 228.5 302.8 223.8C300.7 214.4 278.9 227.8 276.2 229.3C263.2 236.4 251.3 245.3 239.3 253.9C232.8 258.6 224.6 264.5 218.0 269.4C217.5 269.8 210.5 274.6 209.3 276.6C207.3 279.9 216.7 279.6 220.6 279.7C240.9 280.2 261.4 278.5 281.7 277.6" stroke="black" stroke-width="4" stroke-linecap="round"/>
</svg>
