<svg width="512" height="512" viewBox="0 0 512 512" fill="none" xmlns="http://www.w3.org/2000/svg">
<path d="M230 288C236 278 244 269 252 260C254 258 259 253 258 255C257 258 256 260 255 263C253 268 252 271 258 271C266 270 260 289 270 282C278 276 284 266 289 258C294 251 298 243 300 235C300 232 300 224 296 224C293 224 291 225 288 225C277 230 259 239 250 245C242 249 234 253 227 257C222 261 209 266 214 270C216 271 219 271 221 271C227 271 233 271 238 272C246 272 254 270 261 273" stroke="black" stroke-width="4" stroke-linecap="round"/>
</svg>
