<svg width="512" height="512" viewBox="0 0 512 512" fill="none" xmlns="http://www.w3.org/2000/svg">
<path d="M230.0 287.6C235.8 277.6 244.1 268.9 251.9 260.5C253.7 258.5 259.0 252.7 258.2 255.3C257.3 257.9 255.6 260.2 254.6 262.9C252.8 267.8 252.4 271.4 258.2 270.7C266.2 269.7 260.2 289.0 270.3 281.9C278.2 276.3 284.4 266.4 289.4 258.4C293.8 251.3 298.3 243.1 299.7 234.7C300.1 232.3 300.3 224.3 295.8 224.0C293.3 223.8 290.8 224.6 288.4 225.5C276.8 229.7 259.2 239.3 249.5 244.6C241.9 248.8 234.2 252.9 226.8 257.4C221.6 260.5 208.7 266.4 213.6 269.8C215.7 271.3 218.7 270.6 221.3 270.9C226.9 271.4 232.9 271.5 238.5 271.6C245.6 271.7 254.2 270.3 261.0 272.6" stroke="black" stroke-width="4" stroke-linecap="round"/>
</svg>
