<svg width="512" height="512" viewBox="0 0 512 512" fill="none" xmlns="http://www.w3.org/2000/svg">
<path d="M217.2 279.0C229.3 270.7 239.5 260.2 250.7 250.8C258.7 244.0 255.1 255.9 255.0 261.0C254.8 271.4 261.8 262.6 264.0 266.7C265.7 269.9 264.7 274.3 265.3 277.7C266.6 284.7 277.5 265.9 277.5 265.8C279.4 262.9 298.9 230.6 288.6 228.3C281.1 226.7 271.4 231.2 265.1 234.4C251.3 241.5 240.2 252.8 229.1 263.3C223.6 268.6 213.8 275.4 210.1 282.5C209.2 284.2 214.0 283.6 216.0 283.2C224.3 281.5 233.5 278.8 241.5 276.4C261.4 270.4 281.0 262.8 301.7 261.1" stroke="black" stroke-width="4" stroke-linecap="round"/>
</svg>
