<svg width="512" height="512" viewBox="0 0 512 512" fill="none" xmlns="http://www.w3.org/2000/svg">
<path d="M223 277C221 277 224 274 225 273C227 271 233 263 236 263C238 263 235 274 234 275C234 277 231 284 233 287C236 291 244 285 246 283C249 281 254 276 258 276C261 277 261 281 261 283C261 285 259 291 261 290C263 289 267 271 267 270C270 259 273 249 275 238C275 236 278 223 273 223C266 222 258 230 254 234C243 243 234 254 225 264C222 267 220 270 217 273C215 276 209 281 212 283C214 284 216 283 218 283C224 282 244 278 248 277C266 274 283 272 301 271" stroke="black" stroke-width="4" stroke-linecap="round"/>
</svg>
