<svg width="512" height="512" viewBox="0 0 512 512" fill="none" xmlns="http://www.w3.org/2000/svg">
<path d="M222.8 277.5C221.0 277.2 223.9 273.9 225.2 272.7C227.1 270.8 233.2 262.9 236.3 263.1C237.9 263.2 234.5 274.4 234.5 274.6C233.8 277.4 231.1 284.0 233.1 286.9C236.0 290.8 243.7 284.6 245.8 283.2C248.6 281.3 253.9 275.6 258.0 276.4C261.1 277.0 261.1 280.6 261.2 282.8C261.4 285.2 258.7 290.7 260.9 289.8C262.8 289.1 266.8 270.6 266.9 270.1C269.9 259.3 272.6 248.5 274.5 237.5C274.8 235.8 278.3 223.3 273.0 222.6C266.4 221.6 257.5 230.4 253.7 234.0C243.4 243.4 234.0 254.0 224.7 264.4C222.1 267.4 219.6 270.3 217.0 273.3C214.7 276.0 208.7 281.1 211.9 282.6C213.9 283.6 216.2 283.0 218.4 282.8C223.7 282.2 243.7 277.9 248.1 277.0C265.8 273.6 282.8 272.3 300.7 270.9" stroke="black" stroke-width="4" stroke-linecap="round"/>
</svg>
