<svg width="512" height="512" viewBox="0 0 512 512" fill="none" xmlns="http://www.w3.org/2000/svg">
<path d="M234.3 278.4C231.6 275.2 240.4 264.5 241.9 262.5C244.3 259.5 256.4 242.7 252.5 255.6C251.7 258.4 249.9 262.0 250.0 264.9C250.0 268.1 260.3 263.3 261.1 263.0C264.0 262.3 269.3 260.5 271.3 264.0C272.1 265.4 271.2 275.3 274.0 274.5C278.5 273.1 282.3 264.9 284.1 261.2C286.5 256.3 288.1 250.9 286.6 245.5C280.9 224.7 247.2 236.9 235.6 244.7C229.6 248.6 224.1 253.4 218.7 258.0C217.4 259.1 211.6 262.5 216.3 262.7C226.7 263.2 237.5 261.6 247.7 260.2C264.2 258.1 280.7 255.9 297.3 254.0" stroke="black" stroke-width="4" stroke-linecap="round"/>
</svg>
