<svg width="512" height="512" viewBox="0 0 512 512" fill="none" xmlns="http://www.w3.org/2000/svg">
<path d="M217.2 275.8C226.7 274.9 236.3 265.2 243.8 260.0C247.5 257.4 252.4 253.1 256.9 251.5C258.6 250.9 255.7 269.0 255.7 269.3C255.6 270.8 253.6 283.7 259.7 282.1C262.6 281.4 265.5 278.4 268.1 277.0C273.2 274.3 271.5 278.8 276.3 271.7C280.5 265.5 298.5 239.3 289.2 232.0C283.1 227.4 271.9 230.2 265.7 231.9C254.1 235.1 242.9 240.5 232.2 246.0C229.8 247.3 211.4 258.6 218.7 262.7C225.4 266.5 238.5 264.7 245.3 264.4C261.9 263.7 278.6 262.1 295.1 260.7" stroke="black" stroke-width="4" stroke-linecap="round"/>
</svg>
