<svg width="512" height="512" viewBox="0 0 512 512" fill="none" xmlns="http://www.w3.org/2000/svg">
<path d="M241.3 289.8C246.4 289.2 254.1 279.7 257.4 276.6C262.0 272.3 266.1 267.5 270.7 263.0C273.9 259.9 271.6 264.8 271.2 265.9C268.4 274.5 269.1 278.1 277.8 279.9C281.5 280.6 279.9 293.2 281.9 292.8C284.8 292.2 289.1 281.2 289.4 280.4C295.5 266.5 301.6 251.5 303.4 236.3C304.6 226.7 303.1 216.2 290.7 220.5C276.0 225.5 261.9 238.2 249.8 247.2C237.3 256.6 224.5 265.9 212.7 276.2C211.3 277.4 204.1 282.9 210.9 281.5C221.9 279.2 232.6 275.5 243.7 273.2C258.0 270.2 271.9 269.2 286.4 268.2" stroke="black" stroke-width="4" stroke-linecap="round"/>
</svg>
