<svg width="512" height="512" viewBox="0 0 512 512" fill="none" xmlns="http://www.w3.org/2000/svg">
<path d="M238.6 278.0C236.6 277.2 257.8 252.3 259.9 250.1C263.7 246.1 268.6 241.0 274.1 239.0C279.9 236.8 274.9 246.4 274.4 247.6C272.3 252.3 269.8 256.8 268.2 261.8C266.5 266.7 269.1 263.6 271.8 264.2C280.0 266.1 267.9 287.8 278.3 278.7C284.4 273.3 290.4 267.5 295.4 261.1C299.8 255.6 308.2 244.7 304.8 236.9C302.3 231.3 293.5 229.6 288.2 229.5C272.3 229.2 256.8 240.9 244.5 249.5C234.1 256.9 224.3 265.1 214.7 273.4C213.6 274.4 200.6 283.7 209.8 282.2C222.7 280.1 235.4 275.4 248.1 272.0C265.4 267.2 281.9 265.3 299.6 263.0" stroke="black" stroke-width="4" stroke-linecap="round"/>
</svg>
