<svg width="512" height="512" viewBox="0 0 512 512" fill="none" xmlns="http://www.w3.org/2000/svg">
<path d="M239 278C237 277 258 252 260 250C264 246 269 241 274 239C280 237 275 246 274 248C272 252 270 257 268 262C267 267 269 264 272 264C280 266 268 288 278 279C284 273 290 267 295 261C300 256 308 245 305 237C302 231 293 230 288 230C272 229 257 241 245 250C234 257 224 265 215 273C214 274 201 284 210 282C223 280 235 275 248 272C265 267 282 265 300 263" stroke="black" stroke-width="4" stroke-linecap="round"/>
</svg>
