<svg width="512" height="512" viewBox="0 0 512 512" fill="none" xmlns="http://www.w3.org/2000/svg">
<path d="M211.2 277.9C215.9 270.7 221.7 264.2 227.0 257.5C232.3 250.7 229.4 261.7 229.3 265.5C229.2 267.8 228.2 274.2 230.4 276.1C232.0 277.6 234.9 274.8 236.5 274.7C239.6 274.4 239.4 279.1 240.8 280.7C244.7 285.2 250.0 274.6 251.0 273.0C255.6 265.3 259.4 256.9 263.1 248.7C264.5 245.6 270.3 236.4 266.8 232.4C263.6 228.7 255.4 230.1 251.6 231.0C242.6 233.1 235.2 239.2 228.4 245.2C222.5 250.6 206.3 262.7 205.0 271.8C204.9 272.7 206.2 273.6 207.2 273.7C210.3 274.1 227.9 270.8 228.3 270.7C254.7 265.6 280.4 259.4 307.0 256.3" stroke="black" stroke-width="4" stroke-linecap="round"/>
</svg>
