<svg width="512" height="512" viewBox="0 0 512 512" fill="none" xmlns="http://www.w3.org/2000/svg">
<path d="M211 278C216 271 222 264 227 257C232 251 229 262 229 265C229 268 228 274 230 276C232 278 235 275 236 275C240 274 239 279 241 281C245 285 250 275 251 273C256 265 259 257 263 249C265 246 270 236 267 232C264 229 255 230 252 231C243 233 235 239 228 245C222 251 206 263 205 272C205 273 206 274 207 274C210 274 228 271 228 271C255 266 280 259 307 256" stroke="black" stroke-width="4" stroke-linecap="round"/>
</svg>
