<svg width="512" height="512" viewBox="0 0 512 512" fill="none" xmlns="http://www.w3.org/2000/svg">
<path d="M235.2 292.0C233.9 292.8 234.6 291.2 235.0 290.3C238.0 283.6 242.1 277.3 245.9 271.0C246.6 269.9 261.2 249.9 261.3 249.9C263.6 254.8 258.9 264.0 259.1 269.4C259.1 271.1 260.2 271.1 261.6 271.5C266.9 273.0 264.8 283.1 264.6 286.7C264.5 289.2 264.2 291.6 264.2 294.1C264.1 297.5 264.3 298.7 266.2 294.8C270.5 285.7 273.6 275.7 276.8 266.2C281.6 252.0 288.6 236.0 289.6 220.9C290.7 205.0 271.0 223.6 269.0 225.1C256.5 234.6 244.4 244.7 232.6 255.1C232.2 255.4 221.8 263.4 222.0 265.8C222.4 270.3 275.6 268.5 279.3 268.5" stroke="black" stroke-width="4" stroke-linecap="round"/>
</svg>
