<svg width="512" height="512" viewBox="0 0 512 512" fill="none" xmlns="http://www.w3.org/2000/svg">
<path d="M235 292C234 293 235 291 235 290C238 284 242 277 246 271C247 270 261 250 261 250C264 255 259 264 259 269C259 271 260 271 262 271C267 273 265 283 265 287C265 289 264 292 264 294C264 298 264 299 266 295C270 286 274 276 277 266C282 252 289 236 290 221C291 205 271 224 269 225C256 235 244 245 233 255C232 255 222 263 222 266C222 270 276 269 279 269" stroke="black" stroke-width="4" stroke-linecap="round"/>
</svg>
