<svg width="512" height="512" viewBox="0 0 512 512" fill="none" xmlns="http://www.w3.org/2000/svg">
<path d="M233.8 281.9C239.5 273.8 247.3 266.2 255.6 260.8C257.5 259.5 262.0 256.3 264.7 256.6C265.9 256.8 265.0 259.3 265.2 259.9C266.2 264.7 275.3 257.8 277.5 259.9C283.4 265.6 265.5 288.4 272.3 283.8C277.1 280.5 281.2 273.8 284.2 269.1C291.3 257.9 299.3 245.4 304.0 232.9C310.0 216.7 292.2 225.7 285.5 229.0C265.7 238.7 247.8 251.8 230.7 265.5C225.1 269.9 210.4 279.2 206.7 286.5C204.7 290.6 216.0 287.6 220.6 286.7C245.1 282.1 269.1 276.9 293.9 273.5" stroke="black" stroke-width="4" stroke-linecap="round"/>
</svg>
