<svg width="512" height="512" viewBox="0 0 512 512" fill="none" xmlns="http://www.w3.org/2000/svg">
<path d="M239 269C237 267 249 259 250 258C253 256 256 253 260 251C263 250 259 257 259 258C257 263 254 267 260 270C263 271 265 274 266 277C266 278 266 284 267 282C275 272 279 258 283 246C283 245 290 231 287 229C282 227 277 232 273 235C263 240 255 245 246 252C236 259 226 266 216 274C216 274 208 279 213 280C220 281 231 277 237 275C258 268 279 262 300 255" stroke="black" stroke-width="4" stroke-linecap="round"/>
</svg>
