<svg width="512" height="512" viewBox="0 0 512 512" fill="none" xmlns="http://www.w3.org/2000/svg">
<path d="M238.6 269.2C237.5 267.4 249.1 259.3 250.2 258.5C253.2 256.1 256.3 253.3 259.6 251.4C262.5 249.8 259.2 257.4 259.1 257.6C257.1 263.1 253.8 266.9 259.8 269.6C263.2 271.1 264.8 273.7 265.7 277.1C265.8 277.5 265.7 283.5 266.6 282.4C274.6 272.4 278.8 257.8 283.1 246.1C283.3 245.5 290.0 230.9 286.9 229.5C282.4 227.5 277.3 232.2 273.0 234.6C263.4 239.9 255.3 245.4 246.2 251.7C236.1 258.7 226.0 266.0 216.4 273.7C216.3 273.8 208.3 279.0 213.0 279.6C220.5 280.6 230.6 276.7 237.3 274.7C258.4 268.5 279.5 261.7 300.5 255.1" stroke="black" stroke-width="4" stroke-linecap="round"/>
</svg>
