<svg width="512" height="512" viewBox="0 0 512 512" fill="none" xmlns="http://www.w3.org/2000/svg">
<path d="M217.5 279.0C227.3 273.2 236.0 265.0 244.6 257.6C246.4 256.0 248.3 254.4 250.1 252.8C251.3 251.7 252.7 248.6 254.0 249.6C255.9 251.1 251.7 253.9 250.4 256.0C249.4 257.8 240.5 270.9 245.0 271.5C247.1 271.7 249.8 271.1 251.3 273.0C254.5 277.0 250.8 284.3 254.9 287.7C262.6 294.1 291.6 237.4 293.7 230.3C297.5 216.9 276.1 228.9 273.8 230.0C256.7 238.0 240.1 247.9 224.4 258.4C205.9 270.9 234.9 264.8 241.1 263.5C253.4 261.1 265.7 257.9 278.1 255.6C284.7 254.4 287.0 254.4 292.6 256.4" stroke="black" stroke-width="4" stroke-linecap="round"/>
</svg>
