<svg width="512" height="512" viewBox="0 0 512 512" fill="none" xmlns="http://www.w3.org/2000/svg">
<path d="M229.1 275.3C234.0 267.3 242.4 260.7 249.8 255.1C259.5 247.7 255.1 252.6 253.9 258.4C252.8 264.2 261.4 259.7 263.6 260.0C268.0 260.6 265.9 278.8 266.7 278.5C268.8 277.6 272.2 271.9 273.3 270.4C276.5 266.1 279.5 261.8 281.9 257.1C284.3 252.2 294.0 231.0 280.5 234.3C268.1 237.4 255.9 246.0 245.2 252.4C243.9 253.2 216.5 267.4 218.1 272.6C219.7 277.9 250.0 273.6 251.6 273.4C265.7 272.5 279.8 272.2 293.9 271.6" stroke="black" stroke-width="4" stroke-linecap="round"/>
</svg>
