<svg width="512" height="512" viewBox="0 0 512 512" fill="none" xmlns="http://www.w3.org/2000/svg">
<path d="M229.9 280.0C235.1 273.6 241.0 267.3 247.7 262.4C253.8 258.0 252.3 261.2 251.0 266.5C248.9 274.9 251.0 279.1 260.1 276.5C263.6 275.4 265.6 275.6 269.1 275.4C275.9 275.0 280.9 267.4 284.1 262.4C286.1 259.3 300.4 234.2 293.7 232.4C285.9 230.3 272.1 236.5 265.8 239.2C249.9 245.7 235.0 254.4 220.8 263.9C216.4 266.9 203.5 274.1 208.8 274.3C210.6 274.4 212.4 273.7 214.2 273.2C219.4 271.9 244.8 264.5 246.7 264.0C262.6 259.6 278.7 254.9 295.2 252.5C298.9 252.0 301.6 252.0 305.0 252.8" stroke="black" stroke-width="4" stroke-linecap="round"/>
</svg>
