<svg width="512" height="512" viewBox="0 0 512 512" fill="none" xmlns="http://www.w3.org/2000/svg">
<path d="M231.9 269.8C234.9 271.1 241.4 261.7 243.1 260.0C244.3 258.8 252.2 251.7 248.6 257.6C246.6 260.8 244.7 264.1 243.1 267.4C240.1 273.7 245.2 271.8 249.5 270.3C254.3 268.6 261.3 264.5 266.5 267.4C270.4 269.6 266.8 275.2 268.0 276.2C268.8 276.7 287.9 246.4 288.5 242.9C289.7 234.6 276.0 235.9 271.9 236.3C257.0 237.7 243.0 244.9 230.2 252.1C229.0 252.7 214.6 259.7 215.0 263.2C215.5 267.5 240.3 265.5 242.4 265.5C260.1 265.0 279.5 262.0 296.7 266.0" stroke="black" stroke-width="4" stroke-linecap="round"/>
</svg>
