<svg width="512" height="512" viewBox="0 0 512 512" fill="none" xmlns="http://www.w3.org/2000/svg">
<path d="M242.6 276.5C246.8 268.9 250.7 259.4 256.9 253.1C257.9 252.2 257.5 258.1 257.7 258.9C258.2 262.1 264.9 259.1 267.1 261.5C269.6 264.4 266.9 281.0 273.9 274.5C280.1 268.8 284.6 260.8 288.4 253.5C290.4 249.6 295.0 241.6 294.3 236.6C293.3 229.5 241.9 258.1 237.6 260.2C229.0 264.7 220.2 268.9 211.3 272.6C210.3 273.0 209.3 273.4 208.3 273.8C206.5 274.5 206.5 274.5 208.8 274.3C241.1 270.6 273.1 264.9 305.4 261.4" stroke="black" stroke-width="4" stroke-linecap="round"/>
</svg>
