<svg width="512" height="512" viewBox="0 0 512 512" fill="none" xmlns="http://www.w3.org/2000/svg">
<path d="M228.7 281.3C239.9 272.9 249.7 262.7 260.6 254.1C262.4 252.7 266.1 248.9 268.6 248.5C269.3 248.3 266.3 255.1 266.3 255.1C265.4 257.1 263.8 260.1 263.9 262.4C263.9 263.6 268.3 265.8 269.0 267.3C270.4 270.5 269.8 275.0 271.6 277.9C273.1 280.3 279.5 271.8 279.6 271.6C285.2 264.2 290.2 256.3 294.8 248.3C297.1 244.5 300.4 239.4 300.1 234.6C299.3 220.6 260.9 247.0 259.5 247.8C244.3 257.1 227.6 266.0 213.8 277.4C208.4 281.9 211.6 281.4 216.6 280.8C223.1 280.0 237.6 276.8 243.2 275.7C262.4 271.8 281.4 268.6 301.0 267.2" stroke="black" stroke-width="4" stroke-linecap="round"/>
</svg>
