<svg width="512" height="512" viewBox="0 0 512 512" fill="none" xmlns="http://www.w3.org/2000/svg">
<path d="M229 281C240 273 250 263 261 254C262 253 266 249 269 248C269 248 266 255 266 255C265 257 264 260 264 262C264 264 268 266 269 267C270 271 270 275 272 278C273 280 279 272 280 272C285 264 290 256 295 248C297 244 300 239 300 235C299 221 261 247 259 248C244 257 228 266 214 277C208 282 212 281 217 281C223 280 238 277 243 276C262 272 281 269 301 267" stroke="black" stroke-width="4" stroke-linecap="round"/>
</svg>
