<svg width="512" height="512" viewBox="0 0 512 512" fill="none" xmlns="http://www.w3.org/2000/svg">
<path d="M216.5 270.2C224.5 266.7 230.3 259.5 238.4 256.2C242.8 254.3 239.7 265.4 243.3 267.4C248.9 270.6 250.5 268.2 252.9 274.6C253.6 276.5 255.8 282.2 258.6 279.5C265.9 272.6 270.1 259.4 274.3 250.7C276.9 245.2 279.4 239.7 281.8 234.1C283.2 230.8 280.9 231.5 277.5 231.7C254.3 232.7 229.5 239.1 209.1 250.3C207.6 251.2 199.6 254.7 200.6 258.2C202.5 265.3 221.0 264.2 224.7 264.2C248.0 264.1 271.2 260.8 294.0 256.4C300.9 255.0 304.8 254.3 311.3 255.1" stroke="black" stroke-width="4" stroke-linecap="round"/>
</svg>
