<svg width="512" height="512" viewBox="0 0 512 512" fill="none" xmlns="http://www.w3.org/2000/svg">
<path d="M231.1 284.1C231.3 283.0 232.0 282.6 232.8 281.7C237.7 276.0 242.1 269.9 246.6 264.0C251.4 257.7 252.2 255.3 252.4 264.0C252.6 272.0 256.8 267.0 261.7 269.0C265.8 270.7 262.8 290.1 263.2 294.2C263.3 296.2 265.5 290.9 266.3 289.1C273.2 272.6 279.2 255.7 285.1 238.8C287.4 232.4 290.4 225.6 291.9 218.9C292.6 216.2 290.9 218.0 288.6 219.3C281.6 223.3 270.6 230.5 264.6 234.3C250.8 243.3 236.0 252.1 223.5 262.9C217.1 268.4 220.2 271.1 227.1 273.0C243.5 277.3 260.5 272.5 277.0 271.3" stroke="black" stroke-width="4" stroke-linecap="round"/>
</svg>
