<svg width="512" height="512" viewBox="0 0 512 512" fill="none" xmlns="http://www.w3.org/2000/svg">
<path d="M224 287C234 276 242 264 252 254C254 252 257 248 260 247C261 246 259 254 259 254C258 257 257 261 257 264C257 267 260 268 262 270C264 273 265 277 265 281C265 282 264 288 265 288C267 287 273 277 273 276C281 264 288 251 295 237C299 227 301 220 287 226C268 235 248 246 231 258C225 262 219 267 215 272C211 276 221 274 223 274C235 273 247 272 260 271" stroke="black" stroke-width="4" stroke-linecap="round"/>
</svg>
