<svg width="512" height="512" viewBox="0 0 512 512" fill="none" xmlns="http://www.w3.org/2000/svg">
<path d="M224.4 286.6C233.7 275.8 242.2 264.4 251.9 254.0C253.9 251.8 256.8 248.0 259.6 246.6C260.6 246.2 258.5 253.7 258.5 253.7C257.7 257.0 256.8 260.6 256.8 264.0C256.9 267.2 260.1 267.6 261.7 270.0C263.9 273.3 265.1 277.4 265.1 281.3C265.1 281.6 264.2 288.3 264.7 288.1C267.4 287.3 272.8 277.2 273.3 276.4C281.1 263.7 288.4 250.6 294.5 237.1C299.2 226.6 300.9 220.4 287.1 226.2C267.5 234.5 247.6 245.9 230.5 258.5C225.2 262.4 219.2 266.9 214.8 272.0C211.0 276.4 221.3 274.3 222.6 274.2C234.9 273.0 247.2 271.5 259.6 270.6" stroke="black" stroke-width="4" stroke-linecap="round"/>
</svg>
