<svg width="512" height="512" viewBox="0 0 512 512" fill="none" xmlns="http://www.w3.org/2000/svg">
<path d="M230.9 272.5C226.0 272.5 239.4 267.5 243.3 264.6C250.1 259.7 250.9 258.9 249.4 268.6C249.1 270.1 245.9 289.7 248.8 284.1C251.1 279.5 254.6 268.6 261.3 269.3C267.2 270.0 265.9 274.3 269.4 264.4C272.6 255.3 276.1 245.6 277.3 236.0C279.1 222.9 270.8 225.8 262.4 230.1C251.6 235.6 241.1 242.1 230.8 248.4C228.4 249.9 211.1 258.1 210.5 262.4C210.2 264.3 214.1 264.0 216.1 264.2C222.3 264.9 234.1 265.3 239.5 265.4C260.7 265.5 280.5 262.4 301.3 259.7" stroke="black" stroke-width="4" stroke-linecap="round"/>
</svg>
