<svg width="512" height="512" viewBox="0 0 512 512" fill="none" xmlns="http://www.w3.org/2000/svg">
<path d="M215.5 269.3C221.9 263.4 228.8 257.8 235.5 252.2C240.9 247.8 241.9 246.0 242.1 252.8C242.3 257.6 244.7 257.1 248.7 257.6C253.3 258.1 248.4 272.1 254.6 270.7C261.0 269.3 265.9 258.0 268.1 253.1C269.4 250.1 274.5 238.4 272.6 234.7C269.2 228.2 211.3 268.9 204.0 274.4C198.3 278.7 206.4 277.8 209.4 277.4C227.3 275.3 245.0 270.8 262.6 266.9C278.2 263.5 295.0 258.6 310.4 258.6" stroke="black" stroke-width="4" stroke-linecap="round"/>
</svg>
