<svg width="512" height="512" viewBox="0 0 512 512" fill="none" xmlns="http://www.w3.org/2000/svg">
<path d="M219.4 283.1C224.0 278.4 228.8 273.8 234.2 270.0C241.1 265.1 242.4 266.1 242.8 273.1C243.3 280.8 248.6 277.1 253.6 276.5C259.6 275.9 254.5 295.1 263.4 289.7C274.0 283.3 281.4 267.5 286.8 257.3C290.4 250.4 300.2 234.3 297.3 225.4C292.1 208.8 241.6 244.2 235.5 249.1C227.1 255.6 218.5 262.7 211.2 270.4C209.4 272.2 205.3 276.5 210.6 277.3C221.5 278.8 234.5 276.7 245.2 276.1C264.7 275.0 284.1 274.3 303.6 273.5" stroke="black" stroke-width="4" stroke-linecap="round"/>
</svg>
