<svg width="512" height="512" viewBox="0 0 512 512" fill="none" xmlns="http://www.w3.org/2000/svg">
<path d="M222.9 280.1C224.6 274.4 230.8 269.2 234.3 264.6C240.0 257.3 237.9 264.2 237.9 270.5C237.9 273.6 234.9 294.7 242.0 288.6C244.5 286.5 248.7 278.4 252.8 280.7C261.2 285.4 266.5 256.9 267.4 253.8C269.2 247.4 275.2 231.8 272.3 224.4C269.8 217.8 251.4 230.6 250.1 231.5C246.9 233.5 199.6 266.4 205.5 271.2C208.1 273.3 211.9 273.8 215.2 274.1C226.6 275.3 249.0 273.9 259.8 273.1C275.8 271.8 291.4 269.1 307.2 266.2" stroke="black" stroke-width="4" stroke-linecap="round"/>
</svg>
