<svg width="512" height="512" viewBox="0 0 512 512" fill="none" xmlns="http://www.w3.org/2000/svg">
<path d="M225.7 285.0C228.1 272.5 233.5 261.1 240.3 250.4C246.0 241.3 244.0 250.5 243.6 256.3C243.3 260.1 240.8 269.3 247.4 268.4C252.6 267.7 254.7 279.1 258.2 274.5C266.5 263.5 274.2 246.6 275.9 232.7C278.3 214.1 242.2 246.9 240.0 248.7C231.1 255.9 222.5 263.7 213.4 270.6C212.9 271.0 202.8 279.0 203.5 279.3C207.5 281.2 212.1 277.3 216.2 275.9C235.9 269.2 232.2 270.0 253.7 262.9C272.1 256.9 290.0 252.7 308.9 248.7" stroke="black" stroke-width="4" stroke-linecap="round"/>
</svg>
