<svg width="512" height="512" viewBox="0 0 512 512" fill="none" xmlns="http://www.w3.org/2000/svg">
<path d="M227.9 281.5C235.1 271.8 244.6 263.2 253.5 255.0C255.4 253.2 258.3 250.1 261.1 249.3C263.7 248.7 260.9 254.8 260.4 257.4C259.7 260.4 254.7 274.5 260.6 274.9C263.0 275.0 264.7 274.4 266.3 276.8C267.0 277.9 269.9 288.4 272.3 285.8C277.0 280.9 279.3 270.0 281.2 264.0C284.1 254.5 287.3 244.6 288.8 234.8C289.6 229.3 290.3 224.8 283.0 226.3C273.9 228.2 257.8 235.1 250.6 238.1C238.6 243.1 221.0 250.5 209.3 257.0C205.5 259.2 201.6 261.3 198.4 264.3C195.6 266.9 194.5 271.4 199.2 272.9C212.6 277.4 234.1 270.7 246.7 268.2C265.3 264.6 283.8 260.1 302.4 256.2C308.5 254.9 311.4 254.2 316.4 255.9" stroke="black" stroke-width="4" stroke-linecap="round"/>
</svg>
