<svg width="512" height="512" viewBox="0 0 512 512" fill="none" xmlns="http://www.w3.org/2000/svg">
<path d="M228 281C235 272 245 263 253 255C255 253 258 250 261 249C264 249 261 255 260 257C260 260 255 275 261 275C263 275 265 274 266 277C267 278 270 288 272 286C277 281 279 270 281 264C284 254 287 245 289 235C290 229 290 225 283 226C274 228 258 235 251 238C239 243 221 251 209 257C205 259 202 261 198 264C196 267 195 271 199 273C213 277 234 271 247 268C265 265 284 260 302 256C309 255 311 254 316 256" stroke="black" stroke-width="4" stroke-linecap="round"/>
</svg>
