<svg width="512" height="512" viewBox="0 0 512 512" fill="none" xmlns="http://www.w3.org/2000/svg">
<path d="M234.0 282.0C234.6 275.1 242.7 267.1 247.1 262.3C250.5 258.6 257.6 251.3 257.2 260.1C256.9 265.0 252.6 289.9 262.8 287.0C267.7 285.6 269.9 281.2 271.3 288.3C271.8 290.8 272.1 293.4 272.3 296.1C272.5 299.3 274.9 290.0 275.8 286.9C280.5 269.8 285.2 252.5 288.0 235.0C289.0 228.9 292.3 220.7 287.8 216.5C284.4 213.4 278.8 218.3 274.8 220.5C261.4 228.1 248.5 237.4 236.2 246.8C230.9 250.9 214.1 261.1 212.1 268.7C210.8 273.7 222.2 271.1 227.3 270.8C252.1 269.1 275.8 263.2 300.1 258.5" stroke="black" stroke-width="4" stroke-linecap="round"/>
</svg>
