<svg width="512" height="512" viewBox="0 0 512 512" fill="none" xmlns="http://www.w3.org/2000/svg">
<path d="M191.062 211.072C191.062 224.204 191.464 237.595 191.616 251.036M191.616 251.036C191.95 280.425 191.092 310.05 182.244 337.725C181.542 339.918 178.669 351.911 175.189 353.01C172.723 353.789 170.135 338.982 169.897 337.725C166.603 320.312 167.419 302.704 173.761 286.073C178.5 273.644 184.676 262.137 191.616 251.036ZM191.616 251.036C195.795 244.351 200.251 237.815 204.836 231.313C207.999 226.828 211.85 221.839 214.15 216.484M214.15 216.484C214.908 214.718 215.498 212.912 215.838 211.072C216.42 207.933 215.471 205.164 214.831 210.652C214.604 212.596 214.376 214.54 214.15 216.484ZM214.15 216.484C213.022 226.159 211.925 235.842 211.135 245.549C210.864 248.877 209.826 257.312 212.605 255.459C214.189 254.403 214.424 247.823 214.621 246.641C216.225 237.015 217.802 227.407 218.904 217.707C219.638 211.244 219.308 203.931 220.584 197.55C223.615 182.392 220.545 228.497 221.718 243.911C221.773 244.637 223.773 256.393 223.943 256.257C224.76 255.604 225.294 250.56 225.371 250.21C228.545 235.795 231.686 221.366 234.484 206.873C236.087 198.566 238.248 189.858 239.791 181.15M239.791 181.15C240.824 175.322 241.58 169.494 241.707 163.787C241.78 160.502 240.367 170.248 240.195 173.53C240.062 176.052 239.924 178.594 239.791 181.15ZM239.791 181.15C238.931 197.755 238.345 214.962 241.623 231.145C241.816 232.102 245.29 252.73 247.754 252.73C250.045 252.73 252.715 236.399 253.045 234.756C254.804 226.009 256.308 216.884 259.092 208.384C260.177 205.071 260.604 205.055 260.604 208.804C260.604 219.321 259.38 230.583 261.779 240.887C262.346 243.319 263.991 252.478 267.869 252.478C271.11 252.478 273.298 246.277 274.252 244.247C278.308 235.609 280.187 226.66 281.726 217.287C281.892 216.28 282.953 210.967 284.191 203.925M284.191 203.925C287.229 186.657 291.336 159 285.926 159C282.725 159 281.629 171.396 281.474 173.026C280.484 183.476 281.815 193.802 284.191 203.925ZM284.191 203.925C284.91 206.985 285.723 210.026 286.598 213.046C289.349 222.551 291.527 232.765 296.088 241.601C299.049 247.337 299.333 247.46 305.201 244.331M263.627 186.883V191.418" stroke="black" stroke-width="4" stroke-linecap="round"/>
</svg>
