<svg width="512" height="512" viewBox="0 0 512 512" fill="none" xmlns="http://www.w3.org/2000/svg">
<path d="M188.542 219.733C188.542 275.12 188.958 330.211 180.113 385.055C179.673 387.779 179.483 394.727 176.733 396.506C174.897 397.694 169.796 389.272 169.258 388.196C164.117 377.913 163.584 363.947 164.209 352.77C165.112 336.605 171.104 321.438 178.284 307.125C188.034 287.688 200.814 270.868 213.511 253.41C216.443 249.378 219.981 244.665 221.304 239.772C221.846 237.768 225.028 224.932 220.31 230.349C213.839 237.779 210.133 248.423 210.887 258.221C211.069 260.586 213.117 270.467 216.851 270.467C218.67 270.467 219.557 267.328 220.032 266.093C222.491 259.686 224.705 253.198 226.632 246.611C229.324 237.406 231.482 228.717 231.482 219.137C231.482 214.22 229.558 221.761 229.335 222.914C227.696 231.401 227.071 243.566 231.562 251.143C232.392 252.545 240.407 263.023 243.092 260.05C246.309 256.488 246.509 248.695 247.068 244.305C248.271 234.855 249.338 225.371 249.374 215.837C249.403 208.273 250.004 197.189 246.194 190.112C244.068 186.164 245.08 193.887 245.08 195.32C245.08 216.54 245.21 244.996 264.245 259.095C266.451 260.73 266.326 259.841 268.022 256.789C272.054 249.531 273.56 241.55 274.264 233.331C274.46 231.049 274.638 228.545 274.383 226.254C274.358 226.023 273.302 223.788 273.032 224.465C271.318 228.749 273.046 237.88 274.542 241.919C276.82 248.068 284.23 259.594 291.758 253.529C296.498 249.711 300.103 244.608 303.368 239.534C309.025 230.743 314.632 221.333 316.489 210.906C317.71 204.054 317.768 195.237 311.638 190.47C307.914 187.573 304.79 189.411 303.408 193.452C299.081 206.1 299.648 220.064 305.356 232.138C309.28 240.437 315.044 248.171 322.374 253.768C330.458 259.941 339.154 260.605 348.854 261.958" stroke="black" stroke-width="4" stroke-linecap="round"/>
<path d="M272.276 200.41C274.867 201.706 277.56 202.695 280.148 203.989" stroke="black" stroke-width="4" stroke-linecap="round"/>
</svg>
